<?xml version="1.0" encoding="UTF-8" standalone="no" ?>
<!DOCTYPE svg PUBLIC "-//W3C//DTD SVG 1.1//EN" "http://www.w3.org/Graphics/SVG/1.1/DTD/svg11.dtd">
<svg xmlns="http://www.w3.org/2000/svg" xmlns:xlink="http://www.w3.org/1999/xlink" version="1.1" width="1080" height="1080" viewBox="0 0 1080 1080" xml:space="preserve">
<desc>Created with Fabric.js 5.2.4</desc>
<defs>
</defs>
<rect x="0" y="0" width="100%" height="100%" fill="transparent"></rect>
<g transform="matrix(1 0 0 1 540 540)" id="91546184-7e9b-425b-a2f9-2abd221da8a1"  >
</g>
<g transform="matrix(1 0 0 1 540 540)" id="b32f3a17-7595-4fba-8485-e9c21583a9f5"  >
<rect style="stroke: none; stroke-width: 1; stroke-dasharray: none; stroke-linecap: butt; stroke-dashoffset: 0; stroke-linejoin: miter; stroke-miterlimit: 4; fill: rgb(255,255,255); fill-rule: nonzero; opacity: 1; visibility: hidden;" vector-effect="non-scaling-stroke"  x="-540" y="-540" rx="0" ry="0" width="1080" height="1080" />
</g>
<g transform="matrix(0 0.75 -0.75 0 -9597.37 2834.14)"  >
<path style="stroke: none; stroke-width: 1; stroke-dasharray: none; stroke-linecap: butt; stroke-dashoffset: 0; stroke-linejoin: miter; stroke-miterlimit: 4; fill: rgb(0,0,0); fill-rule: evenodd; opacity: 1;" vector-effect="non-scaling-stroke"  transform=" translate(-3600, -512)" d="M 4320 0 L 2880 0 L 2880 17.8598 C 2881.25 17.6167 2882.53 17.4894 2883.85 17.4894 L 2926.38 17.4894 C 2937.43 17.4894 2946.38 26.4437 2946.38 37.4894 L 2946.38 52.7135 C 2946.38 63.7592 2937.43 72.7135 2926.38 72.7135 L 2883.85 72.7135 C 2882.53 72.7135 2881.25 72.5862 2880 72.3431 L 2880 951.198 C 2881.25 950.955 2882.53 950.828 2883.85 950.828 L 2926.38 950.828 C 2937.43 950.828 2946.38 959.782 2946.38 970.828 L 2946.38 986.052 C 2946.38 997.098 2937.43 1006.05 2926.38 1006.05 L 2883.85 1006.05 C 2882.53 1006.05 2881.25 1005.92 2880 1005.68 L 2880 1024 L 4320 1024 L 4320 1005.68 C 4318.75 1005.92 4317.47 1006.05 4316.15 1006.05 L 4273.62 1006.05 C 4262.57 1006.05 4253.62 997.098 4253.62 986.052 L 4253.62 970.828 C 4253.62 959.782 4262.57 950.828 4273.62 950.828 L 4316.15 950.828 C 4317.47 950.828 4318.75 950.955 4320 951.198 L 4320 72.3431 C 4318.75 72.5862 4317.47 72.7135 4316.15 72.7135 L 4273.62 72.7135 C 4262.57 72.7135 4253.62 63.7592 4253.62 52.7135 L 4253.62 37.4894 C 4253.62 26.4437 4262.57 17.4894 4273.62 17.4894 L 4316.15 17.4894 C 4317.47 17.4894 4318.75 17.6168 4320 17.8598 L 4320 0 Z M 2930.49 124.553 C 2930.49 113.507 2939.44 104.553 2950.49 104.553 L 4249.51 104.553 C 4260.56 104.553 4269.51 113.507 4269.51 124.553 L 4269.51 899.447 C 4269.51 910.493 4260.56 919.447 4249.51 919.447 L 2950.49 919.447 C 2939.44 919.447 2930.49 910.493 2930.49 899.447 L 2930.49 124.553 Z M 2990.76 950.828 C 2979.71 950.828 2970.76 959.782 2970.76 970.828 L 2970.76 986.052 C 2970.76 997.098 2979.71 1006.05 2990.76 1006.05 L 3033.29 1006.05 C 3044.33 1006.05 3053.29 997.098 3053.29 986.052 L 3053.29 970.828 C 3053.29 959.782 3044.33 950.828 3033.29 950.828 L 2990.76 950.828 Z M 3077.66 970.828 C 3077.66 959.782 3086.62 950.828 3097.66 950.828 L 3140.19 950.828 C 3151.24 950.828 3160.19 959.782 3160.19 970.828 L 3160.19 986.052 C 3160.19 997.098 3151.24 1006.05 3140.19 1006.05 L 3097.66 1006.05 C 3086.62 1006.05 3077.66 997.098 3077.66 986.052 L 3077.66 970.828 Z M 3204.57 950.828 C 3193.52 950.828 3184.57 959.782 3184.57 970.828 L 3184.57 986.052 C 3184.57 997.098 3193.52 1006.05 3204.57 1006.05 L 3247.1 1006.05 C 3258.14 1006.05 3267.1 997.098 3267.1 986.052 L 3267.1 970.828 C 3267.1 959.782 3258.14 950.828 3247.1 950.828 L 3204.57 950.828 Z M 3291.47 970.828 C 3291.47 959.782 3300.43 950.828 3311.47 950.828 L 3354 950.828 C 3365.05 950.828 3374 959.782 3374 970.828 L 3374 986.052 C 3374 997.098 3365.05 1006.05 3354 1006.05 L 3311.47 1006.05 C 3300.43 1006.05 3291.47 997.098 3291.47 986.052 L 3291.47 970.828 Z M 3418.38 950.828 C 3407.33 950.828 3398.38 959.782 3398.38 970.828 L 3398.38 986.052 C 3398.38 997.098 3407.33 1006.05 3418.38 1006.05 L 3460.91 1006.05 C 3471.95 1006.05 3480.91 997.098 3480.91 986.052 L 3480.91 970.828 C 3480.91 959.782 3471.95 950.828 3460.91 950.828 L 3418.38 950.828 Z M 3505.28 970.828 C 3505.28 959.782 3514.24 950.828 3525.28 950.828 L 3567.81 950.828 C 3578.86 950.828 3587.81 959.782 3587.81 970.828 L 3587.81 986.052 C 3587.81 997.098 3578.86 1006.05 3567.81 1006.05 L 3525.28 1006.05 C 3514.24 1006.05 3505.28 997.098 3505.28 986.052 L 3505.28 970.828 Z M 3632.19 950.828 C 3621.14 950.828 3612.19 959.782 3612.19 970.828 L 3612.19 986.052 C 3612.19 997.098 3621.14 1006.05 3632.19 1006.05 L 3674.72 1006.05 C 3685.76 1006.05 3694.72 997.098 3694.72 986.052 L 3694.72 970.828 C 3694.72 959.782 3685.76 950.828 3674.72 950.828 L 3632.19 950.828 Z M 3719.09 970.828 C 3719.09 959.782 3728.05 950.828 3739.09 950.828 L 3781.62 950.828 C 3792.67 950.828 3801.62 959.782 3801.62 970.828 L 3801.62 986.052 C 3801.62 997.098 3792.67 1006.05 3781.62 1006.05 L 3739.09 1006.05 C 3728.05 1006.05 3719.09 997.098 3719.09 986.052 L 3719.09 970.828 Z M 3846 950.828 C 3834.95 950.828 3826 959.782 3826 970.828 L 3826 986.052 C 3826 997.098 3834.95 1006.05 3846 1006.05 L 3888.53 1006.05 C 3899.57 1006.05 3908.53 997.098 3908.53 986.052 L 3908.53 970.828 C 3908.53 959.782 3899.57 950.828 3888.53 950.828 L 3846 950.828 Z M 3932.9 970.828 C 3932.9 959.782 3941.86 950.828 3952.9 950.828 L 3995.43 950.828 C 4006.48 950.828 4015.43 959.782 4015.43 970.828 L 4015.43 986.052 C 4015.43 997.098 4006.48 1006.05 3995.43 1006.05 L 3952.9 1006.05 C 3941.86 1006.05 3932.9 997.098 3932.9 986.052 L 3932.9 970.828 Z M 4059.81 950.828 C 4048.76 950.828 4039.81 959.782 4039.81 970.828 L 4039.81 986.052 C 4039.81 997.098 4048.76 1006.05 4059.81 1006.05 L 4102.34 1006.05 C 4113.38 1006.05 4122.34 997.098 4122.34 986.052 L 4122.34 970.828 C 4122.34 959.782 4113.38 950.828 4102.34 950.828 L 4059.81 950.828 Z M 4146.71 970.828 C 4146.71 959.782 4155.67 950.828 4166.71 950.828 L 4209.24 950.828 C 4220.29 950.828 4229.24 959.782 4229.24 970.828 L 4229.24 986.052 C 4229.24 997.098 4220.29 1006.05 4209.24 1006.05 L 4166.71 1006.05 C 4155.67 1006.05 4146.71 997.098 4146.71 986.052 L 4146.71 970.828 Z M 2990.76 17.4894 C 2979.71 17.4894 2970.76 26.4437 2970.76 37.4894 L 2970.76 52.7135 C 2970.76 63.7592 2979.71 72.7135 2990.76 72.7135 L 3033.29 72.7135 C 3044.33 72.7135 3053.29 63.7592 3053.29 52.7135 L 3053.29 37.4894 C 3053.29 26.4437 3044.33 17.4894 3033.29 17.4894 L 2990.76 17.4894 Z M 3077.66 37.4894 C 3077.66 26.4437 3086.62 17.4894 3097.66 17.4894 L 3140.19 17.4894 C 3151.24 17.4894 3160.19 26.4437 3160.19 37.4894 L 3160.19 52.7135 C 3160.19 63.7592 3151.24 72.7135 3140.19 72.7135 L 3097.66 72.7135 C 3086.62 72.7135 3077.66 63.7592 3077.66 52.7135 L 3077.66 37.4894 Z M 3204.57 17.4894 C 3193.52 17.4894 3184.57 26.4437 3184.57 37.4894 L 3184.57 52.7135 C 3184.57 63.7592 3193.52 72.7135 3204.57 72.7135 L 3247.1 72.7135 C 3258.14 72.7135 3267.1 63.7592 3267.1 52.7135 L 3267.1 37.4894 C 3267.1 26.4437 3258.14 17.4894 3247.1 17.4894 L 3204.57 17.4894 Z M 3291.47 37.4894 C 3291.47 26.4437 3300.43 17.4894 3311.47 17.4894 L 3354 17.4894 C 3365.05 17.4894 3374 26.4437 3374 37.4894 L 3374 52.7135 C 3374 63.7592 3365.05 72.7135 3354 72.7135 L 3311.47 72.7135 C 3300.43 72.7135 3291.47 63.7592 3291.47 52.7135 L 3291.47 37.4894 Z M 3418.38 17.4894 C 3407.33 17.4894 3398.38 26.4437 3398.38 37.4894 L 3398.38 52.7135 C 3398.38 63.7592 3407.33 72.7135 3418.38 72.7135 L 3460.91 72.7135 C 3471.95 72.7135 3480.91 63.7592 3480.91 52.7135 L 3480.91 37.4894 C 3480.91 26.4437 3471.95 17.4894 3460.91 17.4894 L 3418.38 17.4894 Z M 3505.28 37.4894 C 3505.28 26.4437 3514.24 17.4894 3525.28 17.4894 L 3567.81 17.4894 C 3578.86 17.4894 3587.81 26.4437 3587.81 37.4894 L 3587.81 52.7135 C 3587.81 63.7592 3578.86 72.7135 3567.81 72.7135 L 3525.28 72.7135 C 3514.24 72.7135 3505.28 63.7592 3505.28 52.7135 L 3505.28 37.4894 Z M 3632.19 17.4894 C 3621.14 17.4894 3612.19 26.4437 3612.19 37.4894 L 3612.19 52.7135 C 3612.19 63.7592 3621.14 72.7135 3632.19 72.7135 L 3674.72 72.7135 C 3685.76 72.7135 3694.72 63.7592 3694.72 52.7135 L 3694.72 37.4894 C 3694.72 26.4437 3685.76 17.4894 3674.72 17.4894 L 3632.19 17.4894 Z M 3719.09 37.4894 C 3719.09 26.4437 3728.05 17.4894 3739.09 17.4894 L 3781.62 17.4894 C 3792.67 17.4894 3801.62 26.4437 3801.62 37.4894 L 3801.62 52.7135 C 3801.62 63.7592 3792.67 72.7135 3781.62 72.7135 L 3739.09 72.7135 C 3728.05 72.7135 3719.09 63.7592 3719.09 52.7135 L 3719.09 37.4894 Z M 3846 17.4894 C 3834.95 17.4894 3826 26.4437 3826 37.4894 L 3826 52.7135 C 3826 63.7592 3834.95 72.7135 3846 72.7135 L 3888.53 72.7135 C 3899.57 72.7135 3908.53 63.7592 3908.53 52.7135 L 3908.53 37.4894 C 3908.53 26.4437 3899.57 17.4894 3888.53 17.4894 L 3846 17.4894 Z M 3932.9 37.4894 C 3932.9 26.4437 3941.86 17.4894 3952.9 17.4894 L 3995.43 17.4894 C 4006.48 17.4894 4015.43 26.4437 4015.43 37.4894 L 4015.43 52.7135 C 4015.43 63.7592 4006.48 72.7135 3995.43 72.7135 L 3952.9 72.7135 C 3941.86 72.7135 3932.9 63.7592 3932.9 52.7135 L 3932.9 37.4894 Z M 4059.81 17.4894 C 4048.76 17.4894 4039.81 26.4437 4039.81 37.4894 L 4039.81 52.7135 C 4039.81 63.7592 4048.76 72.7135 4059.81 72.7135 L 4102.34 72.7135 C 4113.38 72.7135 4122.34 63.7592 4122.34 52.7135 L 4122.34 37.4894 C 4122.34 26.4437 4113.38 17.4894 4102.34 17.4894 L 4059.81 17.4894 Z M 4146.71 37.4894 C 4146.71 26.4437 4155.67 17.4894 4166.71 17.4894 L 4209.24 17.4894 C 4220.29 17.4894 4229.24 26.4437 4229.24 37.4894 L 4229.24 52.7135 C 4229.24 63.7592 4220.29 72.7135 4209.24 72.7135 L 4166.71 72.7135 C 4155.67 72.7135 4146.71 63.7592 4146.71 52.7135 L 4146.71 37.4894 Z" stroke-linecap="round" />
</g>
<g transform="matrix(0 0.75 -0.9 0 545.34 541)"  >
<path style="stroke: rgb(0,0,0); stroke-width: 3; stroke-dasharray: none; stroke-linecap: butt; stroke-dashoffset: 0; stroke-linejoin: miter; stroke-miterlimit: 4; fill: rgb(255,255,255); fill-rule: evenodd; opacity: 1;" vector-effect="non-scaling-stroke"  transform=" translate(-720, -512)" d="M 1440 0 L 0 0 L 0 17.8598 C 1.24609 17.6167 2.53356 17.4894 3.85077 17.4894 L 46.3831 17.4894 C 57.4288 17.4894 66.3831 26.4437 66.3831 37.4894 L 66.3831 52.7135 C 66.3831 63.7592 57.4288 72.7135 46.3831 72.7135 L 3.8508 72.7135 C 2.53358 72.7135 1.2461 72.5862 0 72.3431 L 0 951.198 C 1.24609 950.955 2.53356 950.828 3.85077 950.828 L 46.3831 950.828 C 57.4288 950.828 66.3831 959.782 66.3831 970.828 L 66.3831 986.052 C 66.3831 997.098 57.4288 1006.05 46.3831 1006.05 L 3.8508 1006.05 C 2.53358 1006.05 1.2461 1005.92 0 1005.68 L 0 1024 L 1440 1024 L 1440 1005.68 C 1438.75 1005.92 1437.47 1006.05 1436.15 1006.05 L 1393.62 1006.05 C 1382.57 1006.05 1373.62 997.098 1373.62 986.052 L 1373.62 970.828 C 1373.62 959.782 1382.57 950.828 1393.62 950.828 L 1436.15 950.828 C 1437.47 950.828 1438.75 950.955 1440 951.198 L 1440 72.3431 C 1438.75 72.5862 1437.47 72.7135 1436.15 72.7135 L 1393.62 72.7135 C 1382.57 72.7135 1373.62 63.7592 1373.62 52.7135 L 1373.62 37.4894 C 1373.62 26.4437 1382.57 17.4894 1393.62 17.4894 L 1436.15 17.4894 C 1437.47 17.4894 1438.75 17.6168 1440 17.8598 L 1440 0 Z M 50.4897 124.553 C 50.4897 113.507 59.4441 104.553 70.4897 104.553 L 1369.51 104.553 C 1380.56 104.553 1389.51 113.507 1389.51 124.553 L 1389.51 899.447 C 1389.51 910.493 1380.56 919.447 1369.51 919.447 L 70.4898 919.447 C 59.4441 919.447 50.4897 910.493 50.4897 899.447 L 50.4897 124.553 Z M 110.756 950.828 C 99.7102 950.828 90.7558 959.782 90.7558 970.828 L 90.7558 986.052 C 90.7558 997.098 99.7102 1006.05 110.756 1006.05 L 153.288 1006.05 C 164.334 1006.05 173.288 997.098 173.288 986.052 L 173.288 970.828 C 173.288 959.782 164.334 950.828 153.288 950.828 L 110.756 950.828 Z M 197.661 970.828 C 197.661 959.782 206.615 950.828 217.661 950.828 L 260.193 950.828 C 271.239 950.828 280.193 959.782 280.193 970.828 L 280.193 986.052 C 280.193 997.098 271.239 1006.05 260.193 1006.05 L 217.661 1006.05 C 206.615 1006.05 197.661 997.098 197.661 986.052 L 197.661 970.828 Z M 324.566 950.828 C 313.52 950.828 304.566 959.782 304.566 970.828 L 304.566 986.052 C 304.566 997.098 313.52 1006.05 324.566 1006.05 L 367.098 1006.05 C 378.144 1006.05 387.098 997.098 387.098 986.052 L 387.098 970.828 C 387.098 959.782 378.144 950.828 367.098 950.828 L 324.566 950.828 Z M 411.471 970.828 C 411.471 959.782 420.425 950.828 431.471 950.828 L 474.003 950.828 C 485.049 950.828 494.003 959.782 494.003 970.828 L 494.003 986.052 C 494.003 997.098 485.049 1006.05 474.003 1006.05 L 431.471 1006.05 C 420.425 1006.05 411.471 997.098 411.471 986.052 L 411.471 970.828 Z M 538.376 950.828 C 527.331 950.828 518.376 959.782 518.376 970.828 L 518.376 986.052 C 518.376 997.098 527.331 1006.05 538.376 1006.05 L 580.909 1006.05 C 591.954 1006.05 600.909 997.098 600.909 986.052 L 600.909 970.828 C 600.909 959.782 591.954 950.828 580.909 950.828 L 538.376 950.828 Z M 625.281 970.828 C 625.281 959.782 634.236 950.828 645.281 950.828 L 687.814 950.828 C 698.859 950.828 707.814 959.782 707.814 970.828 L 707.814 986.052 C 707.814 997.098 698.859 1006.05 687.814 1006.05 L 645.281 1006.05 C 634.236 1006.05 625.281 997.098 625.281 986.052 L 625.281 970.828 Z M 752.186 950.828 C 741.141 950.828 732.186 959.782 732.186 970.828 L 732.186 986.052 C 732.186 997.098 741.141 1006.05 752.186 1006.05 L 794.719 1006.05 C 805.764 1006.05 814.719 997.098 814.719 986.052 L 814.719 970.828 C 814.719 959.782 805.764 950.828 794.719 950.828 L 752.186 950.828 Z M 839.091 970.828 C 839.091 959.782 848.046 950.828 859.091 950.828 L 901.624 950.828 C 912.669 950.828 921.624 959.782 921.624 970.828 L 921.624 986.052 C 921.624 997.098 912.67 1006.05 901.624 1006.05 L 859.092 1006.05 C 848.046 1006.05 839.091 997.098 839.091 986.052 L 839.091 970.828 Z M 965.997 950.828 C 954.951 950.828 945.997 959.782 945.997 970.828 L 945.997 986.052 C 945.997 997.098 954.951 1006.05 965.997 1006.05 L 1008.53 1006.05 C 1019.57 1006.05 1028.53 997.098 1028.53 986.052 L 1028.53 970.828 C 1028.53 959.782 1019.57 950.828 1008.53 950.828 L 965.997 950.828 Z M 1052.9 970.828 C 1052.9 959.782 1061.86 950.828 1072.9 950.828 L 1115.43 950.828 C 1126.48 950.828 1135.43 959.782 1135.43 970.828 L 1135.43 986.052 C 1135.43 997.098 1126.48 1006.05 1115.43 1006.05 L 1072.9 1006.05 C 1061.86 1006.05 1052.9 997.098 1052.9 986.052 L 1052.9 970.828 Z M 1179.81 950.828 C 1168.76 950.828 1159.81 959.782 1159.81 970.828 L 1159.81 986.052 C 1159.81 997.098 1168.76 1006.05 1179.81 1006.05 L 1222.34 1006.05 C 1233.38 1006.05 1242.34 997.098 1242.34 986.052 L 1242.34 970.828 C 1242.34 959.782 1233.38 950.828 1222.34 950.828 L 1179.81 950.828 Z M 1266.71 970.828 C 1266.71 959.782 1275.67 950.828 1286.71 950.828 L 1329.24 950.828 C 1340.29 950.828 1349.24 959.782 1349.24 970.828 L 1349.24 986.052 C 1349.24 997.098 1340.29 1006.05 1329.24 1006.05 L 1286.71 1006.05 C 1275.67 1006.05 1266.71 997.098 1266.71 986.052 L 1266.71 970.828 Z M 110.756 17.4894 C 99.7102 17.4894 90.7558 26.4437 90.7558 37.4894 L 90.7558 52.7135 C 90.7558 63.7592 99.7102 72.7135 110.756 72.7135 L 153.288 72.7135 C 164.334 72.7135 173.288 63.7592 173.288 52.7135 L 173.288 37.4894 C 173.288 26.4437 164.334 17.4894 153.288 17.4894 L 110.756 17.4894 Z M 197.661 37.4894 C 197.661 26.4437 206.615 17.4894 217.661 17.4894 L 260.193 17.4894 C 271.239 17.4894 280.193 26.4437 280.193 37.4894 L 280.193 52.7135 C 280.193 63.7592 271.239 72.7135 260.193 72.7135 L 217.661 72.7135 C 206.615 72.7135 197.661 63.7592 197.661 52.7135 L 197.661 37.4894 Z M 324.566 17.4894 C 313.52 17.4894 304.566 26.4437 304.566 37.4894 L 304.566 52.7135 C 304.566 63.7592 313.52 72.7135 324.566 72.7135 L 367.098 72.7135 C 378.144 72.7135 387.098 63.7592 387.098 52.7135 L 387.098 37.4894 C 387.098 26.4437 378.144 17.4894 367.098 17.4894 L 324.566 17.4894 Z M 411.471 37.4894 C 411.471 26.4437 420.425 17.4894 431.471 17.4894 L 474.003 17.4894 C 485.049 17.4894 494.003 26.4437 494.003 37.4894 L 494.003 52.7135 C 494.003 63.7592 485.049 72.7135 474.003 72.7135 L 431.471 72.7135 C 420.425 72.7135 411.471 63.7592 411.471 52.7135 L 411.471 37.4894 Z M 538.376 17.4894 C 527.331 17.4894 518.376 26.4437 518.376 37.4894 L 518.376 52.7135 C 518.376 63.7592 527.331 72.7135 538.376 72.7135 L 580.909 72.7135 C 591.954 72.7135 600.909 63.7592 600.909 52.7135 L 600.909 37.4894 C 600.909 26.4437 591.954 17.4894 580.909 17.4894 L 538.376 17.4894 Z M 625.281 37.4894 C 625.281 26.4437 634.236 17.4894 645.281 17.4894 L 687.814 17.4894 C 698.859 17.4894 707.814 26.4437 707.814 37.4894 L 707.814 52.7135 C 707.814 63.7592 698.859 72.7135 687.814 72.7135 L 645.281 72.7135 C 634.236 72.7135 625.281 63.7592 625.281 52.7135 L 625.281 37.4894 Z M 752.186 17.4894 C 741.141 17.4894 732.186 26.4437 732.186 37.4894 L 732.186 52.7135 C 732.186 63.7592 741.141 72.7135 752.186 72.7135 L 794.719 72.7135 C 805.764 72.7135 814.719 63.7592 814.719 52.7135 L 814.719 37.4894 C 814.719 26.4437 805.764 17.4894 794.719 17.4894 L 752.186 17.4894 Z M 839.091 37.4894 C 839.091 26.4437 848.046 17.4894 859.091 17.4894 L 901.624 17.4894 C 912.669 17.4894 921.624 26.4437 921.624 37.4894 L 921.624 52.7135 C 921.624 63.7592 912.67 72.7135 901.624 72.7135 L 859.092 72.7135 C 848.046 72.7135 839.091 63.7592 839.091 52.7135 L 839.091 37.4894 Z M 965.997 17.4894 C 954.951 17.4894 945.997 26.4437 945.997 37.4894 L 945.997 52.7135 C 945.997 63.7592 954.951 72.7135 965.997 72.7135 L 1008.53 72.7135 C 1019.57 72.7135 1028.53 63.7592 1028.53 52.7135 L 1028.53 37.4894 C 1028.53 26.4437 1019.57 17.4894 1008.53 17.4894 L 965.997 17.4894 Z M 1052.9 37.4894 C 1052.9 26.4437 1061.86 17.4894 1072.9 17.4894 L 1115.43 17.4894 C 1126.48 17.4894 1135.43 26.4437 1135.43 37.4894 L 1135.43 52.7135 C 1135.43 63.7592 1126.48 72.7135 1115.43 72.7135 L 1072.9 72.7135 C 1061.86 72.7135 1052.9 63.7592 1052.9 52.7135 L 1052.9 37.4894 Z M 1179.81 17.4894 C 1168.76 17.4894 1159.81 26.4437 1159.81 37.4894 L 1159.81 52.7135 C 1159.81 63.7592 1168.76 72.7135 1179.81 72.7135 L 1222.34 72.7135 C 1233.38 72.7135 1242.34 63.7592 1242.34 52.7135 L 1242.34 37.4894 C 1242.34 26.4437 1233.38 17.4894 1222.34 17.4894 L 1179.81 17.4894 Z M 1266.71 37.4894 C 1266.71 26.4437 1275.67 17.4894 1286.71 17.4894 L 1329.24 17.4894 C 1340.29 17.4894 1349.24 26.4437 1349.24 37.4894 L 1349.24 52.7135 C 1349.24 63.7592 1340.29 72.7135 1329.24 72.7135 L 1286.71 72.7135 C 1275.67 72.7135 1266.71 63.7592 1266.71 52.7135 L 1266.71 37.4894 Z" stroke-linecap="round" />
</g>
<g transform="matrix(0 0.75 -0.75 0 -8754.19 3320.08)"  >
<path style="stroke: none; stroke-width: 1; stroke-dasharray: none; stroke-linecap: butt; stroke-dashoffset: 0; stroke-linejoin: miter; stroke-miterlimit: 4; fill: rgb(0,0,0); fill-rule: evenodd; opacity: 1;" vector-effect="non-scaling-stroke"  transform=" translate(-5040, -512)" d="M 5760 0 L 4320 0 L 4320 17.8598 C 4321.25 17.6168 4322.53 17.4894 4323.85 17.4894 L 4366.38 17.4894 C 4377.43 17.4894 4386.38 26.4437 4386.38 37.4894 L 4386.38 52.7135 C 4386.38 63.7592 4377.43 72.7135 4366.38 72.7135 L 4323.85 72.7135 C 4322.53 72.7135 4321.25 72.5862 4320 72.3431 L 4320 951.198 C 4321.25 950.955 4322.53 950.828 4323.85 950.828 L 4366.38 950.828 C 4377.43 950.828 4386.38 959.782 4386.38 970.828 L 4386.38 986.052 C 4386.38 997.098 4377.43 1006.05 4366.38 1006.05 L 4323.85 1006.05 C 4322.53 1006.05 4321.25 1005.92 4320 1005.68 L 4320 1024 L 5760 1024 L 5760 1005.68 C 5758.75 1005.92 5757.47 1006.05 5756.15 1006.05 L 5713.62 1006.05 C 5702.57 1006.05 5693.62 997.098 5693.62 986.052 L 5693.62 970.828 C 5693.62 959.782 5702.57 950.828 5713.62 950.828 L 5756.15 950.828 C 5757.47 950.828 5758.75 950.955 5760 951.198 L 5760 72.3431 C 5758.75 72.5862 5757.47 72.7135 5756.15 72.7135 L 5713.62 72.7135 C 5702.57 72.7135 5693.62 63.7592 5693.62 52.7135 L 5693.62 37.4894 C 5693.62 26.4437 5702.57 17.4894 5713.62 17.4894 L 5756.15 17.4894 C 5757.47 17.4894 5758.75 17.6168 5760 17.8598 L 5760 0 Z M 4370.49 124.553 C 4370.49 113.507 4379.44 104.553 4390.49 104.553 L 5689.51 104.553 C 5700.56 104.553 5709.51 113.507 5709.51 124.553 L 5709.51 899.447 C 5709.51 910.493 5700.56 919.447 5689.51 919.447 L 4390.49 919.447 C 4379.44 919.447 4370.49 910.493 4370.49 899.447 L 4370.49 124.553 Z M 4430.76 950.828 C 4419.71 950.828 4410.76 959.782 4410.76 970.828 L 4410.76 986.052 C 4410.76 997.098 4419.71 1006.05 4430.76 1006.05 L 4473.29 1006.05 C 4484.33 1006.05 4493.29 997.098 4493.29 986.052 L 4493.29 970.828 C 4493.29 959.782 4484.33 950.828 4473.29 950.828 L 4430.76 950.828 Z M 4517.66 970.828 C 4517.66 959.782 4526.62 950.828 4537.66 950.828 L 4580.19 950.828 C 4591.24 950.828 4600.19 959.782 4600.19 970.828 L 4600.19 986.052 C 4600.19 997.098 4591.24 1006.05 4580.19 1006.05 L 4537.66 1006.05 C 4526.62 1006.05 4517.66 997.098 4517.66 986.052 L 4517.66 970.828 Z M 4644.57 950.828 C 4633.52 950.828 4624.57 959.782 4624.57 970.828 L 4624.57 986.052 C 4624.57 997.098 4633.52 1006.05 4644.57 1006.05 L 4687.1 1006.05 C 4698.14 1006.05 4707.1 997.098 4707.1 986.052 L 4707.1 970.828 C 4707.1 959.782 4698.14 950.828 4687.1 950.828 L 4644.57 950.828 Z M 4731.47 970.828 C 4731.47 959.782 4740.43 950.828 4751.47 950.828 L 4794 950.828 C 4805.05 950.828 4814 959.782 4814 970.828 L 4814 986.052 C 4814 997.098 4805.05 1006.05 4794 1006.05 L 4751.47 1006.05 C 4740.43 1006.05 4731.47 997.098 4731.47 986.052 L 4731.47 970.828 Z M 4858.38 950.828 C 4847.33 950.828 4838.38 959.782 4838.38 970.828 L 4838.38 986.052 C 4838.38 997.098 4847.33 1006.05 4858.38 1006.05 L 4900.91 1006.05 C 4911.95 1006.05 4920.91 997.098 4920.91 986.052 L 4920.91 970.828 C 4920.91 959.782 4911.95 950.828 4900.91 950.828 L 4858.38 950.828 Z M 4945.28 970.828 C 4945.28 959.782 4954.24 950.828 4965.28 950.828 L 5007.81 950.828 C 5018.86 950.828 5027.81 959.782 5027.81 970.828 L 5027.81 986.052 C 5027.81 997.098 5018.86 1006.05 5007.81 1006.05 L 4965.28 1006.05 C 4954.24 1006.05 4945.28 997.098 4945.28 986.052 L 4945.28 970.828 Z M 5072.19 950.828 C 5061.14 950.828 5052.19 959.782 5052.19 970.828 L 5052.19 986.052 C 5052.19 997.098 5061.14 1006.05 5072.19 1006.05 L 5114.72 1006.05 C 5125.76 1006.05 5134.72 997.098 5134.72 986.052 L 5134.72 970.828 C 5134.72 959.782 5125.76 950.828 5114.72 950.828 L 5072.19 950.828 Z M 5159.09 970.828 C 5159.09 959.782 5168.05 950.828 5179.09 950.828 L 5221.62 950.828 C 5232.67 950.828 5241.62 959.782 5241.62 970.828 L 5241.62 986.052 C 5241.62 997.098 5232.67 1006.05 5221.62 1006.05 L 5179.09 1006.05 C 5168.05 1006.05 5159.09 997.098 5159.09 986.052 L 5159.09 970.828 Z M 5286 950.828 C 5274.95 950.828 5266 959.782 5266 970.828 L 5266 986.052 C 5266 997.098 5274.95 1006.05 5286 1006.05 L 5328.53 1006.05 C 5339.57 1006.05 5348.53 997.098 5348.53 986.052 L 5348.53 970.828 C 5348.53 959.782 5339.57 950.828 5328.53 950.828 L 5286 950.828 Z M 5372.9 970.828 C 5372.9 959.782 5381.86 950.828 5392.9 950.828 L 5435.43 950.828 C 5446.48 950.828 5455.43 959.782 5455.43 970.828 L 5455.43 986.052 C 5455.43 997.098 5446.48 1006.05 5435.43 1006.05 L 5392.9 1006.05 C 5381.86 1006.05 5372.9 997.098 5372.9 986.052 L 5372.9 970.828 Z M 5499.81 950.828 C 5488.76 950.828 5479.81 959.782 5479.81 970.828 L 5479.81 986.052 C 5479.81 997.098 5488.76 1006.05 5499.81 1006.05 L 5542.34 1006.05 C 5553.38 1006.05 5562.34 997.098 5562.34 986.052 L 5562.34 970.828 C 5562.34 959.782 5553.38 950.828 5542.34 950.828 L 5499.81 950.828 Z M 5586.71 970.828 C 5586.71 959.782 5595.67 950.828 5606.71 950.828 L 5649.24 950.828 C 5660.29 950.828 5669.24 959.782 5669.24 970.828 L 5669.24 986.052 C 5669.24 997.098 5660.29 1006.05 5649.24 1006.05 L 5606.71 1006.05 C 5595.67 1006.05 5586.71 997.098 5586.71 986.052 L 5586.71 970.828 Z M 4430.76 17.4894 C 4419.71 17.4894 4410.76 26.4437 4410.76 37.4894 L 4410.76 52.7135 C 4410.76 63.7592 4419.71 72.7135 4430.76 72.7135 L 4473.29 72.7135 C 4484.33 72.7135 4493.29 63.7592 4493.29 52.7135 L 4493.29 37.4894 C 4493.29 26.4437 4484.33 17.4894 4473.29 17.4894 L 4430.76 17.4894 Z M 4517.66 37.4894 C 4517.66 26.4437 4526.62 17.4894 4537.66 17.4894 L 4580.19 17.4894 C 4591.24 17.4894 4600.19 26.4437 4600.19 37.4894 L 4600.19 52.7135 C 4600.19 63.7592 4591.24 72.7135 4580.19 72.7135 L 4537.66 72.7135 C 4526.62 72.7135 4517.66 63.7592 4517.66 52.7135 L 4517.66 37.4894 Z M 4644.57 17.4894 C 4633.52 17.4894 4624.57 26.4437 4624.57 37.4894 L 4624.57 52.7135 C 4624.57 63.7592 4633.52 72.7135 4644.57 72.7135 L 4687.1 72.7135 C 4698.14 72.7135 4707.1 63.7592 4707.1 52.7135 L 4707.1 37.4894 C 4707.1 26.4437 4698.14 17.4894 4687.1 17.4894 L 4644.57 17.4894 Z M 4731.47 37.4894 C 4731.47 26.4437 4740.43 17.4894 4751.47 17.4894 L 4794 17.4894 C 4805.05 17.4894 4814 26.4437 4814 37.4894 L 4814 52.7135 C 4814 63.7592 4805.05 72.7135 4794 72.7135 L 4751.47 72.7135 C 4740.43 72.7135 4731.47 63.7592 4731.47 52.7135 L 4731.47 37.4894 Z M 4858.38 17.4894 C 4847.33 17.4894 4838.38 26.4437 4838.38 37.4894 L 4838.38 52.7135 C 4838.38 63.7592 4847.33 72.7135 4858.38 72.7135 L 4900.91 72.7135 C 4911.95 72.7135 4920.91 63.7592 4920.91 52.7135 L 4920.91 37.4894 C 4920.91 26.4437 4911.95 17.4894 4900.91 17.4894 L 4858.38 17.4894 Z M 4945.28 37.4894 C 4945.28 26.4437 4954.24 17.4894 4965.28 17.4894 L 5007.81 17.4894 C 5018.86 17.4894 5027.81 26.4437 5027.81 37.4894 L 5027.81 52.7135 C 5027.81 63.7592 5018.86 72.7135 5007.81 72.7135 L 4965.28 72.7135 C 4954.24 72.7135 4945.28 63.7592 4945.28 52.7135 L 4945.28 37.4894 Z M 5072.19 17.4894 C 5061.14 17.4894 5052.19 26.4437 5052.19 37.4894 L 5052.19 52.7135 C 5052.19 63.7592 5061.14 72.7135 5072.19 72.7135 L 5114.72 72.7135 C 5125.76 72.7135 5134.72 63.7592 5134.72 52.7135 L 5134.72 37.4894 C 5134.72 26.4437 5125.76 17.4894 5114.72 17.4894 L 5072.19 17.4894 Z M 5159.09 37.4894 C 5159.09 26.4437 5168.05 17.4894 5179.09 17.4894 L 5221.62 17.4894 C 5232.67 17.4894 5241.62 26.4437 5241.62 37.4894 L 5241.62 52.7135 C 5241.62 63.7592 5232.67 72.7135 5221.62 72.7135 L 5179.09 72.7135 C 5168.05 72.7135 5159.09 63.7592 5159.09 52.7135 L 5159.09 37.4894 Z M 5286 17.4894 C 5274.95 17.4894 5266 26.4437 5266 37.4894 L 5266 52.7135 C 5266 63.7592 5274.95 72.7135 5286 72.7135 L 5328.53 72.7135 C 5339.57 72.7135 5348.53 63.7592 5348.53 52.7135 L 5348.53 37.4894 C 5348.53 26.4437 5339.57 17.4894 5328.53 17.4894 L 5286 17.4894 Z M 5372.9 37.4894 C 5372.9 26.4437 5381.86 17.4894 5392.9 17.4894 L 5435.43 17.4894 C 5446.48 17.4894 5455.43 26.4437 5455.43 37.4894 L 5455.43 52.7135 C 5455.43 63.7592 5446.48 72.7135 5435.43 72.7135 L 5392.9 72.7135 C 5381.86 72.7135 5372.9 63.7592 5372.9 52.7135 L 5372.9 37.4894 Z M 5499.81 17.4894 C 5488.76 17.4894 5479.81 26.4437 5479.81 37.4894 L 5479.81 52.7135 C 5479.81 63.7592 5488.76 72.7135 5499.81 72.7135 L 5542.34 72.7135 C 5553.38 72.7135 5562.34 63.7592 5562.34 52.7135 L 5562.34 37.4894 C 5562.34 26.4437 5553.38 17.4894 5542.34 17.4894 L 5499.81 17.4894 Z M 5586.71 37.4894 C 5586.71 26.4437 5595.67 17.4894 5606.71 17.4894 L 5649.24 17.4894 C 5660.29 17.4894 5669.24 26.4437 5669.24 37.4894 L 5669.24 52.7135 C 5669.24 63.7592 5660.29 72.7135 5649.24 72.7135 L 5606.71 72.7135 C 5595.67 72.7135 5586.71 63.7592 5586.71 52.7135 L 5586.71 37.4894 Z" stroke-linecap="round" />
</g>
<g transform="matrix(0 0.75 -0.75 0 -8649.15 956.59)"  >
<path style="stroke: none; stroke-width: 1; stroke-dasharray: none; stroke-linecap: butt; stroke-dashoffset: 0; stroke-linejoin: miter; stroke-miterlimit: 4; fill: rgb(0,0,0); fill-rule: evenodd; opacity: 1;" vector-effect="non-scaling-stroke"  transform=" translate(-2160, -512)" d="M 2880 0 L 1440 0 L 1440 17.8598 C 1441.25 17.6168 1442.53 17.4894 1443.85 17.4894 L 1486.38 17.4894 C 1497.43 17.4894 1506.38 26.4437 1506.38 37.4894 L 1506.38 52.7135 C 1506.38 63.7592 1497.43 72.7135 1486.38 72.7135 L 1443.85 72.7135 C 1442.53 72.7135 1441.25 72.5862 1440 72.3431 L 1440 951.198 C 1441.25 950.955 1442.53 950.828 1443.85 950.828 L 1486.38 950.828 C 1497.43 950.828 1506.38 959.782 1506.38 970.828 L 1506.38 986.052 C 1506.38 997.098 1497.43 1006.05 1486.38 1006.05 L 1443.85 1006.05 C 1442.53 1006.05 1441.25 1005.92 1440 1005.68 L 1440 1024 L 2880 1024 L 2880 1005.68 C 2878.75 1005.92 2877.47 1006.05 2876.15 1006.05 L 2833.62 1006.05 C 2822.57 1006.05 2813.62 997.098 2813.62 986.052 L 2813.62 970.828 C 2813.62 959.782 2822.57 950.828 2833.62 950.828 L 2876.15 950.828 C 2877.47 950.828 2878.75 950.955 2880 951.198 L 2880 72.3431 C 2878.75 72.5862 2877.47 72.7135 2876.15 72.7135 L 2833.62 72.7135 C 2822.57 72.7135 2813.62 63.7592 2813.62 52.7135 L 2813.62 37.4894 C 2813.62 26.4437 2822.57 17.4894 2833.62 17.4894 L 2876.15 17.4894 C 2877.47 17.4894 2878.75 17.6167 2880 17.8598 L 2880 0 Z M 1490.49 124.553 C 1490.49 113.507 1499.44 104.553 1510.49 104.553 L 2809.51 104.553 C 2820.56 104.553 2829.51 113.507 2829.51 124.553 L 2829.51 899.447 C 2829.51 910.493 2820.56 919.447 2809.51 919.447 L 1510.49 919.447 C 1499.44 919.447 1490.49 910.493 1490.49 899.447 L 1490.49 124.553 Z M 1550.76 950.828 C 1539.71 950.828 1530.76 959.782 1530.76 970.828 L 1530.76 986.052 C 1530.76 997.098 1539.71 1006.05 1550.76 1006.05 L 1593.29 1006.05 C 1604.33 1006.05 1613.29 997.098 1613.29 986.052 L 1613.29 970.828 C 1613.29 959.782 1604.33 950.828 1593.29 950.828 L 1550.76 950.828 Z M 1637.66 970.828 C 1637.66 959.782 1646.62 950.828 1657.66 950.828 L 1700.19 950.828 C 1711.24 950.828 1720.19 959.782 1720.19 970.828 L 1720.19 986.052 C 1720.19 997.098 1711.24 1006.05 1700.19 1006.05 L 1657.66 1006.05 C 1646.62 1006.05 1637.66 997.098 1637.66 986.052 L 1637.66 970.828 Z M 1764.57 950.828 C 1753.52 950.828 1744.57 959.782 1744.57 970.828 L 1744.57 986.052 C 1744.57 997.098 1753.52 1006.05 1764.57 1006.05 L 1807.1 1006.05 C 1818.14 1006.05 1827.1 997.098 1827.1 986.052 L 1827.1 970.828 C 1827.1 959.782 1818.14 950.828 1807.1 950.828 L 1764.57 950.828 Z M 1851.47 970.828 C 1851.47 959.782 1860.43 950.828 1871.47 950.828 L 1914 950.828 C 1925.05 950.828 1934 959.782 1934 970.828 L 1934 986.052 C 1934 997.098 1925.05 1006.05 1914 1006.05 L 1871.47 1006.05 C 1860.43 1006.05 1851.47 997.098 1851.47 986.052 L 1851.47 970.828 Z M 1978.38 950.828 C 1967.33 950.828 1958.38 959.782 1958.38 970.828 L 1958.38 986.052 C 1958.38 997.098 1967.33 1006.05 1978.38 1006.05 L 2020.91 1006.05 C 2031.95 1006.05 2040.91 997.098 2040.91 986.052 L 2040.91 970.828 C 2040.91 959.782 2031.95 950.828 2020.91 950.828 L 1978.38 950.828 Z M 2065.28 970.828 C 2065.28 959.782 2074.24 950.828 2085.28 950.828 L 2127.81 950.828 C 2138.86 950.828 2147.81 959.782 2147.81 970.828 L 2147.81 986.052 C 2147.81 997.098 2138.86 1006.05 2127.81 1006.05 L 2085.28 1006.05 C 2074.24 1006.05 2065.28 997.098 2065.28 986.052 L 2065.28 970.828 Z M 2192.19 950.828 C 2181.14 950.828 2172.19 959.782 2172.19 970.828 L 2172.19 986.052 C 2172.19 997.098 2181.14 1006.05 2192.19 1006.05 L 2234.72 1006.05 C 2245.76 1006.05 2254.72 997.098 2254.72 986.052 L 2254.72 970.828 C 2254.72 959.782 2245.76 950.828 2234.72 950.828 L 2192.19 950.828 Z M 2279.09 970.828 C 2279.09 959.782 2288.05 950.828 2299.09 950.828 L 2341.62 950.828 C 2352.67 950.828 2361.62 959.782 2361.62 970.828 L 2361.62 986.052 C 2361.62 997.098 2352.67 1006.05 2341.62 1006.05 L 2299.09 1006.05 C 2288.05 1006.05 2279.09 997.098 2279.09 986.052 L 2279.09 970.828 Z M 2406 950.828 C 2394.95 950.828 2386 959.782 2386 970.828 L 2386 986.052 C 2386 997.098 2394.95 1006.05 2406 1006.05 L 2448.53 1006.05 C 2459.57 1006.05 2468.53 997.098 2468.53 986.052 L 2468.53 970.828 C 2468.53 959.782 2459.57 950.828 2448.53 950.828 L 2406 950.828 Z M 2492.9 970.828 C 2492.9 959.782 2501.86 950.828 2512.9 950.828 L 2555.43 950.828 C 2566.48 950.828 2575.43 959.782 2575.43 970.828 L 2575.43 986.052 C 2575.43 997.098 2566.48 1006.05 2555.43 1006.05 L 2512.9 1006.05 C 2501.86 1006.05 2492.9 997.098 2492.9 986.052 L 2492.9 970.828 Z M 2619.81 950.828 C 2608.76 950.828 2599.81 959.782 2599.81 970.828 L 2599.81 986.052 C 2599.81 997.098 2608.76 1006.05 2619.81 1006.05 L 2662.34 1006.05 C 2673.38 1006.05 2682.34 997.098 2682.34 986.052 L 2682.34 970.828 C 2682.34 959.782 2673.38 950.828 2662.34 950.828 L 2619.81 950.828 Z M 2706.71 970.828 C 2706.71 959.782 2715.67 950.828 2726.71 950.828 L 2769.24 950.828 C 2780.29 950.828 2789.24 959.782 2789.24 970.828 L 2789.24 986.052 C 2789.24 997.098 2780.29 1006.05 2769.24 1006.05 L 2726.71 1006.05 C 2715.67 1006.05 2706.71 997.098 2706.71 986.052 L 2706.71 970.828 Z M 1550.76 17.4894 C 1539.71 17.4894 1530.76 26.4437 1530.76 37.4894 L 1530.76 52.7135 C 1530.76 63.7592 1539.71 72.7135 1550.76 72.7135 L 1593.29 72.7135 C 1604.33 72.7135 1613.29 63.7592 1613.29 52.7135 L 1613.29 37.4894 C 1613.29 26.4437 1604.33 17.4894 1593.29 17.4894 L 1550.76 17.4894 Z M 1637.66 37.4894 C 1637.66 26.4437 1646.62 17.4894 1657.66 17.4894 L 1700.19 17.4894 C 1711.24 17.4894 1720.19 26.4437 1720.19 37.4894 L 1720.19 52.7135 C 1720.19 63.7592 1711.24 72.7135 1700.19 72.7135 L 1657.66 72.7135 C 1646.62 72.7135 1637.66 63.7592 1637.66 52.7135 L 1637.66 37.4894 Z M 1764.57 17.4894 C 1753.52 17.4894 1744.57 26.4437 1744.57 37.4894 L 1744.57 52.7135 C 1744.57 63.7592 1753.52 72.7135 1764.57 72.7135 L 1807.1 72.7135 C 1818.14 72.7135 1827.1 63.7592 1827.1 52.7135 L 1827.1 37.4894 C 1827.1 26.4437 1818.14 17.4894 1807.1 17.4894 L 1764.57 17.4894 Z M 1851.47 37.4894 C 1851.47 26.4437 1860.43 17.4894 1871.47 17.4894 L 1914 17.4894 C 1925.05 17.4894 1934 26.4437 1934 37.4894 L 1934 52.7135 C 1934 63.7592 1925.05 72.7135 1914 72.7135 L 1871.47 72.7135 C 1860.43 72.7135 1851.47 63.7592 1851.47 52.7135 L 1851.47 37.4894 Z M 1978.38 17.4894 C 1967.33 17.4894 1958.38 26.4437 1958.38 37.4894 L 1958.38 52.7135 C 1958.38 63.7592 1967.33 72.7135 1978.38 72.7135 L 2020.91 72.7135 C 2031.95 72.7135 2040.91 63.7592 2040.91 52.7135 L 2040.91 37.4894 C 2040.91 26.4437 2031.95 17.4894 2020.91 17.4894 L 1978.38 17.4894 Z M 2065.28 37.4894 C 2065.28 26.4437 2074.24 17.4894 2085.28 17.4894 L 2127.81 17.4894 C 2138.86 17.4894 2147.81 26.4437 2147.81 37.4894 L 2147.81 52.7135 C 2147.81 63.7592 2138.86 72.7135 2127.81 72.7135 L 2085.28 72.7135 C 2074.24 72.7135 2065.28 63.7592 2065.28 52.7135 L 2065.28 37.4894 Z M 2192.19 17.4894 C 2181.14 17.4894 2172.19 26.4437 2172.19 37.4894 L 2172.19 52.7135 C 2172.19 63.7592 2181.14 72.7135 2192.19 72.7135 L 2234.72 72.7135 C 2245.76 72.7135 2254.72 63.7592 2254.72 52.7135 L 2254.72 37.4894 C 2254.72 26.4437 2245.76 17.4894 2234.72 17.4894 L 2192.19 17.4894 Z M 2279.09 37.4894 C 2279.09 26.4437 2288.05 17.4894 2299.09 17.4894 L 2341.62 17.4894 C 2352.67 17.4894 2361.62 26.4437 2361.62 37.4894 L 2361.62 52.7135 C 2361.62 63.7592 2352.67 72.7135 2341.62 72.7135 L 2299.09 72.7135 C 2288.05 72.7135 2279.09 63.7592 2279.09 52.7135 L 2279.09 37.4894 Z M 2406 17.4894 C 2394.95 17.4894 2386 26.4437 2386 37.4894 L 2386 52.7135 C 2386 63.7592 2394.95 72.7135 2406 72.7135 L 2448.53 72.7135 C 2459.57 72.7135 2468.53 63.7592 2468.53 52.7135 L 2468.53 37.4894 C 2468.53 26.4437 2459.57 17.4894 2448.53 17.4894 L 2406 17.4894 Z M 2492.9 37.4894 C 2492.9 26.4437 2501.86 17.4894 2512.9 17.4894 L 2555.43 17.4894 C 2566.48 17.4894 2575.43 26.4437 2575.43 37.4894 L 2575.43 52.7135 C 2575.43 63.7592 2566.48 72.7135 2555.43 72.7135 L 2512.9 72.7135 C 2501.86 72.7135 2492.9 63.7592 2492.9 52.7135 L 2492.9 37.4894 Z M 2619.81 17.4894 C 2608.76 17.4894 2599.81 26.4437 2599.81 37.4894 L 2599.81 52.7135 C 2599.81 63.7592 2608.76 72.7135 2619.81 72.7135 L 2662.34 72.7135 C 2673.38 72.7135 2682.34 63.7592 2682.34 52.7135 L 2682.34 37.4894 C 2682.34 26.4437 2673.38 17.4894 2662.34 17.4894 L 2619.81 17.4894 Z M 2706.71 37.4894 C 2706.71 26.4437 2715.67 17.4894 2726.71 17.4894 L 2769.24 17.4894 C 2780.29 17.4894 2789.24 26.4437 2789.24 37.4894 L 2789.24 52.7135 C 2789.24 63.7592 2780.29 72.7135 2769.24 72.7135 L 2726.71 72.7135 C 2715.67 72.7135 2706.71 63.7592 2706.71 52.7135 L 2706.71 37.4894 Z" stroke-linecap="round" />
</g>
<g transform="matrix(0 0.75 -0.9 0 546 1628.93)"  >
<path style="stroke: rgb(0,0,0); stroke-width: 3; stroke-dasharray: none; stroke-linecap: butt; stroke-dashoffset: 0; stroke-linejoin: miter; stroke-miterlimit: 4; fill: rgb(255,255,255); fill-rule: evenodd; opacity: 1;" vector-effect="non-scaling-stroke"  transform=" translate(-720, -512)" d="M 1440 0 L 0 0 L 0 17.8598 C 1.24609 17.6167 2.53356 17.4894 3.85077 17.4894 L 46.3831 17.4894 C 57.4288 17.4894 66.3831 26.4437 66.3831 37.4894 L 66.3831 52.7135 C 66.3831 63.7592 57.4288 72.7135 46.3831 72.7135 L 3.8508 72.7135 C 2.53358 72.7135 1.2461 72.5862 0 72.3431 L 0 951.198 C 1.24609 950.955 2.53356 950.828 3.85077 950.828 L 46.3831 950.828 C 57.4288 950.828 66.3831 959.782 66.3831 970.828 L 66.3831 986.052 C 66.3831 997.098 57.4288 1006.05 46.3831 1006.05 L 3.8508 1006.05 C 2.53358 1006.05 1.2461 1005.92 0 1005.68 L 0 1024 L 1440 1024 L 1440 1005.68 C 1438.75 1005.92 1437.47 1006.05 1436.15 1006.05 L 1393.62 1006.05 C 1382.57 1006.05 1373.62 997.098 1373.62 986.052 L 1373.62 970.828 C 1373.62 959.782 1382.57 950.828 1393.62 950.828 L 1436.15 950.828 C 1437.47 950.828 1438.75 950.955 1440 951.198 L 1440 72.3431 C 1438.75 72.5862 1437.47 72.7135 1436.15 72.7135 L 1393.62 72.7135 C 1382.57 72.7135 1373.62 63.7592 1373.62 52.7135 L 1373.62 37.4894 C 1373.62 26.4437 1382.57 17.4894 1393.62 17.4894 L 1436.15 17.4894 C 1437.47 17.4894 1438.75 17.6168 1440 17.8598 L 1440 0 Z M 50.4897 124.553 C 50.4897 113.507 59.4441 104.553 70.4897 104.553 L 1369.51 104.553 C 1380.56 104.553 1389.51 113.507 1389.51 124.553 L 1389.51 899.447 C 1389.51 910.493 1380.56 919.447 1369.51 919.447 L 70.4898 919.447 C 59.4441 919.447 50.4897 910.493 50.4897 899.447 L 50.4897 124.553 Z M 110.756 950.828 C 99.7102 950.828 90.7558 959.782 90.7558 970.828 L 90.7558 986.052 C 90.7558 997.098 99.7102 1006.05 110.756 1006.05 L 153.288 1006.05 C 164.334 1006.05 173.288 997.098 173.288 986.052 L 173.288 970.828 C 173.288 959.782 164.334 950.828 153.288 950.828 L 110.756 950.828 Z M 197.661 970.828 C 197.661 959.782 206.615 950.828 217.661 950.828 L 260.193 950.828 C 271.239 950.828 280.193 959.782 280.193 970.828 L 280.193 986.052 C 280.193 997.098 271.239 1006.05 260.193 1006.05 L 217.661 1006.05 C 206.615 1006.05 197.661 997.098 197.661 986.052 L 197.661 970.828 Z M 324.566 950.828 C 313.52 950.828 304.566 959.782 304.566 970.828 L 304.566 986.052 C 304.566 997.098 313.52 1006.05 324.566 1006.05 L 367.098 1006.05 C 378.144 1006.05 387.098 997.098 387.098 986.052 L 387.098 970.828 C 387.098 959.782 378.144 950.828 367.098 950.828 L 324.566 950.828 Z M 411.471 970.828 C 411.471 959.782 420.425 950.828 431.471 950.828 L 474.003 950.828 C 485.049 950.828 494.003 959.782 494.003 970.828 L 494.003 986.052 C 494.003 997.098 485.049 1006.05 474.003 1006.05 L 431.471 1006.05 C 420.425 1006.05 411.471 997.098 411.471 986.052 L 411.471 970.828 Z M 538.376 950.828 C 527.331 950.828 518.376 959.782 518.376 970.828 L 518.376 986.052 C 518.376 997.098 527.331 1006.05 538.376 1006.05 L 580.909 1006.05 C 591.954 1006.05 600.909 997.098 600.909 986.052 L 600.909 970.828 C 600.909 959.782 591.954 950.828 580.909 950.828 L 538.376 950.828 Z M 625.281 970.828 C 625.281 959.782 634.236 950.828 645.281 950.828 L 687.814 950.828 C 698.859 950.828 707.814 959.782 707.814 970.828 L 707.814 986.052 C 707.814 997.098 698.859 1006.05 687.814 1006.05 L 645.281 1006.05 C 634.236 1006.05 625.281 997.098 625.281 986.052 L 625.281 970.828 Z M 752.186 950.828 C 741.141 950.828 732.186 959.782 732.186 970.828 L 732.186 986.052 C 732.186 997.098 741.141 1006.05 752.186 1006.05 L 794.719 1006.05 C 805.764 1006.05 814.719 997.098 814.719 986.052 L 814.719 970.828 C 814.719 959.782 805.764 950.828 794.719 950.828 L 752.186 950.828 Z M 839.091 970.828 C 839.091 959.782 848.046 950.828 859.091 950.828 L 901.624 950.828 C 912.669 950.828 921.624 959.782 921.624 970.828 L 921.624 986.052 C 921.624 997.098 912.67 1006.05 901.624 1006.05 L 859.092 1006.05 C 848.046 1006.05 839.091 997.098 839.091 986.052 L 839.091 970.828 Z M 965.997 950.828 C 954.951 950.828 945.997 959.782 945.997 970.828 L 945.997 986.052 C 945.997 997.098 954.951 1006.05 965.997 1006.05 L 1008.53 1006.05 C 1019.57 1006.05 1028.53 997.098 1028.53 986.052 L 1028.53 970.828 C 1028.53 959.782 1019.57 950.828 1008.53 950.828 L 965.997 950.828 Z M 1052.9 970.828 C 1052.9 959.782 1061.86 950.828 1072.9 950.828 L 1115.43 950.828 C 1126.48 950.828 1135.43 959.782 1135.43 970.828 L 1135.43 986.052 C 1135.43 997.098 1126.48 1006.05 1115.43 1006.05 L 1072.9 1006.05 C 1061.86 1006.05 1052.9 997.098 1052.9 986.052 L 1052.9 970.828 Z M 1179.81 950.828 C 1168.76 950.828 1159.81 959.782 1159.81 970.828 L 1159.81 986.052 C 1159.81 997.098 1168.76 1006.05 1179.81 1006.05 L 1222.34 1006.05 C 1233.38 1006.05 1242.34 997.098 1242.34 986.052 L 1242.34 970.828 C 1242.34 959.782 1233.38 950.828 1222.34 950.828 L 1179.81 950.828 Z M 1266.71 970.828 C 1266.71 959.782 1275.67 950.828 1286.71 950.828 L 1329.24 950.828 C 1340.29 950.828 1349.24 959.782 1349.24 970.828 L 1349.24 986.052 C 1349.24 997.098 1340.29 1006.05 1329.24 1006.05 L 1286.71 1006.05 C 1275.67 1006.05 1266.71 997.098 1266.71 986.052 L 1266.71 970.828 Z M 110.756 17.4894 C 99.7102 17.4894 90.7558 26.4437 90.7558 37.4894 L 90.7558 52.7135 C 90.7558 63.7592 99.7102 72.7135 110.756 72.7135 L 153.288 72.7135 C 164.334 72.7135 173.288 63.7592 173.288 52.7135 L 173.288 37.4894 C 173.288 26.4437 164.334 17.4894 153.288 17.4894 L 110.756 17.4894 Z M 197.661 37.4894 C 197.661 26.4437 206.615 17.4894 217.661 17.4894 L 260.193 17.4894 C 271.239 17.4894 280.193 26.4437 280.193 37.4894 L 280.193 52.7135 C 280.193 63.7592 271.239 72.7135 260.193 72.7135 L 217.661 72.7135 C 206.615 72.7135 197.661 63.7592 197.661 52.7135 L 197.661 37.4894 Z M 324.566 17.4894 C 313.52 17.4894 304.566 26.4437 304.566 37.4894 L 304.566 52.7135 C 304.566 63.7592 313.52 72.7135 324.566 72.7135 L 367.098 72.7135 C 378.144 72.7135 387.098 63.7592 387.098 52.7135 L 387.098 37.4894 C 387.098 26.4437 378.144 17.4894 367.098 17.4894 L 324.566 17.4894 Z M 411.471 37.4894 C 411.471 26.4437 420.425 17.4894 431.471 17.4894 L 474.003 17.4894 C 485.049 17.4894 494.003 26.4437 494.003 37.4894 L 494.003 52.7135 C 494.003 63.7592 485.049 72.7135 474.003 72.7135 L 431.471 72.7135 C 420.425 72.7135 411.471 63.7592 411.471 52.7135 L 411.471 37.4894 Z M 538.376 17.4894 C 527.331 17.4894 518.376 26.4437 518.376 37.4894 L 518.376 52.7135 C 518.376 63.7592 527.331 72.7135 538.376 72.7135 L 580.909 72.7135 C 591.954 72.7135 600.909 63.7592 600.909 52.7135 L 600.909 37.4894 C 600.909 26.4437 591.954 17.4894 580.909 17.4894 L 538.376 17.4894 Z M 625.281 37.4894 C 625.281 26.4437 634.236 17.4894 645.281 17.4894 L 687.814 17.4894 C 698.859 17.4894 707.814 26.4437 707.814 37.4894 L 707.814 52.7135 C 707.814 63.7592 698.859 72.7135 687.814 72.7135 L 645.281 72.7135 C 634.236 72.7135 625.281 63.7592 625.281 52.7135 L 625.281 37.4894 Z M 752.186 17.4894 C 741.141 17.4894 732.186 26.4437 732.186 37.4894 L 732.186 52.7135 C 732.186 63.7592 741.141 72.7135 752.186 72.7135 L 794.719 72.7135 C 805.764 72.7135 814.719 63.7592 814.719 52.7135 L 814.719 37.4894 C 814.719 26.4437 805.764 17.4894 794.719 17.4894 L 752.186 17.4894 Z M 839.091 37.4894 C 839.091 26.4437 848.046 17.4894 859.091 17.4894 L 901.624 17.4894 C 912.669 17.4894 921.624 26.4437 921.624 37.4894 L 921.624 52.7135 C 921.624 63.7592 912.67 72.7135 901.624 72.7135 L 859.092 72.7135 C 848.046 72.7135 839.091 63.7592 839.091 52.7135 L 839.091 37.4894 Z M 965.997 17.4894 C 954.951 17.4894 945.997 26.4437 945.997 37.4894 L 945.997 52.7135 C 945.997 63.7592 954.951 72.7135 965.997 72.7135 L 1008.53 72.7135 C 1019.57 72.7135 1028.53 63.7592 1028.53 52.7135 L 1028.53 37.4894 C 1028.53 26.4437 1019.57 17.4894 1008.53 17.4894 L 965.997 17.4894 Z M 1052.9 37.4894 C 1052.9 26.4437 1061.86 17.4894 1072.9 17.4894 L 1115.43 17.4894 C 1126.48 17.4894 1135.43 26.4437 1135.43 37.4894 L 1135.43 52.7135 C 1135.43 63.7592 1126.48 72.7135 1115.43 72.7135 L 1072.9 72.7135 C 1061.86 72.7135 1052.9 63.7592 1052.9 52.7135 L 1052.9 37.4894 Z M 1179.81 17.4894 C 1168.76 17.4894 1159.81 26.4437 1159.81 37.4894 L 1159.81 52.7135 C 1159.81 63.7592 1168.76 72.7135 1179.81 72.7135 L 1222.34 72.7135 C 1233.38 72.7135 1242.34 63.7592 1242.34 52.7135 L 1242.34 37.4894 C 1242.34 26.4437 1233.38 17.4894 1222.34 17.4894 L 1179.81 17.4894 Z M 1266.71 37.4894 C 1266.71 26.4437 1275.67 17.4894 1286.71 17.4894 L 1329.24 17.4894 C 1340.29 17.4894 1349.24 26.4437 1349.24 37.4894 L 1349.24 52.7135 C 1349.24 63.7592 1340.29 72.7135 1329.24 72.7135 L 1286.71 72.7135 C 1275.67 72.7135 1266.71 63.7592 1266.71 52.7135 L 1266.71 37.4894 Z" stroke-linecap="round" />
</g>
<g transform="matrix(0 0.75 -0.9 0 545 -546.3)"  >
<path style="stroke: rgb(0,0,0); stroke-width: 3; stroke-dasharray: none; stroke-linecap: butt; stroke-dashoffset: 0; stroke-linejoin: miter; stroke-miterlimit: 4; fill: rgb(255,255,255); fill-rule: evenodd; opacity: 1;" vector-effect="non-scaling-stroke"  transform=" translate(-720, -512)" d="M 1440 0 L 0 0 L 0 17.8598 C 1.24609 17.6167 2.53356 17.4894 3.85077 17.4894 L 46.3831 17.4894 C 57.4288 17.4894 66.3831 26.4437 66.3831 37.4894 L 66.3831 52.7135 C 66.3831 63.7592 57.4288 72.7135 46.3831 72.7135 L 3.8508 72.7135 C 2.53358 72.7135 1.2461 72.5862 0 72.3431 L 0 951.198 C 1.24609 950.955 2.53356 950.828 3.85077 950.828 L 46.3831 950.828 C 57.4288 950.828 66.3831 959.782 66.3831 970.828 L 66.3831 986.052 C 66.3831 997.098 57.4288 1006.05 46.3831 1006.05 L 3.8508 1006.05 C 2.53358 1006.05 1.2461 1005.92 0 1005.68 L 0 1024 L 1440 1024 L 1440 1005.68 C 1438.75 1005.92 1437.47 1006.05 1436.15 1006.05 L 1393.62 1006.05 C 1382.57 1006.05 1373.62 997.098 1373.62 986.052 L 1373.62 970.828 C 1373.62 959.782 1382.57 950.828 1393.62 950.828 L 1436.15 950.828 C 1437.47 950.828 1438.75 950.955 1440 951.198 L 1440 72.3431 C 1438.75 72.5862 1437.47 72.7135 1436.15 72.7135 L 1393.62 72.7135 C 1382.57 72.7135 1373.62 63.7592 1373.62 52.7135 L 1373.62 37.4894 C 1373.62 26.4437 1382.57 17.4894 1393.62 17.4894 L 1436.15 17.4894 C 1437.47 17.4894 1438.75 17.6168 1440 17.8598 L 1440 0 Z M 50.4897 124.553 C 50.4897 113.507 59.4441 104.553 70.4897 104.553 L 1369.51 104.553 C 1380.56 104.553 1389.51 113.507 1389.51 124.553 L 1389.51 899.447 C 1389.51 910.493 1380.56 919.447 1369.51 919.447 L 70.4898 919.447 C 59.4441 919.447 50.4897 910.493 50.4897 899.447 L 50.4897 124.553 Z M 110.756 950.828 C 99.7102 950.828 90.7558 959.782 90.7558 970.828 L 90.7558 986.052 C 90.7558 997.098 99.7102 1006.05 110.756 1006.05 L 153.288 1006.05 C 164.334 1006.05 173.288 997.098 173.288 986.052 L 173.288 970.828 C 173.288 959.782 164.334 950.828 153.288 950.828 L 110.756 950.828 Z M 197.661 970.828 C 197.661 959.782 206.615 950.828 217.661 950.828 L 260.193 950.828 C 271.239 950.828 280.193 959.782 280.193 970.828 L 280.193 986.052 C 280.193 997.098 271.239 1006.05 260.193 1006.05 L 217.661 1006.05 C 206.615 1006.05 197.661 997.098 197.661 986.052 L 197.661 970.828 Z M 324.566 950.828 C 313.52 950.828 304.566 959.782 304.566 970.828 L 304.566 986.052 C 304.566 997.098 313.52 1006.05 324.566 1006.05 L 367.098 1006.05 C 378.144 1006.05 387.098 997.098 387.098 986.052 L 387.098 970.828 C 387.098 959.782 378.144 950.828 367.098 950.828 L 324.566 950.828 Z M 411.471 970.828 C 411.471 959.782 420.425 950.828 431.471 950.828 L 474.003 950.828 C 485.049 950.828 494.003 959.782 494.003 970.828 L 494.003 986.052 C 494.003 997.098 485.049 1006.05 474.003 1006.05 L 431.471 1006.05 C 420.425 1006.05 411.471 997.098 411.471 986.052 L 411.471 970.828 Z M 538.376 950.828 C 527.331 950.828 518.376 959.782 518.376 970.828 L 518.376 986.052 C 518.376 997.098 527.331 1006.05 538.376 1006.05 L 580.909 1006.05 C 591.954 1006.05 600.909 997.098 600.909 986.052 L 600.909 970.828 C 600.909 959.782 591.954 950.828 580.909 950.828 L 538.376 950.828 Z M 625.281 970.828 C 625.281 959.782 634.236 950.828 645.281 950.828 L 687.814 950.828 C 698.859 950.828 707.814 959.782 707.814 970.828 L 707.814 986.052 C 707.814 997.098 698.859 1006.05 687.814 1006.05 L 645.281 1006.05 C 634.236 1006.05 625.281 997.098 625.281 986.052 L 625.281 970.828 Z M 752.186 950.828 C 741.141 950.828 732.186 959.782 732.186 970.828 L 732.186 986.052 C 732.186 997.098 741.141 1006.05 752.186 1006.05 L 794.719 1006.05 C 805.764 1006.05 814.719 997.098 814.719 986.052 L 814.719 970.828 C 814.719 959.782 805.764 950.828 794.719 950.828 L 752.186 950.828 Z M 839.091 970.828 C 839.091 959.782 848.046 950.828 859.091 950.828 L 901.624 950.828 C 912.669 950.828 921.624 959.782 921.624 970.828 L 921.624 986.052 C 921.624 997.098 912.67 1006.05 901.624 1006.05 L 859.092 1006.05 C 848.046 1006.05 839.091 997.098 839.091 986.052 L 839.091 970.828 Z M 965.997 950.828 C 954.951 950.828 945.997 959.782 945.997 970.828 L 945.997 986.052 C 945.997 997.098 954.951 1006.05 965.997 1006.05 L 1008.53 1006.05 C 1019.57 1006.05 1028.53 997.098 1028.53 986.052 L 1028.53 970.828 C 1028.53 959.782 1019.57 950.828 1008.53 950.828 L 965.997 950.828 Z M 1052.9 970.828 C 1052.9 959.782 1061.86 950.828 1072.9 950.828 L 1115.43 950.828 C 1126.48 950.828 1135.43 959.782 1135.43 970.828 L 1135.43 986.052 C 1135.43 997.098 1126.48 1006.05 1115.43 1006.05 L 1072.9 1006.05 C 1061.86 1006.05 1052.9 997.098 1052.9 986.052 L 1052.9 970.828 Z M 1179.81 950.828 C 1168.76 950.828 1159.81 959.782 1159.81 970.828 L 1159.81 986.052 C 1159.81 997.098 1168.76 1006.05 1179.81 1006.05 L 1222.34 1006.05 C 1233.38 1006.05 1242.34 997.098 1242.34 986.052 L 1242.34 970.828 C 1242.34 959.782 1233.38 950.828 1222.34 950.828 L 1179.81 950.828 Z M 1266.71 970.828 C 1266.71 959.782 1275.67 950.828 1286.71 950.828 L 1329.24 950.828 C 1340.29 950.828 1349.24 959.782 1349.24 970.828 L 1349.24 986.052 C 1349.24 997.098 1340.29 1006.05 1329.24 1006.05 L 1286.71 1006.05 C 1275.67 1006.05 1266.71 997.098 1266.71 986.052 L 1266.71 970.828 Z M 110.756 17.4894 C 99.7102 17.4894 90.7558 26.4437 90.7558 37.4894 L 90.7558 52.7135 C 90.7558 63.7592 99.7102 72.7135 110.756 72.7135 L 153.288 72.7135 C 164.334 72.7135 173.288 63.7592 173.288 52.7135 L 173.288 37.4894 C 173.288 26.4437 164.334 17.4894 153.288 17.4894 L 110.756 17.4894 Z M 197.661 37.4894 C 197.661 26.4437 206.615 17.4894 217.661 17.4894 L 260.193 17.4894 C 271.239 17.4894 280.193 26.4437 280.193 37.4894 L 280.193 52.7135 C 280.193 63.7592 271.239 72.7135 260.193 72.7135 L 217.661 72.7135 C 206.615 72.7135 197.661 63.7592 197.661 52.7135 L 197.661 37.4894 Z M 324.566 17.4894 C 313.52 17.4894 304.566 26.4437 304.566 37.4894 L 304.566 52.7135 C 304.566 63.7592 313.52 72.7135 324.566 72.7135 L 367.098 72.7135 C 378.144 72.7135 387.098 63.7592 387.098 52.7135 L 387.098 37.4894 C 387.098 26.4437 378.144 17.4894 367.098 17.4894 L 324.566 17.4894 Z M 411.471 37.4894 C 411.471 26.4437 420.425 17.4894 431.471 17.4894 L 474.003 17.4894 C 485.049 17.4894 494.003 26.4437 494.003 37.4894 L 494.003 52.7135 C 494.003 63.7592 485.049 72.7135 474.003 72.7135 L 431.471 72.7135 C 420.425 72.7135 411.471 63.7592 411.471 52.7135 L 411.471 37.4894 Z M 538.376 17.4894 C 527.331 17.4894 518.376 26.4437 518.376 37.4894 L 518.376 52.7135 C 518.376 63.7592 527.331 72.7135 538.376 72.7135 L 580.909 72.7135 C 591.954 72.7135 600.909 63.7592 600.909 52.7135 L 600.909 37.4894 C 600.909 26.4437 591.954 17.4894 580.909 17.4894 L 538.376 17.4894 Z M 625.281 37.4894 C 625.281 26.4437 634.236 17.4894 645.281 17.4894 L 687.814 17.4894 C 698.859 17.4894 707.814 26.4437 707.814 37.4894 L 707.814 52.7135 C 707.814 63.7592 698.859 72.7135 687.814 72.7135 L 645.281 72.7135 C 634.236 72.7135 625.281 63.7592 625.281 52.7135 L 625.281 37.4894 Z M 752.186 17.4894 C 741.141 17.4894 732.186 26.4437 732.186 37.4894 L 732.186 52.7135 C 732.186 63.7592 741.141 72.7135 752.186 72.7135 L 794.719 72.7135 C 805.764 72.7135 814.719 63.7592 814.719 52.7135 L 814.719 37.4894 C 814.719 26.4437 805.764 17.4894 794.719 17.4894 L 752.186 17.4894 Z M 839.091 37.4894 C 839.091 26.4437 848.046 17.4894 859.091 17.4894 L 901.624 17.4894 C 912.669 17.4894 921.624 26.4437 921.624 37.4894 L 921.624 52.7135 C 921.624 63.7592 912.67 72.7135 901.624 72.7135 L 859.092 72.7135 C 848.046 72.7135 839.091 63.7592 839.091 52.7135 L 839.091 37.4894 Z M 965.997 17.4894 C 954.951 17.4894 945.997 26.4437 945.997 37.4894 L 945.997 52.7135 C 945.997 63.7592 954.951 72.7135 965.997 72.7135 L 1008.53 72.7135 C 1019.57 72.7135 1028.53 63.7592 1028.53 52.7135 L 1028.53 37.4894 C 1028.53 26.4437 1019.57 17.4894 1008.53 17.4894 L 965.997 17.4894 Z M 1052.9 37.4894 C 1052.9 26.4437 1061.86 17.4894 1072.9 17.4894 L 1115.43 17.4894 C 1126.48 17.4894 1135.43 26.4437 1135.43 37.4894 L 1135.43 52.7135 C 1135.43 63.7592 1126.48 72.7135 1115.43 72.7135 L 1072.9 72.7135 C 1061.86 72.7135 1052.9 63.7592 1052.9 52.7135 L 1052.9 37.4894 Z M 1179.81 17.4894 C 1168.76 17.4894 1159.81 26.4437 1159.81 37.4894 L 1159.81 52.7135 C 1159.81 63.7592 1168.76 72.7135 1179.81 72.7135 L 1222.34 72.7135 C 1233.38 72.7135 1242.34 63.7592 1242.34 52.7135 L 1242.34 37.4894 C 1242.34 26.4437 1233.38 17.4894 1222.34 17.4894 L 1179.81 17.4894 Z M 1266.71 37.4894 C 1266.71 26.4437 1275.67 17.4894 1286.71 17.4894 L 1329.24 17.4894 C 1340.29 17.4894 1349.24 26.4437 1349.24 37.4894 L 1349.24 52.7135 C 1349.24 63.7592 1340.29 72.7135 1329.24 72.7135 L 1286.71 72.7135 C 1275.67 72.7135 1266.71 63.7592 1266.71 52.7135 L 1266.71 37.4894 Z" stroke-linecap="round" />
</g>
</svg>