<svg width="492" height="268" viewBox="0 0 492 268" fill="none" xmlns="http://www.w3.org/2000/svg">
<path d="M265.822 267.155C263.69 266.275 262.184 264.116 261.827 261.429C261.404 258.252 263.463 255.524 266.8 254.839L269.048 254.377L269.463 248.543C270.03 240.587 270.111 227.41 269.593 227.41C268.919 227.41 251.744 230.702 250.498 231.07C249.626 231.328 249.369 231.016 249.369 229.7C249.369 228.763 248.889 227.061 248.303 225.918C247.346 224.05 247.193 223.969 246.792 225.122C246.163 226.931 247.149 230.798 248.492 231.789C250.076 232.958 248.987 233.819 245.279 234.332C243.33 234.602 241.676 234.469 240.751 233.97C239.539 233.315 236.633 233.69 223.523 236.189C214.85 237.843 201.528 240.37 193.92 241.804C182.051 244.042 179.885 244.632 178.666 245.959C177.885 246.809 176.126 247.708 174.756 247.956C173.387 248.203 162.686 250.242 150.975 252.486C131.524 256.214 129.5 256.49 127.563 255.682C123.731 254.084 122.507 248.035 125.469 245.331C126.288 244.583 134.141 242.793 150.367 239.657C171.532 235.566 174.32 235.16 176.424 235.861C178.487 236.548 180.541 236.311 192.944 233.951C200.734 232.469 210.737 230.568 215.173 229.727C239.329 225.144 238.555 225.329 238.879 224.076C239.424 221.974 245.543 220.815 247.383 222.466C248.262 223.255 249.724 223.124 258.079 221.507C271.607 218.89 270.661 219.231 270.661 216.982V215.042H258.059C244.398 215.042 242.625 214.7 239.691 211.495C238.119 209.777 238.07 209.426 237.755 197.578L237.433 185.423L224.464 185.097C210.795 184.754 209.647 184.493 209.244 181.632C208.964 179.653 206.407 179.41 204.535 181.184C202.344 183.26 199.032 182.785 197.773 180.215C196.734 178.094 196.384 166.031 197.27 162.847C198.324 159.053 201.385 157.983 204.381 160.36C206.812 162.29 208.655 162.049 209.468 159.695C209.841 158.614 210.678 157.442 211.327 157.092C211.982 156.738 218.131 156.454 225.131 156.454H237.755V148.67V140.886L233.4 139.602C212.925 133.566 203.663 131.053 198.527 130.141C185.453 127.821 175.039 122.413 165.778 113.135C156.766 104.108 151.759 94.5017 149.621 82.1384C146.471 63.9273 152.924 45.6374 167.287 32.0673C194.981 5.90193 240.966 11.2941 261.685 43.1364C263.42 45.8024 265.317 49.2475 265.902 50.7921C266.487 52.3368 267.166 53.6005 267.412 53.6005C267.658 53.6005 268.562 52.0749 269.421 50.2103C280.452 26.27 307.684 11.9668 334.382 16.0911C359.565 19.9814 378.242 36.3573 384.677 60.189C386.41 66.6066 386.224 80.949 384.321 87.7215C379.96 103.233 368.561 117.035 353.892 124.561C349.871 126.625 340.945 129.602 337.271 130.106C332.228 130.797 331.86 130.996 332.079 132.912L332.278 134.647L346.261 134.972C360.074 135.294 360.265 135.318 361.99 136.925C364.156 138.943 365.506 142.04 365.506 144.99C365.506 146.997 365.73 147.286 367.603 147.695C368.756 147.947 370.514 148.734 371.509 149.444C373.176 150.633 373.408 150.652 374.463 149.688C375.811 148.457 377.842 148.33 378.911 149.408C379.493 149.996 379.937 149.943 380.815 149.182C382.621 147.615 383.967 147.367 385.352 148.346C386.482 149.144 386.773 149.099 387.784 147.971C389.048 146.562 391.303 146.287 392.413 147.407C392.931 147.93 393.664 147.722 395.113 146.641C396.886 145.319 397.278 145.252 398.718 146.03C400.115 146.784 400.496 146.756 401.521 145.82C402.909 144.553 404.93 144.413 406.017 145.509C406.607 146.105 407.125 145.957 408.284 144.858C410.092 143.144 411.139 143.072 412.756 144.548C413.918 145.609 414.049 145.564 415.578 143.594C418.193 140.223 424.033 139.247 429.79 141.219C432.36 142.1 433.426 142.14 436.749 141.481C442.118 140.417 456.686 136.155 462.136 134.054C466.239 132.472 466.672 132.124 467.342 129.868C467.744 128.515 468.826 126.693 469.746 125.819C471.272 124.372 472.031 124.214 478.306 124.04C484.345 123.872 485.455 124.014 487.328 125.193C491.396 127.755 491.322 126.896 491.319 171.243C491.317 209.959 491.27 211.539 490.059 213.542C489.368 214.686 488.045 216.122 487.12 216.734C484.99 218.142 477.117 218.702 473.464 217.706C470.453 216.884 467.586 213.946 467.023 211.103C466.826 210.11 466.188 209.15 465.605 208.969C465.022 208.787 461.664 207.59 458.141 206.307C454.619 205.025 451.498 203.975 451.205 203.975C450.913 203.975 450.673 206.465 450.673 209.508V215.042H452.974C455.718 215.042 457.771 216.027 457.771 217.343C457.771 218.045 458.579 218.299 460.835 218.307C462.521 218.312 464.336 218.601 464.868 218.948C465.673 219.472 465.621 219.58 464.563 219.589C463.35 219.598 463.359 219.667 464.746 221.063C465.991 222.317 466.289 222.387 466.815 221.551C467.228 220.894 467.432 220.843 467.439 221.394C467.444 221.845 466.675 223.09 465.729 224.161C464.274 225.808 463.536 226.108 460.933 226.108C458.483 226.108 457.779 226.359 457.47 227.34C456.899 229.157 455.436 229.344 441.771 229.354L429.32 229.364L427.825 227.737L426.33 226.109H379.497H332.665L332.98 236.362C333.153 242.001 333.452 248.446 333.644 250.683C333.977 254.564 334.073 254.753 335.717 254.773C337.515 254.795 338.713 255.532 340.343 257.619C341.285 258.826 341.256 258.83 339.246 257.782C337.4 256.819 333.848 256.715 305.695 256.802C284.052 256.869 275.823 257.074 279.371 257.459C285.755 258.151 333.72 261.269 337.923 261.265C341.186 261.262 341.698 261.962 340.324 264.553C338.63 267.746 338.282 267.774 301.501 267.73C282.587 267.708 266.532 267.448 265.822 267.155ZM322.983 254.92C330.885 254.443 330.93 254.432 326.471 254.024C319.966 253.429 288.096 253.37 281.629 253.941L276.145 254.426L280.984 254.797C288.563 255.378 314.141 255.453 322.983 254.92ZM131.812 249.906C131.351 248.508 130.569 247.23 130.074 247.066C129.36 246.83 129.244 247.394 129.511 249.783C129.696 251.441 130.235 253.269 130.709 253.845C132.123 255.564 132.838 253.014 131.812 249.906ZM312.322 247.613C322.239 243.279 324.596 229.522 316.691 222.111C306.895 212.929 290.786 217.431 287.827 230.177C287.599 231.162 287.676 231.967 287.999 231.967C288.322 231.967 288.755 231.29 288.961 230.463C289.167 229.636 290.232 227.71 291.327 226.184C295.358 220.57 303.698 218.643 310.341 221.791C314.135 223.589 315.295 224.786 317.066 228.724C318.804 232.589 318.733 236.114 316.834 240.228C315.16 243.856 311.115 247.4 307.908 248.048C306.925 248.247 305.945 248.696 305.73 249.046C305.208 249.899 308.954 249.085 312.322 247.613ZM179.042 243.625C179.042 241.61 177.205 237.688 176.474 238.143C175.544 238.723 175.657 240.739 176.77 243.427C177.75 245.795 179.042 245.908 179.042 243.625ZM309.638 243.81C312.104 242.357 314.371 239.047 314.919 236.098C315.924 230.69 311.147 224.699 305.099 223.784C297.077 222.57 290.089 230.482 292.547 237.995C294.644 244.408 303.507 247.423 309.638 243.81ZM300.403 240.944C295.917 238.516 294.945 233.205 298.356 229.763C300.076 228.028 300.836 227.736 303.632 227.736C306.506 227.736 307.125 227.991 308.781 229.862C311.339 232.751 311.381 236.344 308.889 239.158C306.833 241.48 302.916 242.304 300.403 240.944ZM194.527 238.459C207.167 236.89 236.554 230.699 238.046 229.291C238.913 228.472 238.008 228.539 227.755 230.052C210.537 232.592 186.749 237.734 185.171 239.257C184.758 239.656 185.337 239.747 186.784 239.51C188.026 239.307 191.51 238.834 194.527 238.459ZM283.615 225.508C284.67 224.443 285.501 222.904 285.501 222.015C285.501 219.789 283.272 217.176 280.93 216.657C278.305 216.076 277.864 216.662 280.11 217.749C284.267 219.761 284.006 224.917 279.666 226.498L277.436 227.311L279.582 227.361C281.135 227.397 282.25 226.885 283.615 225.508ZM263.886 224.752C269.366 223.975 278.403 221.593 278.403 220.925C278.403 220.228 272.592 220.827 265.499 222.256C257.798 223.807 254.531 224.731 254.531 225.357C254.531 225.892 256.939 225.736 263.886 224.752ZM419.704 221.613L424.543 221.163L419.381 220.581C408.311 219.332 337.307 220.007 338.636 221.349C339.916 222.64 406.327 222.856 419.704 221.613ZM429.645 217.32C430.479 216.036 431.243 215.693 433.268 215.693C435.77 215.693 435.834 215.637 435.834 213.414V211.136H401.247H366.66L364.773 212.738C361.84 215.228 358.98 215.685 346.311 215.689L334.536 215.692V217.319V218.947H381.562H428.588L429.645 217.32ZM333.891 211.949L352.925 211.462L339.698 211.063C332.423 210.844 308.965 210.624 287.568 210.575L248.665 210.485L247.082 208.887C245.612 207.404 245.498 206.823 245.498 200.788C245.498 197.213 245.238 194.126 244.921 193.928C244.603 193.73 244.138 196.19 243.887 199.395C243.497 204.364 243.605 205.585 244.625 207.691C246.965 212.524 246.263 212.436 282.597 212.436C300.34 212.436 323.423 212.216 333.891 211.949ZM422.93 207.914C429.025 207.617 421.718 207.465 401.96 207.477C385.282 207.487 375.41 207.669 380.023 207.881C391.974 208.43 412.001 208.445 422.93 207.914ZM435.834 202.923C435.834 200.128 435.732 199.944 434.382 200.298C425.083 202.733 421.486 202.476 418.18 199.14C416.291 197.234 415.92 197.093 414.852 197.881C413.167 199.124 411.711 198.986 410.334 197.45C409.528 196.552 408.943 196.345 408.492 196.799C407.511 197.789 404.796 197.606 403.547 196.465C402.643 195.639 402.15 195.602 400.739 196.251C399.268 196.927 398.772 196.847 397.211 195.683C395.991 194.773 395.097 194.52 394.484 194.911C393.07 195.814 391.21 195.619 389.907 194.43C388.882 193.494 388.502 193.465 387.105 194.219C385.664 194.997 385.272 194.931 383.499 193.608C382.05 192.528 381.317 192.32 380.799 192.842C379.772 193.878 377.724 193.724 376.396 192.511C375.335 191.543 375.117 191.566 373.537 192.82C372.597 193.566 370.841 194.363 369.635 194.592L367.442 195.007V200.467V205.928H401.638H435.834V202.923ZM353.702 199.886C354.657 199.262 354.92 152.864 353.973 152.273C353.648 152.07 334.719 151.462 311.909 150.92C289.099 150.378 270.293 149.791 270.119 149.614C269.944 149.438 276.454 149.256 284.587 149.21C292.719 149.165 304.744 148.925 311.309 148.677C320.097 148.345 314.013 148.195 288.243 148.109L253.24 147.992V152.548V157.105H297.76C341.583 157.105 342.299 157.125 343.584 158.422C344.812 159.661 344.878 160.435 344.713 171.535C344.538 183.271 344.529 183.337 342.924 184.532C340.776 186.131 328.839 188.141 314.212 189.367C293.227 191.125 292.914 191.191 303.244 191.675C308.212 191.908 316.172 192.135 320.933 192.178C325.694 192.222 329.439 192.41 329.254 192.596C329.07 192.782 317.789 193.374 304.185 193.912C290.582 194.449 279.356 194.986 279.239 195.104C279 195.345 288.054 195.758 320.019 196.964L341.956 197.791L330.665 198.288C313.007 199.065 306.035 199.522 306.389 199.88C307.552 201.053 351.91 201.058 353.702 199.886ZM347.263 176.634C346.67 174.489 346.751 165.59 347.38 163.969C348.467 161.164 349.131 171.858 348.146 176.309L347.714 178.262L347.263 176.634ZM362.28 171.23C362.28 143.34 362.273 143.185 360.877 141.687L359.474 140.18H303.747H248.02L246.414 141.801C244.882 143.346 244.816 143.731 244.991 150.101L245.175 156.78L246.95 156.986L248.724 157.192L248.734 151.452C248.738 148.296 248.975 145.345 249.258 144.896C249.665 144.248 261.03 144.113 303.929 144.245L358.086 144.411L358.248 171.427C358.337 186.285 358.532 198.772 358.681 199.175C358.832 199.582 359.693 199.766 360.616 199.588L362.28 199.267L362.28 171.23ZM486.064 192.194L488.096 191.479V161.31V131.14L486.662 130.127C484.87 128.861 477.236 128.739 475.595 129.95C474.971 130.41 474.299 132.005 474.101 133.494L473.741 136.202L468.079 138.488C461.451 141.165 450.237 144.51 439.495 147.014L431.866 148.793L430.91 147.416C430.159 146.335 429.279 146.039 426.817 146.039C422.537 146.039 421.639 146.494 421.639 148.666C421.639 150.364 421.382 150.554 418.252 151.17C410.45 152.706 376.836 157.12 373.089 157.101C372.645 157.099 371.786 156.22 371.182 155.148C370.523 153.98 369.554 153.199 368.762 153.199C367.463 153.199 367.442 153.495 367.442 171.427C367.442 189.997 367.527 190.64 369.781 189.156C370.235 188.857 370.707 184.529 371.039 177.611C371.468 168.696 371.659 167.24 372.023 170.125C372.272 172.094 372.505 175.223 372.54 177.079C372.593 179.891 372.827 180.524 373.943 180.881C374.679 181.117 375.391 181.2 375.525 181.065C375.658 180.93 375.97 176.944 376.218 172.207C376.466 167.47 376.794 163.72 376.947 163.874C377.1 164.029 377.481 168.037 377.792 172.782C378.369 181.548 378.685 182.461 381.153 182.483C382.089 182.49 382.295 181.856 382.357 178.75C382.399 176.691 382.625 172.077 382.86 168.497L383.287 161.987L383.768 168.497C384.862 183.306 384.802 182.981 386.494 183.307C388.32 183.659 388.401 183.249 389.224 169.474L389.748 160.685L390.245 170.45C390.889 183.104 391.028 183.795 392.927 183.795C394.602 183.795 394.532 184.186 395.672 168.497L396.193 161.336L396.688 171.101C397.326 183.691 397.477 184.446 399.36 184.446C400.806 184.446 400.864 184.222 401.261 177.123C401.486 173.095 401.877 167.748 402.129 165.242L402.589 160.685L402.996 168.172C403.22 172.289 403.442 177.635 403.489 180.052C403.573 184.428 403.581 184.446 405.412 184.446H407.25L407.667 178.099C407.896 174.608 408.089 169.994 408.096 167.846C408.104 165.698 408.391 163.501 408.735 162.964C409.168 162.287 409.383 163.688 409.434 167.521C409.475 170.564 409.697 175.544 409.928 178.587C410.335 183.942 410.4 184.12 411.961 184.12H413.574L414.224 172.403C414.739 163.125 414.974 161.348 415.353 163.868C415.617 165.619 415.834 168.841 415.837 171.029C415.839 173.217 416.028 176.999 416.256 179.435C416.658 183.73 416.721 183.857 418.348 183.666L420.026 183.469L420.654 171.426L421.282 159.383L421.792 166.87C422.073 170.987 422.516 176.553 422.777 179.238L423.252 184.12L425.833 184.29C427.253 184.384 428.753 184.235 429.167 183.959C429.662 183.631 430.097 179.431 430.432 171.747C430.955 159.788 431.769 159.791 431.912 171.752C431.946 174.616 432.159 178.514 432.385 180.414C432.78 183.731 432.916 183.93 435.783 185.396C443.019 189.096 447.588 189.979 459.492 189.979C465.584 189.979 470.803 189.741 471.091 189.451C471.379 189.16 472.225 178.908 472.971 166.667C473.717 154.426 474.503 145.143 474.717 146.038C474.932 146.933 475.575 157.04 476.146 168.497C476.718 179.954 477.317 189.965 477.479 190.745C477.914 192.841 482.177 193.561 486.064 192.194ZM480.28 190.524C479.196 190.232 478.417 185.543 478.417 179.306V176.309H482.289H486.16V183.231C486.16 189.859 486.098 190.17 484.708 190.546C483.138 190.97 481.912 190.965 480.28 190.524ZM446.785 187.12C443.76 186.458 439.81 185.164 438.008 184.243C434.813 182.609 434.722 182.482 434.321 179.113C434.095 177.213 433.907 174.881 433.904 173.93L433.899 172.203L437.193 173.465C443.876 176.028 449.334 176.847 460.075 176.9L470.444 176.95L470.158 182.163C470 185.03 469.738 187.522 469.575 187.701C469.413 187.88 465.456 188.093 460.783 188.174C454.487 188.283 450.862 188.01 446.785 187.12ZM423.978 181.11C423.756 179.991 423.575 176.842 423.575 174.112V169.148H426.544H429.513L429.125 172.006C428.911 173.577 428.737 176.726 428.737 179.004V183.144H426.559C424.636 183.144 424.334 182.906 423.978 181.11ZM436.56 150.301C436.782 150.075 442.008 148.604 448.174 147.032C454.339 145.46 461.673 143.412 464.47 142.481C467.268 141.549 469.67 140.901 469.808 141.041C470.286 141.524 460.905 145.42 455.367 147.04C452.307 147.934 447.75 148.961 445.239 149.322C442.727 149.683 439.657 150.144 438.415 150.345C437.173 150.547 436.338 150.527 436.56 150.301ZM484.368 139.068C483.914 137.561 482.574 135.291 481.388 134.023L479.233 131.717H482.071C485.45 131.717 485.647 132.07 485.387 137.645L485.192 141.807L484.368 139.068ZM241.486 179.551C242.805 179.007 244.524 177.775 245.306 176.813C246.214 175.694 247.379 175.053 248.532 175.035C250.265 175.008 250.379 174.8 251.395 169.799C251.978 166.935 252.486 164.757 252.525 164.96C252.563 165.163 252.902 167.067 253.276 169.191C254.412 175.63 253.678 175.102 262.127 175.56C271.326 176.06 302.179 176.299 302.6 175.874C302.766 175.706 303.249 173.319 303.672 170.568C304.096 167.818 304.629 165.568 304.857 165.568C305.084 165.568 305.614 167.794 306.033 170.515C306.452 173.235 306.957 175.725 307.155 176.048C307.352 176.37 308.513 176.634 309.734 176.634C311.939 176.634 311.954 176.615 311.954 173.673C311.954 168.689 314.043 166.029 319.051 164.632C320.434 164.247 320.361 164.386 318.543 165.605C315.93 167.359 314.535 169.963 314.535 173.087C314.535 174.921 315.035 175.968 316.729 177.676C318.836 179.802 320.056 180.198 323.568 179.894C325.875 179.694 328.571 178.15 329.425 176.54C329.856 175.727 330.33 175.437 330.575 175.837C330.805 176.211 331.862 176.646 332.925 176.804C334.679 177.064 334.634 177.099 332.439 177.188C331.109 177.242 330.02 177.578 330.02 177.936C330.02 178.684 332.401 178.769 336.705 178.173L339.698 177.759V169.707V161.655L277.919 161.822L216.141 161.988L215.956 168.346C215.819 173.071 215.984 174.784 216.601 175.015C218.303 175.651 227.515 176.376 227.808 175.896C227.976 175.622 227.016 175.213 225.676 174.987C221.858 174.342 221.708 174.137 225.013 174.082C226.698 174.054 228.043 173.811 228.001 173.542C227.505 170.373 230.768 165.968 234.368 164.95C236.984 164.21 237.052 164.577 234.54 165.888C229.025 168.765 229.568 177.035 235.442 179.615C238.016 180.746 238.605 180.739 241.486 179.551ZM240.809 176.657C242.278 175.276 243.276 172.874 242.645 172.237C242.431 172.021 241.17 172.402 239.844 173.083C238.518 173.765 237.191 174.435 236.896 174.574C236.6 174.713 237.108 173.627 238.025 172.163C238.941 170.698 239.691 169.347 239.691 169.161C239.691 168.23 235.771 169 234.211 170.237L232.429 171.652L233.171 170.252C235.47 165.918 242.736 166.902 243.932 171.71C244.348 173.381 243.327 175.828 241.683 177.102C240.015 178.394 239.332 178.045 240.809 176.657ZM324.686 176.657C326.161 175.27 327.152 172.873 326.516 172.231C326.298 172.012 324.799 172.48 323.184 173.271C320.222 174.723 320.159 174.57 322.383 171.326C323.035 170.376 323.568 169.424 323.568 169.211C323.568 168.409 319.927 168.863 318.55 169.836C317.761 170.394 317.116 170.557 317.116 170.199C317.116 168.98 319.976 167.521 322.364 167.521C324.229 167.521 325.105 167.954 326.414 169.524C327.333 170.625 328.084 171.958 328.084 172.485C328.084 174.01 326.295 177.09 325.152 177.532C323.387 178.215 323.267 177.99 324.686 176.657ZM273.321 174.643C260.119 174.272 256.178 173.967 255.749 173.284C254.712 171.633 255.175 171.29 257.918 171.677C259.426 171.89 269.895 172.253 281.181 172.484C298.712 172.842 301.65 173.041 301.344 173.846C301.147 174.364 300.986 174.911 300.986 175.06C300.986 175.371 297.106 175.312 273.321 174.643ZM301.953 133.903C291.635 130.918 284.955 128.591 278.012 125.563L270.201 122.156L267.366 123.653C265.807 124.476 261.925 126.105 258.738 127.274C253.394 129.234 253.094 129.435 254.867 129.868C255.924 130.127 263.322 130.877 271.306 131.535L285.823 132.732L275.823 133.758L265.822 134.785L285.501 134.811C303.634 134.835 304.926 134.763 301.953 133.903ZM341.489 123.871C344.23 123.17 349.086 121.326 352.279 119.773C358.319 116.836 367.448 110.052 368.805 107.493C369.293 106.574 368.274 107.209 366.106 109.176C357.032 117.407 346.991 121.788 334.859 122.807L330.343 123.187L336.149 121.676C350.605 117.914 362.363 109.332 369.215 97.5412C373.31 90.4949 374.643 85.742 375.02 76.8449C375.418 67.4588 374.331 62.1617 370.455 54.5973C361.939 37.98 345.547 28.2217 326.149 28.2217C303.131 28.2217 283.661 42.6273 277.11 64.5043C276.333 67.1001 275.608 69.2239 275.499 69.2239C275.065 69.2239 276.004 63.433 277.152 59.0318C278.797 52.7226 280.872 48.2276 284.469 43.185L287.487 38.9536L284.381 42.3317C274.681 52.8803 270.499 71.4345 274.452 86.3802C279.74 106.373 298.163 122.163 319.736 125.192C325.498 126.001 335.547 125.391 341.489 123.871ZM324.213 111.863C323.435 108.083 323.729 101.862 324.822 98.9617C325.295 97.7068 325.423 97.8447 325.915 100.145C326.669 103.674 326.515 112.945 325.677 114.456C325.107 115.484 324.873 115.069 324.213 111.863ZM296.393 102.586C298.353 98.9557 307.627 90.6803 308.617 91.679C309.24 92.3071 303.768 98.6305 300.467 101.098C296.662 103.943 295.416 104.398 296.393 102.586ZM349.965 101.187C346.724 98.8312 341.101 92.3279 341.745 91.679C342.718 90.6971 352.028 98.9081 353.862 102.366C354.916 104.353 353.896 104.044 349.965 101.187ZM321.632 85.0751C318.548 83.8312 315.187 78.3508 316.076 76.0144C316.385 75.2007 316.933 75.2936 319.522 76.5991C324.493 79.1058 325.483 79.1498 329.866 77.0587C333.589 75.2818 333.854 75.2405 334.212 76.3789C334.723 78.0042 333.158 81.5542 331.076 83.4913C329.825 84.6547 328.5 85.117 325.992 85.2651C324.127 85.3754 322.165 85.2897 321.632 85.0751ZM312.888 82.4248C311.212 79.8449 310.924 74.9857 312.24 71.509C315.934 61.7508 330.616 60.2912 336.734 69.0739C339.31 72.7721 339.74 77.6818 337.82 81.4788C337.064 82.9734 336.338 84.1963 336.207 84.1963C336.075 84.1963 336.388 82.7507 336.901 80.9839C338.038 77.0711 337.311 73.585 334.707 70.4628C329.091 63.7289 318.09 64.9683 314.059 72.789C312.878 75.0799 312.743 80.7323 313.82 82.7634C314.888 84.7753 314.268 84.5504 312.888 82.4248ZM290.34 77.3911C289.985 77.2519 288.254 76.9413 286.494 76.7009C282.207 76.1154 283.833 75.208 290.128 74.6723C295.736 74.1951 303.949 75.551 300.797 76.4335C298.556 77.0607 291.212 77.7333 290.34 77.3911ZM352.344 76.9979C350.251 76.673 348.413 76.2812 348.261 76.1272C347.523 75.3832 356.015 74.3088 360.147 74.6234C365.82 75.0553 368.064 76.0107 364.785 76.5988C360.137 77.4324 355.999 77.5651 352.344 76.9979ZM306.429 59.2735C303.349 57.4436 300.187 54.5408 298.002 51.5376C296.719 49.7743 295.793 48.2071 295.944 48.055C296.491 47.5023 302.814 52.2898 305.148 55.0254C309.056 59.6039 309.508 61.1025 306.429 59.2735ZM342.364 58.647C344.179 55.2259 354.538 46.3781 354.538 48.2491C354.538 49.5622 349.52 55.1929 346.235 57.5664C342.218 60.4685 341.256 60.7372 342.364 58.647ZM324.436 51.9639C324.149 50.8949 323.913 47.8231 323.913 45.1379C323.913 42.4526 324.149 39.3809 324.436 38.3119C324.928 36.483 325.003 36.4445 325.694 37.6609C326.103 38.3794 326.43 41.7008 326.43 45.1379C326.43 48.575 326.103 51.8964 325.694 52.6149C325.003 53.8313 324.928 53.7928 324.436 51.9639ZM225.036 120.052C231.604 118.335 239.091 114.346 243.754 110.078L247.495 106.655L247.303 90.3805L247.111 74.1062L236.949 73.9268L226.787 73.7475V86.4811V99.2148L223.867 100.477C216.093 103.84 205.475 103.874 198.799 100.558C193.415 97.8841 188.077 92.172 186.113 86.9853C184.079 81.6114 183.639 71.9153 185.17 66.207C190.365 46.8446 213.78 40.2639 230.263 53.534C231.642 54.6446 232.967 55.5533 233.206 55.5533C233.445 55.5533 235.916 52.1931 238.696 48.0862C244.491 39.5261 244.545 40.2528 237.784 35.7176C229.332 30.0489 220.88 27.5733 209.953 27.566C198.338 27.5587 189.127 30.7134 180.498 37.6556C169.392 46.5911 163.824 57.6323 163.094 72.1659C162.611 81.8048 163.891 88.3492 167.866 96.5505C170.334 101.644 171.77 103.632 176.09 107.943C178.969 110.815 182.963 114.137 184.967 115.326C189.17 117.82 196.05 120.36 201.057 121.265C206.366 122.225 219.208 121.575 225.036 120.052ZM346.795 256.379V250.845H350.344C353.068 250.845 353.893 251.072 353.893 251.822C353.893 252.527 353.176 252.798 351.312 252.798C349.161 252.798 348.731 253.015 348.731 254.1C348.731 255.185 349.161 255.402 351.312 255.402C353.176 255.402 353.893 255.673 353.893 256.379C353.893 257.084 353.176 257.355 351.312 257.355C349.161 257.355 348.731 257.572 348.731 258.657C348.731 259.766 349.161 259.959 351.634 259.959C353.785 259.959 354.538 260.212 354.538 260.935C354.538 261.695 353.677 261.912 350.667 261.912H346.795V256.379ZM357.115 258.988L359.108 256.065L357.455 253.618C356.028 251.506 355.948 251.14 356.869 250.944C357.456 250.819 358.559 251.505 359.321 252.47L360.707 254.223L361.603 252.534C362.095 251.605 363.03 250.845 363.68 250.845C365.175 250.845 365.151 251.41 363.571 253.449C361.993 255.485 361.974 256.382 363.465 258.557C365.589 261.656 365.655 261.912 364.317 261.912C363.605 261.912 362.499 261.031 361.787 259.896L360.522 257.88L359.099 259.896C358.316 261.005 357.101 261.912 356.398 261.912C355.232 261.912 355.294 261.659 357.115 258.988ZM370.023 257.355C370.023 252.929 369.977 252.798 368.41 252.798C367.406 252.798 366.797 252.429 366.797 251.822C366.797 251.054 367.693 250.845 370.991 250.845C374.288 250.845 375.184 251.054 375.184 251.822C375.184 252.429 374.575 252.798 373.571 252.798C372.004 252.798 371.958 252.928 371.958 257.355C371.958 260.972 371.759 261.912 370.991 261.912C370.222 261.912 370.023 260.972 370.023 257.355ZM377.12 256.379V250.845H380.54C382.42 250.845 384.308 251.197 384.733 251.627C385.731 252.633 385.729 255.714 384.729 257.328C384.093 258.354 384.153 258.81 385.051 259.811C386.478 261.401 386.44 261.912 384.898 261.912C384.189 261.912 383.147 261.063 382.5 259.959C381.872 258.885 380.839 258.006 380.206 258.006C379.357 258.006 379.054 258.519 379.054 259.959C379.054 261.261 378.732 261.912 378.087 261.912C377.302 261.912 377.12 260.863 377.12 256.379ZM383.249 254.426C383.249 253.433 382.752 253.075 381.153 252.92C379.268 252.737 379.056 252.889 379.056 254.426C379.056 255.963 379.268 256.115 381.153 255.932C382.752 255.776 383.249 255.419 383.249 254.426ZM389.259 256.379C392.205 249.406 393.149 249.214 395.774 255.054C398.468 261.05 398.687 261.912 397.51 261.912C396.966 261.912 396.211 261.326 395.831 260.61C395.322 259.65 394.48 259.308 392.626 259.308C390.678 259.308 390.019 259.601 389.702 260.61C389.476 261.326 388.758 261.912 388.106 261.912C387.046 261.912 387.168 261.327 389.259 256.379ZM393.752 255.671C393.044 254.102 392.935 254.066 392.153 255.145C390.933 256.829 391.114 257.355 392.914 257.355C394.4 257.355 394.459 257.236 393.752 255.671ZM400.35 256.71C399.193 253.815 398.416 251.275 398.624 251.065C399.477 250.205 400.794 251.521 401.626 254.064C402.113 255.552 402.757 256.923 403.058 257.111C403.359 257.298 404.217 255.965 404.966 254.149C405.883 251.921 406.702 250.845 407.48 250.845C408.509 250.845 408.401 251.429 406.489 256.216C405.31 259.17 403.919 261.674 403.399 261.78C402.753 261.913 401.786 260.304 400.35 256.71ZM408.09 261.613C408.09 261.449 409.085 259.032 410.302 256.242C411.917 252.539 412.874 251.115 413.85 250.963C414.586 250.848 415.187 250.896 415.187 251.068C415.187 251.24 416.192 253.751 417.421 256.647C419.461 261.455 419.549 261.912 418.432 261.912C417.76 261.912 417.025 261.326 416.8 260.61C416.483 259.601 415.824 259.308 413.876 259.308C412.022 259.308 411.18 259.65 410.671 260.61C410.08 261.724 408.09 262.497 408.09 261.613ZM415.187 256.987C415.187 256.784 414.866 256.012 414.473 255.272C413.899 254.191 413.646 254.103 413.192 254.826C412.249 256.329 412.535 257.355 413.897 257.355C414.607 257.355 415.187 257.189 415.187 256.987ZM422.694 260.563C419.382 257.934 421.056 250.98 425.052 250.77C428.636 250.582 430.571 251.383 429.754 252.717C429.464 253.191 428.857 253.18 427.772 252.681C425.554 251.662 422.93 253.442 422.93 255.967C422.93 259.837 428.193 261.573 428.618 257.843C428.929 255.113 430.672 255.54 430.672 258.348C430.672 260.212 430.362 260.761 429.017 261.277C426.467 262.255 424.554 262.039 422.694 260.563ZM433.778 256.379C436.725 249.406 437.669 249.214 440.293 255.054C442.988 261.05 443.206 261.912 442.029 261.912C441.486 261.912 440.73 261.326 440.35 260.61C439.841 259.65 438.999 259.308 437.145 259.308C435.197 259.308 434.538 259.601 434.221 260.61C433.995 261.326 433.278 261.912 432.625 261.912C431.565 261.912 431.687 261.327 433.778 256.379ZM438.272 255.671C437.563 254.102 437.454 254.066 436.673 255.145C435.452 256.829 435.633 257.355 437.433 257.355C438.919 257.355 438.978 257.236 438.272 255.671ZM444.867 256.379C444.867 249.671 445.664 249.244 449.122 254.1C450.397 255.89 451.703 257.355 452.024 257.355C452.346 257.355 452.609 255.89 452.609 254.1C452.609 251.641 452.846 250.845 453.577 250.845C454.361 250.845 454.545 251.894 454.545 256.379C454.545 261.226 454.405 261.908 453.416 261.881C452.795 261.863 451.053 260.197 449.544 258.178L446.802 254.507V258.209C446.802 261.067 446.581 261.912 445.834 261.912C445.05 261.912 444.867 260.863 444.867 256.379ZM457.126 260.897C457.126 260.338 458.277 258.361 459.685 256.503L462.244 253.124L459.685 252.924C457.977 252.79 457.126 252.411 457.126 251.784C457.126 251.063 458.096 250.845 461.319 250.845C466.393 250.845 466.565 251.373 462.932 255.808C461.513 257.541 460.352 259.184 460.352 259.459C460.352 259.734 461.513 259.959 462.932 259.959C464.796 259.959 465.513 260.23 465.513 260.935C465.513 261.703 464.617 261.912 461.319 261.912C457.95 261.912 457.126 261.712 457.126 260.897ZM466.804 261.734C466.804 261.637 467.776 259.22 468.965 256.364C470.61 252.41 471.457 251.121 472.513 250.963C473.277 250.848 473.901 250.896 473.901 251.068C473.901 251.24 474.906 253.751 476.135 256.647C478.175 261.455 478.262 261.912 477.146 261.912C476.474 261.912 475.739 261.326 475.514 260.61C475.197 259.601 474.538 259.308 472.59 259.308C470.736 259.308 469.894 259.65 469.385 260.61C468.84 261.637 466.804 262.524 466.804 261.734ZM473.901 256.987C473.901 256.784 473.579 256.012 473.186 255.272C472.613 254.191 472.36 254.103 471.906 254.826C470.962 256.329 471.248 257.355 472.611 257.355C473.32 257.355 473.901 257.189 473.901 256.987ZM348.731 243.685C348.731 239.258 348.685 239.128 347.118 239.128C346.114 239.128 345.505 238.759 345.505 238.151C345.505 237.384 346.401 237.175 349.699 237.175C352.996 237.175 353.893 237.384 353.893 238.151C353.893 238.759 353.283 239.128 352.279 239.128C350.713 239.128 350.667 239.258 350.667 243.685C350.667 247.301 350.467 248.242 349.699 248.242C348.931 248.242 348.731 247.301 348.731 243.685ZM355.828 242.708C355.828 238.224 356.012 237.175 356.796 237.175C357.472 237.175 357.764 237.862 357.764 239.453C357.764 241.678 357.825 241.732 360.345 241.732C362.864 241.732 362.925 241.678 362.925 239.453C362.925 237.862 363.217 237.175 363.893 237.175C364.678 237.175 364.861 238.224 364.861 242.708C364.861 247.193 364.678 248.242 363.893 248.242C363.217 248.242 362.925 247.554 362.925 245.963C362.925 243.739 362.864 243.685 360.345 243.685C357.825 243.685 357.764 243.739 357.764 245.963C357.764 247.554 357.472 248.242 356.796 248.242C356.012 248.242 355.828 247.193 355.828 242.708ZM368.087 242.708V237.175H371.636C374.36 237.175 375.184 237.402 375.184 238.151C375.184 238.857 374.467 239.128 372.604 239.128C370.453 239.128 370.023 239.345 370.023 240.43C370.023 241.515 370.453 241.732 372.604 241.732C374.467 241.732 375.184 242.003 375.184 242.708C375.184 243.413 374.467 243.685 372.604 243.685C370.453 243.685 370.023 243.902 370.023 244.987C370.023 246.096 370.453 246.289 372.926 246.289C375.077 246.289 375.83 246.542 375.83 247.265C375.83 248.025 374.969 248.242 371.958 248.242H368.087V242.708ZM383.414 246.954C382.522 246.246 381.644 244.881 381.462 243.92C381.033 241.661 382.096 238.623 383.598 237.812C385.353 236.865 389.756 237.041 390.622 238.093C391.651 239.345 390.529 239.941 388.563 239.186C384.761 237.728 381.845 242.557 384.863 245.313C386.035 246.383 386.491 246.445 388.255 245.773C390.822 244.796 391.962 245.756 389.935 247.19C387.93 248.607 385.381 248.515 383.414 246.954ZM394.834 246.644C393.502 245.3 393.25 244.421 393.25 241.11C393.25 238.046 393.465 237.175 394.218 237.175C394.925 237.175 395.188 237.92 395.195 239.942C395.207 243.837 395.774 245.532 397.222 245.995C399.39 246.69 400.347 245.16 400.347 241.001C400.347 237.523 400.473 237.175 401.731 237.175C403.049 237.175 403.096 237.385 402.715 241.569C402.407 244.954 401.998 246.225 400.937 247.102C399.01 248.695 396.695 248.521 394.834 246.644ZM405.509 242.708C405.509 238.224 405.692 237.175 406.477 237.175C407.245 237.175 407.445 238.115 407.445 241.732V246.289H409.703C411.28 246.289 411.961 246.583 411.961 247.265C411.961 248.003 411.173 248.242 408.735 248.242H405.509V242.708ZM415.832 243.685C415.832 239.258 415.786 239.128 414.219 239.128C413.216 239.128 412.606 238.759 412.606 238.151C412.606 237.384 413.502 237.175 416.8 237.175C420.098 237.175 420.994 237.384 420.994 238.151C420.994 238.759 420.385 239.128 419.381 239.128C417.814 239.128 417.768 239.258 417.768 243.685C417.768 247.301 417.568 248.242 416.8 248.242C416.032 248.242 415.832 247.301 415.832 243.685ZM423.868 246.644C422.536 245.3 422.284 244.421 422.284 241.11C422.284 238.046 422.499 237.175 423.252 237.175C423.981 237.175 424.22 237.963 424.22 240.358C424.22 244.313 426.027 247.04 427.89 245.895C428.774 245.352 429.106 244.201 429.251 241.176C429.422 237.614 429.591 237.175 430.791 237.175C432.059 237.175 432.118 237.435 431.792 241.544C431.516 245.006 431.148 246.154 430.019 247.077C428.041 248.693 425.739 248.531 423.868 246.644ZM434.543 242.708V237.175H437.963C439.844 237.175 441.731 237.527 442.157 237.956C443.16 238.968 443.156 242.547 442.149 243.561C441.539 244.177 441.617 244.772 442.509 246.295C443.619 248.191 443.615 248.242 442.358 248.242C441.608 248.242 440.588 247.423 439.924 246.289C439.295 245.215 438.263 244.336 437.629 244.336C436.78 244.336 436.478 244.848 436.478 246.289C436.478 247.591 436.155 248.242 435.51 248.242C434.726 248.242 434.543 247.193 434.543 242.708ZM440.673 240.755C440.673 239.762 440.175 239.405 438.576 239.249C436.691 239.066 436.479 239.218 436.479 240.755C436.479 242.292 436.691 242.445 438.576 242.261C440.175 242.106 440.673 241.748 440.673 240.755ZM446.682 242.708C449.629 235.735 450.573 235.543 453.197 241.384C455.892 247.379 456.11 248.242 454.934 248.242C454.39 248.242 453.634 247.656 453.254 246.94C452.745 245.98 451.903 245.638 450.049 245.638C448.101 245.638 447.442 245.931 447.125 246.94C446.9 247.656 446.182 248.242 445.53 248.242C444.469 248.242 444.591 247.657 446.682 242.708ZM451.176 242.001C450.467 240.432 450.358 240.396 449.577 241.474C448.356 243.159 448.537 243.685 450.337 243.685C451.823 243.685 451.882 243.565 451.176 242.001ZM457.771 242.708C457.771 238.224 457.954 237.175 458.739 237.175C459.507 237.175 459.706 238.115 459.706 241.732V246.289H461.965C463.542 246.289 464.223 246.583 464.223 247.265C464.223 248.003 463.434 248.242 460.997 248.242H457.771V242.708ZM87.6331 176.833C85.5347 176.42 83.0958 173.629 82.6261 171.103C82.3974 169.873 82.41 167.347 82.6544 165.49C83.0537 162.453 83.546 161.637 87.5377 157.397L91.977 152.682L87.8126 150.332C84.4798 148.452 83.4995 147.528 82.9036 145.707C81.7316 142.123 82.661 139.672 86.7591 135.537C89.7089 132.561 91.2085 131.589 94.2117 130.709C99.5816 129.134 105.719 129.665 109.761 132.055C111.796 133.258 112.926 133.615 113.094 133.108C113.8 130.972 116.944 130.415 128.319 130.415C134.523 130.415 140.33 130.695 141.221 131.037C143.964 132.089 145.172 134.718 145.133 139.547C145.106 142.929 144.788 144.292 143.648 145.907L142.198 147.962L143.825 150.378C148.791 157.75 146.822 169.016 139.743 173.743C134.524 177.228 126.511 178.283 120.613 176.263C117.898 175.333 117.396 175.333 115.093 176.263C113.08 177.075 110.14 177.267 100.797 177.197C94.3282 177.148 88.4043 176.984 87.6331 176.833ZM134.397 169.865C142.331 165.725 142.774 154.747 135.167 150.793C132.146 149.223 132.216 149.285 132.928 148.77C133.273 148.521 134.788 146.932 136.297 145.24C138.669 142.577 139.039 141.765 139.039 139.218V136.274H128.393H117.747V139.854V143.435H122.987H128.227L125.245 146.956C122.655 150.016 122.263 150.864 122.263 153.419V156.36L125.651 156.05C130.245 155.63 132.202 156.715 132.461 159.825C132.83 164.268 128.278 165.579 122.583 162.67C120.865 161.792 119.269 161.192 119.037 161.337C118.806 161.481 118.081 162.798 117.426 164.263C116.341 166.69 116.326 167.017 117.255 167.954C120.427 171.155 129.901 172.211 134.397 169.865ZM113.103 167.358L112.908 163.941L106.576 163.754L100.243 163.567L104.846 158.595C110.677 152.295 112.179 149.431 111.791 145.356C110.794 134.884 96.5399 132.141 89.7557 141.115L88.0802 143.331L91.1385 145.218L94.1968 147.105L96.312 144.945C101.031 140.124 106.533 144.001 102.946 149.619C102.26 150.693 98.785 154.648 95.2232 158.407C89.1163 164.853 88.7461 165.4 88.7298 168.009L88.7127 170.776H101.005H113.298L113.103 167.358ZM115.748 155.523C115.579 155.352 115.056 155.857 114.586 156.647C113.77 158.018 113.783 158.032 114.894 156.958C115.534 156.34 115.918 155.694 115.748 155.523ZM0.993278 172.24L1.02208 168.497L10.3011 158.841C21.8514 146.82 23.3791 143.925 20.2739 139.942C17.8603 136.846 12.7622 137.937 9.38251 142.272L8.02763 144.01L4.18036 141.697L0.333104 139.385L1.63745 137.537C3.72166 134.584 7.84471 131.338 10.5513 130.52C18.179 128.214 26.6971 131.147 29.7989 137.146C31.3744 140.194 31.2425 146.382 29.5319 149.669C28.2515 152.13 17.909 163.935 16.0024 165.112C13.8289 166.454 15.6912 166.87 23.8694 166.87H32.5796V171.427V175.984H16.7721H0.964552L0.993278 172.24ZM55.1619 174.67C53.2102 173.927 50.1687 172.903 48.4031 172.393C37.3648 169.208 32.7714 158.426 35.5808 142.296C35.95 140.176 37.1344 139.604 38.8625 140.712C39.4907 141.114 39.4439 142.257 38.643 146.072C37.2991 152.473 37.6836 159.786 39.5707 163.719C40.4173 165.484 42.1174 167.482 43.8221 168.718C47.5611 171.427 47.9503 171.314 45.5245 168.224C42.0752 163.83 40.7573 159.997 40.5814 153.85L40.4231 148.317L40.9169 153.961C41.5398 161.081 43.6411 165.663 48.167 169.768C49.9618 171.397 51.7465 172.729 52.1329 172.729C52.5193 172.729 51.6619 171.858 50.2275 170.794C44.6998 166.692 42.0102 160.945 41.9933 153.199C41.9787 146.598 43.2642 143.182 47.5234 138.502C52.4738 133.062 59.7093 131.028 66.9207 133.049C69.9876 133.908 74.2124 137.157 76.9191 140.738C78.0827 142.277 79.0346 143.231 79.0346 142.859C79.0346 141.075 73.2419 135.181 69.6857 133.346C66.4259 131.665 65.2131 131.397 61.0128 131.432C57.0523 131.464 55.5072 131.795 52.8344 133.186C48.6465 135.364 43.9848 140.575 42.324 144.933C41.6149 146.794 41.0224 147.878 41.0074 147.341C40.9511 145.329 44.2096 139.478 46.895 136.771C51.0756 132.555 55.1136 130.841 60.9689 130.797C66.9431 130.751 70.9111 132.394 75.277 136.721C79.815 141.218 81.8538 146.305 81.8816 153.199C81.9011 157.906 81.6343 159.327 80.0991 162.71C75.4645 172.924 64.4525 178.205 55.1619 174.67ZM66.4069 170.404C67.6103 169.19 67.6189 169.111 66.7306 167.436C66.1937 166.424 65.8437 166.3 65.1544 166.877C64.6625 167.289 62.6687 167.544 60.672 167.451C56.4549 167.254 54.6957 168.323 56.7369 169.843C58.5295 171.178 59.901 170.974 65.6465 168.516C66.3302 168.223 66.7756 168.317 66.7756 168.753C66.7756 169.15 66.3401 169.474 65.8078 169.474C65.2755 169.474 64.84 169.747 64.84 170.082C64.84 170.416 64.0416 170.811 63.0657 170.961C61.3778 171.219 61.3913 171.236 63.3422 171.329C64.4701 171.383 65.8493 170.966 66.4069 170.404ZM51.6806 165.3C51.8727 164.795 51.3006 163.257 50.4092 161.883C49.5178 160.508 48.5941 158.578 48.3566 157.594C47.9252 155.805 46.5686 155.21 45.7967 156.47C45.093 157.619 46.1386 160.829 48.1117 163.577C50.1026 166.35 51.0984 166.831 51.6806 165.3ZM73.7991 165.156C75.6376 163.857 77.71 159.393 77.2674 157.685C76.7037 155.51 75.9378 155.71 75.1479 158.239C74.7273 159.585 73.6877 161.778 72.8377 163.113C70.6423 166.561 70.9342 167.181 73.7991 165.156ZM54.5259 161.64C55.1668 160.079 55.1769 159.465 54.5717 158.859C53.9682 158.255 53.8859 158.323 54.2026 159.162C54.4267 159.757 54.1297 161.18 53.5423 162.326C52.955 163.472 52.7511 164.237 53.089 164.026C53.427 163.816 54.0736 162.742 54.5259 161.64ZM72.5895 162.15C73.2927 160.987 73.8603 159.742 73.8509 159.384C73.8411 159.026 73.5125 159.319 73.1199 160.035C72.7274 160.751 71.8146 161.996 71.0915 162.801C70.3537 163.623 70.1134 164.266 70.5439 164.266C70.9658 164.266 71.8863 163.314 72.5895 162.15ZM56.8323 157.706C53.1887 153.338 55.8795 146.69 61.2914 146.69C63.0368 146.69 64.1386 147.184 65.5349 148.593C67.6781 150.755 68.1345 150.312 66.0685 148.075C63.0592 144.816 58.8953 144.794 56.2018 148.024C53.4464 151.328 53.4748 155.447 56.2747 158.569C58.0685 160.569 58.5711 159.791 56.8323 157.706ZM60.5634 158.542C60.7372 158.259 60.2499 157.979 59.4805 157.92C58.3723 157.836 58.2811 157.94 59.0413 158.426C60.2172 159.176 60.177 159.173 60.5634 158.542ZM64.5129 157.764C64.7389 157.395 64.4799 157.286 63.9057 157.508C62.7879 157.941 62.5835 158.407 63.5116 158.407C63.8455 158.407 64.2961 158.118 64.5129 157.764ZM62.788 153.356C62.9428 152.26 62.6716 151.898 61.6969 151.898C60.1526 151.898 59.4196 152.882 59.9418 154.255C60.4937 155.706 62.5473 155.057 62.788 153.356ZM66.6029 153.471C66.7083 152.594 66.6315 152.513 66.3449 153.199C66.1206 153.736 65.6175 154.418 65.2271 154.714C64.7706 155.06 64.8628 155.157 65.4852 154.985C66.0176 154.839 66.5205 154.157 66.6029 153.471ZM59.0331 153.525C59.0331 152.988 58.919 152.548 58.7796 152.548C58.6401 152.548 58.3589 152.988 58.1546 153.525C57.9503 154.062 58.0644 154.501 58.4082 154.501C58.7519 154.501 59.0331 154.062 59.0331 153.525ZM53.8786 149.131C55.4218 146.577 55.4554 146.006 54.1585 144.373C53.2043 143.171 53.1915 143.185 53.8979 144.648C54.9212 146.768 53.0029 150.427 50.6764 150.793C49.0502 151.049 49.0517 151.052 50.8163 151.149C52.1895 151.224 52.8944 150.759 53.8786 149.131ZM60.6727 150.552C61.3566 149.436 60.7442 149.326 59.3927 150.323C58.3462 151.095 58.3137 151.246 59.1945 151.246C59.7737 151.246 60.4388 150.934 60.6727 150.552ZM64.5174 150.596C64.7366 150.237 64.6259 149.945 64.2709 149.945C63.9161 149.945 63.4463 150.237 63.227 150.596C63.0077 150.954 63.1185 151.246 63.4735 151.246C63.8283 151.246 64.2981 150.954 64.5174 150.596ZM77.4474 150.553C78.3551 149.071 76.9628 145.35 74.5064 142.692C71.4252 139.358 70.3884 139.756 73.1091 143.229C74.9697 145.603 76.8544 150.595 75.8903 150.595C75.6377 150.595 75.0913 149.35 74.6762 147.829C73.8636 144.85 71.0558 140.863 70.3018 141.617C70.0484 141.87 70.5953 142.982 71.5172 144.088C72.4391 145.193 73.5373 147.256 73.9578 148.672C74.7139 151.218 76.4626 152.161 77.4474 150.553ZM48.3566 148.805C48.5941 147.821 49.5178 145.891 50.4092 144.516C51.9601 142.125 52.077 140.18 50.6697 140.18C49.6738 140.18 46.2729 145.198 45.8017 147.362C45.0697 150.725 47.555 152.128 48.3566 148.805ZM66.4831 139.47C67.6522 137.189 67.2751 135.29 65.7688 135.874C65.2211 136.086 64.9196 136.02 65.0988 135.727C65.5287 135.026 58.3995 135.61 56.897 136.399C55.5765 137.093 55.8136 138.692 57.1782 138.294C59.772 137.539 65.3587 137.494 65.8063 138.225C66.1615 138.804 65.8802 138.893 64.7595 138.555C63.3077 138.117 63.2916 138.142 64.4547 139.038C65.1299 139.557 65.4757 140.32 65.2231 140.732C64.9705 141.145 64.9187 141.482 65.108 141.482C65.2972 141.482 65.916 140.577 66.4831 139.47ZM0.319336 113.894V107.136L23.8694 77.4454C36.8219 61.1154 47.4194 47.6051 47.4194 47.4226C47.4194 47.2401 37.2574 47.0908 24.8372 47.0908H2.25499V38.3027V29.5145H38.7091H75.1633L75.1609 36.5125L75.1584 43.5105L51.5956 73.1297L28.0328 102.749L51.9206 102.92L75.8084 103.091V111.871V120.651H38.0641H0.319485L0.319336 113.894ZM109.359 102.415V84.1798L94.1969 57.4238C85.8576 42.708 79.0346 30.4011 79.0346 30.075C79.0346 29.7356 83.5134 29.5587 89.5126 29.6611L99.9906 29.84L109.632 46.5675C114.934 55.7676 119.48 63.1659 119.733 63.0082C119.986 62.8505 124.477 55.2498 129.713 46.118L139.232 29.5145H149.781C155.583 29.5145 160.331 29.6789 160.331 29.8796C160.331 30.0803 153.362 42.5306 144.846 57.5467L129.361 84.8488V102.75V120.651H119.36H109.359V102.415ZM391.471 72.6415L391.637 27.2361L399.702 27.0479C404.138 26.9443 408.388 27.0149 409.147 27.2046C410.02 27.4231 418.54 38.1692 432.374 56.4991L454.222 85.4488L454.39 56.1796L454.558 26.9105H464.552H474.546V72.4786V118.047H464.631H454.717L433.638 90.0788C422.045 74.6965 412.28 61.9364 411.938 61.7231C411.542 61.4764 411.316 71.6589 411.316 89.691V118.047H401.311H391.305L391.471 72.6415ZM360.509 18.3808C358.859 17.5567 357.936 16.7157 358.19 16.2657C359.447 14.03 359.777 13.9531 362.336 15.2984C365.516 16.9707 368.275 16.5215 367.968 14.3814C367.814 13.3062 366.854 12.6401 363.988 11.618C359.802 10.1251 358.409 8.70359 358.409 5.92547C358.409 2.88514 360.956 0.871692 364.801 0.871692C369.868 0.871692 372.566 2.60211 370.597 4.58859C370.101 5.08888 369.322 5.11425 368.062 4.67101C365.277 3.69154 362.603 4.20286 362.603 5.71483C362.603 6.65241 363.573 7.35698 366.371 8.45015C371.255 10.3591 371.958 11.0062 371.958 13.592C371.958 16.6327 371.414 17.7107 369.331 18.7974C366.78 20.1283 363.718 19.9838 360.509 18.3808ZM375.83 10.3108V0.871692H377.765H379.701V10.3108V19.7499H377.765H375.83V10.3108ZM388.088 11.9383V4.12657H385.508C383.185 4.12657 382.927 3.96394 382.927 2.49913V0.871692H390.024H397.121V2.49913C397.121 3.96382 396.863 4.12657 394.541 4.12657H391.96V11.9383V19.7499H390.024H388.088V11.9383ZM406.154 10.3236V0.738098L411.696 0.96765C416.594 1.17063 417.38 1.37567 418.47 2.734C420.039 4.68859 420.045 7.03694 418.485 8.61055C417.291 9.81546 417.299 9.86423 418.915 11.0814C421.027 12.6722 421.157 15.9688 419.186 17.9571C418.036 19.1172 416.845 19.3934 411.981 19.628L406.154 19.9091L406.154 10.3236ZM415.457 16.0999C416.018 15.8827 416.478 14.9965 416.478 14.1309C416.478 12.4396 414.5 11.2873 411.597 11.2873C410.194 11.2873 410.025 11.5662 410.025 13.8912C410.025 16.4212 410.088 16.495 412.231 16.495C413.444 16.495 414.896 16.3172 415.457 16.0999ZM415.232 7.65235C416.515 6.09327 415.17 4.48948 412.38 4.25001C410.074 4.0522 410.026 4.09599 410.026 6.36569C410.026 8.5645 410.137 8.68338 412.205 8.68338C413.406 8.68338 414.765 8.22068 415.232 7.65235ZM424.22 10.3236V0.738098L429.761 0.96765C434.659 1.17063 435.446 1.37567 436.536 2.734C438.105 4.68859 438.111 7.03694 436.551 8.61055C435.357 9.81546 435.365 9.86423 436.981 11.0814C439.093 12.6722 439.223 15.9688 437.252 17.9571C436.102 19.1172 434.911 19.3934 430.047 19.628L424.22 19.9091L424.22 10.3236ZM434.147 15.4998C436.027 13.6037 433.56 11.2873 429.662 11.2873C428.26 11.2873 428.091 11.5662 428.091 13.8912C428.091 16.4872 428.099 16.495 430.626 16.495C432.04 16.495 433.597 16.055 434.147 15.4998ZM433.298 7.65235C434.58 6.09327 433.236 4.48948 430.446 4.25001C428.14 4.0522 428.091 4.09599 428.091 6.36569C428.091 8.5645 428.203 8.68338 430.271 8.68338C431.472 8.68338 432.83 8.22068 433.298 7.65235ZM443.693 18.4451C441.814 17.585 441.058 16.9 441.373 16.3438C442.693 14.018 442.991 13.9437 445.567 15.2984C448.747 16.9707 451.506 16.5215 451.199 14.3814C451.045 13.3062 450.086 12.6401 447.22 11.618C443.034 10.1251 441.641 8.70359 441.641 5.92547C441.641 2.88514 444.187 0.871692 448.033 0.871692C453.1 0.871692 455.798 2.60211 453.829 4.58859C453.333 5.08888 452.554 5.11425 451.294 4.67101C448.509 3.69154 445.835 4.20286 445.835 5.71483C445.835 6.65241 446.805 7.35698 449.602 8.45015C454.487 10.3591 455.19 11.0062 455.19 13.592C455.19 16.6327 454.646 17.7107 452.563 18.7974C450.08 20.093 447.027 19.9719 443.693 18.4451ZM459.061 10.3108V0.871692H463.804C466.413 0.871692 469.421 1.17922 470.49 1.55509C474.508 2.96843 475.093 9.60887 471.439 12.3276C470.615 12.9405 470.768 13.468 472.512 16.0252C473.631 17.6658 474.546 19.175 474.546 19.379C474.546 19.5829 473.56 19.7499 472.355 19.7499C470.432 19.7499 469.911 19.3518 468.094 16.495C466.556 14.0762 465.627 13.2402 464.478 13.2402C463.054 13.2402 462.933 13.4949 462.933 16.495C462.933 19.6776 462.889 19.7499 460.997 19.7499H459.061V10.3108ZM469.256 9.20417C470.441 8.00825 470.177 5.5537 468.782 4.80044C468.095 4.42981 466.499 4.12657 465.233 4.12657C462.937 4.12657 462.933 4.13149 462.933 7.05594V9.98533H465.707C467.233 9.98533 468.83 9.6338 469.256 9.20417Z" fill="white"/>
</svg>
