<svg width="114" height="63" viewBox="0 0 114 63" fill="none" xmlns="http://www.w3.org/2000/svg">
<path d="M61.4228 62.6028C60.9322 62.3984 60.5855 61.897 60.5033 61.2731C60.4061 60.5353 60.8799 59.9018 61.6479 59.7427L62.1652 59.6356L62.2609 58.2808C62.3913 56.4333 62.41 53.3736 62.2908 53.3736C62.1355 53.3736 58.1828 54.138 57.8961 54.2235C57.6954 54.2833 57.6363 54.2109 57.6363 53.9054C57.6363 53.6878 57.5259 53.2925 57.391 53.027C57.1707 52.5932 57.1354 52.5745 57.0431 52.8423C56.8983 53.2624 57.1254 54.1604 57.4345 54.3905C57.799 54.6618 57.5484 54.8618 56.6949 54.9809C56.2465 55.0435 55.8657 55.0128 55.6528 54.8967C55.3739 54.7448 54.7053 54.8317 51.688 55.4122C49.6919 55.7962 46.6261 56.3829 44.8751 56.716C42.1436 57.2357 41.645 57.3727 41.3646 57.6807C41.1848 57.8782 40.7799 58.0869 40.4647 58.1444C40.1496 58.2019 37.6867 58.6754 34.9916 59.1965C30.515 60.0621 30.0493 60.1262 29.6035 59.9386C28.7215 59.5675 28.4399 58.1629 29.1216 57.5349C29.3102 57.3612 31.1174 56.9457 34.8516 56.2174C39.7226 55.2675 40.3643 55.1732 40.8485 55.3359C41.3234 55.4954 41.796 55.4403 44.6505 54.8924C46.4433 54.5483 48.7455 54.1068 49.7663 53.9115C55.3257 52.8474 55.1474 52.8903 55.2222 52.5993C55.3475 52.1112 56.7558 51.8422 57.1791 52.2254C57.3815 52.4086 57.718 52.3782 59.6409 52.0029C62.7541 51.3952 62.5364 51.4742 62.5364 50.9521V50.5015H59.6361C56.4922 50.5015 56.0841 50.422 55.4089 49.6779C55.0471 49.2791 55.0358 49.1975 54.9635 46.4462L54.8892 43.6236L51.9046 43.5481C48.7587 43.4684 48.4946 43.4077 48.4017 42.7435C48.3374 42.2839 47.7488 42.2274 47.318 42.6394C46.8139 43.1215 46.0515 43.0113 45.7618 42.4143C45.5227 41.9219 45.4423 39.1208 45.646 38.3813C45.8886 37.5004 46.5931 37.2518 47.2825 37.8039C47.842 38.2519 48.2661 38.196 48.4533 37.6495C48.5393 37.3984 48.7319 37.1263 48.8813 37.0449C49.0319 36.9628 50.447 36.8969 52.0582 36.8969H54.9635V35.0894V33.2818L53.9612 32.9837C49.249 31.582 47.1173 30.9985 45.9354 30.7868C42.9265 30.2479 40.5298 28.9922 38.3984 26.8378C36.3244 24.7415 35.172 22.5109 34.6799 19.64C33.955 15.4113 35.4402 11.1642 38.7457 8.01304C45.1192 1.93719 55.7023 3.18931 60.4707 10.5834C60.8699 11.2025 61.3066 12.0025 61.4412 12.3611C61.5758 12.7198 61.7322 13.0133 61.7888 13.0133C61.8454 13.0133 62.0535 12.659 62.2512 12.226C64.7897 6.66685 71.057 3.3455 77.2013 4.3032C82.997 5.20658 87.2955 9.00923 88.7765 14.5432C89.1753 16.0334 89.1325 19.3639 88.6944 20.9365C87.6909 24.5383 85.0673 27.7433 81.6916 29.491C80.7661 29.9702 78.7118 30.6616 77.8663 30.7785C76.7057 30.939 76.6209 30.9853 76.6714 31.4303L76.7172 31.833L79.9352 31.9086C83.1141 31.9832 83.1582 31.9887 83.5552 32.3621C84.0536 32.8306 84.3644 33.5498 84.3644 34.2347C84.3644 34.7009 84.4158 34.768 84.847 34.863C85.1124 34.9215 85.5169 35.1042 85.7459 35.269C86.1296 35.5451 86.1829 35.5496 86.4258 35.3258C86.736 35.04 87.2034 35.0103 87.4494 35.2608C87.5834 35.3971 87.6856 35.3848 87.8875 35.2082C88.3033 34.8444 88.6131 34.7868 88.9317 35.014C89.1917 35.1993 89.2587 35.1889 89.4915 34.927C89.7824 34.5998 90.3013 34.5361 90.5567 34.7961C90.6759 34.9175 90.8447 34.8692 91.1782 34.6182C91.5862 34.3111 91.6763 34.2957 92.0079 34.4763C92.3294 34.6515 92.417 34.6449 92.6529 34.4275C92.9723 34.1332 93.4375 34.1008 93.6875 34.3554C93.8235 34.4938 93.9427 34.4592 94.2094 34.2042C94.6256 33.8062 94.8664 33.7893 95.2385 34.1321C95.506 34.3785 95.5362 34.3682 95.8881 33.9105C96.4898 33.1279 97.8339 32.9013 99.1589 33.3592C99.7504 33.5636 99.9957 33.573 100.76 33.42C101.996 33.1729 105.349 32.1832 106.603 31.6953C107.547 31.328 107.647 31.2472 107.801 30.7234C107.894 30.4091 108.143 29.9861 108.354 29.7832C108.706 29.447 108.88 29.4104 110.324 29.37C111.714 29.3311 111.97 29.364 112.401 29.6378C113.337 30.2326 113.32 30.0332 113.319 40.331C113.319 49.3213 113.308 49.6881 113.029 50.1532C112.87 50.4189 112.566 50.7524 112.353 50.8945C111.863 51.2215 110.051 51.3515 109.21 51.12C108.517 50.9292 107.857 50.2469 107.728 49.5868C107.682 49.3564 107.536 49.1334 107.401 49.0913C107.267 49.0492 106.494 48.771 105.684 48.4732C104.873 48.1754 104.155 47.9317 104.087 47.9317C104.02 47.9317 103.965 48.5099 103.965 49.2166V50.5015H104.494C105.126 50.5015 105.598 50.7302 105.598 51.0359C105.598 51.1989 105.784 51.2579 106.304 51.2596C106.692 51.2608 107.109 51.3279 107.232 51.4085C107.417 51.5303 107.405 51.5554 107.162 51.5573C106.882 51.5596 106.884 51.5755 107.204 51.8997C107.49 52.1908 107.559 52.2072 107.68 52.0131C107.775 51.8604 107.822 51.8485 107.823 51.9766C107.825 52.0813 107.648 52.3704 107.43 52.6191C107.095 53.0016 106.925 53.0712 106.326 53.0712C105.762 53.0712 105.6 53.1294 105.529 53.3572C105.398 53.7791 105.061 53.8227 101.916 53.825L99.0506 53.8273L98.7066 53.4494L98.3626 53.0714H87.5843H76.8061L76.8787 55.4523C76.9186 56.7617 76.9874 58.2582 77.0316 58.7778C77.1083 59.6789 77.1303 59.7228 77.5085 59.7274C77.9224 59.7325 78.1982 59.9036 78.5733 60.3884C78.7901 60.6687 78.7834 60.6697 78.3208 60.4262C77.8959 60.2025 77.0785 60.1784 70.5993 60.1987C65.6184 60.2142 63.7244 60.2619 64.541 60.3512C66.0103 60.512 77.049 61.2358 78.0164 61.2349C78.7673 61.2343 78.8851 61.3969 78.5689 61.9984C78.179 62.7399 78.099 62.7465 69.6341 62.7362C65.2812 62.7311 61.5861 62.6708 61.4228 62.6028ZM74.5779 59.7615C76.3965 59.651 76.4069 59.6483 75.3808 59.5536C73.8837 59.4154 66.549 59.4018 65.0608 59.5344L63.7986 59.6469L64.9123 59.733C66.6565 59.8679 72.5431 59.8853 74.5779 59.7615ZM30.5815 58.5974C30.4753 58.2728 30.2953 57.976 30.1813 57.9379C30.0172 57.883 29.9903 58.0139 30.0517 58.5687C30.0944 58.9538 30.2184 59.3782 30.3275 59.5119C30.6529 59.9112 30.8174 59.3189 30.5815 58.5974ZM72.1244 58.0649C74.4068 57.0585 74.9493 53.8639 73.1299 52.1431C70.8755 50.011 67.168 51.0563 66.4871 54.016C66.4346 54.2447 66.4523 54.4317 66.5267 54.4317C66.6011 54.4317 66.7007 54.2746 66.748 54.0825C66.7954 53.8904 67.0405 53.4432 67.2927 53.0888C68.2204 51.7851 70.1397 51.3377 71.6685 52.0688C72.5416 52.4863 72.8087 52.7641 73.2162 53.6787C73.6161 54.5762 73.5998 55.3948 73.1629 56.35C72.7777 57.1923 71.8465 58.0154 71.1086 58.1659C70.8823 58.2121 70.6568 58.3164 70.6074 58.3977C70.4872 58.5957 71.3493 58.4066 72.1244 58.0649ZM41.4509 57.1389C41.4509 56.6709 41.0282 55.7601 40.8601 55.8658C40.646 56.0005 40.6719 56.4686 40.9281 57.0928C41.1538 57.6427 41.4509 57.6689 41.4509 57.1389ZM71.5067 57.1818C72.0742 56.8444 72.5959 56.0757 72.7221 55.3909C72.9535 54.1351 71.854 52.744 70.4621 52.5315C68.6159 52.2497 67.0077 54.0868 67.5733 55.8315C68.0561 57.3205 70.0956 58.0207 71.5067 57.1818ZM69.3813 56.5161C68.349 55.9525 68.1252 54.7191 68.9102 53.92C69.306 53.517 69.481 53.4492 70.1245 53.4492C70.7859 53.4492 70.9283 53.5085 71.3095 53.9429C71.8983 54.6136 71.9079 55.4482 71.3344 56.1015C70.8612 56.6406 69.9597 56.832 69.3813 56.5161ZM45.0147 55.9392C47.9239 55.5748 54.6871 54.1372 55.0303 53.8103C55.2299 53.6202 55.0217 53.6358 52.6619 53.987C48.6993 54.5768 43.2248 55.7709 42.8616 56.1246C42.7664 56.2173 42.8998 56.2384 43.2328 56.1833C43.5187 56.136 44.3205 56.0262 45.0147 55.9392ZM65.5177 52.9317C65.7604 52.6846 65.9517 52.3272 65.9517 52.1207C65.9517 51.6039 65.4387 50.9971 64.8998 50.8767C64.2957 50.7416 64.1941 50.8778 64.7111 51.1302C65.6679 51.5973 65.6077 52.7946 64.6089 53.1618L64.0956 53.3506L64.5896 53.3621C64.9471 53.3704 65.2036 53.2515 65.5177 52.9317ZM60.9773 52.7562C62.2385 52.576 64.3183 52.0228 64.3183 51.8676C64.3183 51.7057 62.9809 51.8449 61.3485 52.1767C59.5762 52.5369 58.8242 52.7515 58.8242 52.8969C58.8242 53.021 59.3785 52.9848 60.9773 52.7562ZM96.8375 52.0274L97.9512 51.9229L96.7633 51.7877C94.2157 51.4976 77.8745 51.6544 78.1805 51.966C78.4751 52.2658 93.759 52.3161 96.8375 52.0274ZM99.1254 51.0306C99.3174 50.7324 99.4932 50.6527 99.9592 50.6527C100.535 50.6527 100.55 50.6396 100.55 50.1236V49.5946H92.5899H84.63L84.1956 49.9666C83.5207 50.5448 82.8625 50.6509 79.9468 50.6518L77.2369 50.6524V51.0303V51.4082H88.0596H98.8822L99.1254 51.0306ZM77.0884 49.7832L81.4688 49.6701L78.4248 49.5776C76.7506 49.5267 71.3518 49.4757 66.4275 49.4642L57.4743 49.4434L57.1098 49.0723C56.7715 48.7279 56.7453 48.5929 56.7453 47.1917C56.7453 46.3615 56.6856 45.6446 56.6126 45.5986C56.5395 45.5527 56.4324 46.1239 56.3746 46.8681C56.2848 48.0221 56.3098 48.3055 56.5445 48.7945C57.083 49.9168 56.9215 49.8964 65.2835 49.8963C69.367 49.8963 74.6792 49.8454 77.0884 49.7832ZM97.58 48.8462C98.9828 48.7774 97.3012 48.7421 92.7541 48.7449C88.9156 48.7472 86.6437 48.7896 87.7054 48.8387C90.4557 48.9662 95.0649 48.9697 97.58 48.8462ZM100.55 47.6874C100.55 47.0383 100.526 46.9957 100.216 47.0778C98.0756 47.6432 97.2478 47.5835 96.4869 46.8089C96.0521 46.3663 95.9666 46.3337 95.7209 46.5166C95.3331 46.8053 94.9982 46.7731 94.6812 46.4166C94.4958 46.2079 94.361 46.1599 94.2573 46.2654C94.0314 46.4953 93.4067 46.4527 93.1191 46.1877C92.9111 45.9961 92.7977 45.9873 92.4729 46.138C92.1343 46.2951 92.0203 46.2766 91.6611 46.0062C91.3803 45.7949 91.1744 45.736 91.0335 45.8269C90.7079 46.0367 90.2798 45.9913 89.9801 45.7152C89.7442 45.4978 89.6566 45.4912 89.3351 45.6663C89.0036 45.847 88.9134 45.8316 88.5054 45.5245C88.1719 45.2735 88.0032 45.2252 87.8839 45.3466C87.6477 45.5871 87.1762 45.5513 86.8705 45.2697C86.6264 45.0448 86.5762 45.0502 86.2127 45.3413C85.9963 45.5146 85.5921 45.6997 85.3145 45.7528L84.8099 45.8491V47.1172V48.3853H92.6798H100.55V47.6874ZM81.6478 46.9823C81.8674 46.8373 81.928 36.0631 81.71 35.9259C81.6353 35.8789 77.279 35.7376 72.0295 35.6118C66.7799 35.486 62.4519 35.3496 62.4116 35.3086C62.3714 35.2677 63.8698 35.2254 65.7413 35.2148C67.6129 35.2042 70.3804 35.1484 71.8913 35.0909C73.9138 35.0138 72.5136 34.979 66.5828 34.959L58.5272 34.9318V35.9899V37.0481H68.773C78.8587 37.0481 79.0235 37.0527 79.3191 37.3538C79.6017 37.6415 79.617 37.8212 79.5789 40.3987C79.5387 43.1241 79.5366 43.1393 79.1673 43.4167C78.6729 43.7881 75.9257 44.2549 72.5595 44.5395C67.7298 44.9478 67.6578 44.9631 70.0352 45.0756C71.1785 45.1297 73.0105 45.1823 74.1063 45.1924C75.202 45.2026 76.0638 45.2462 76.0213 45.2894C75.9789 45.3326 73.3826 45.4701 70.2519 45.5949C67.1211 45.7197 64.5375 45.8443 64.5106 45.8717C64.4556 45.9277 66.5394 46.0236 73.8959 46.3036L78.9445 46.4957L76.346 46.6111C72.2821 46.7915 70.6775 46.8976 70.7591 46.9808C71.0266 47.2531 81.2353 47.2543 81.6478 46.9823ZM80.1659 41.5829C80.0293 41.0847 80.0481 39.0182 80.1927 38.6418C80.443 37.9904 80.5958 40.4739 80.369 41.5074L80.2695 41.9609L80.1659 41.5829ZM83.622 40.328C83.622 33.8516 83.6203 33.8157 83.2991 33.4677L82.9762 33.1179H70.151H57.3258L56.9561 33.4942C56.6036 33.8531 56.5884 33.9425 56.6288 35.4215L56.6711 36.9725L57.0794 37.0203L57.4878 37.0681L57.49 35.7354C57.4911 35.0024 57.5456 34.3173 57.6107 34.2129C57.7045 34.0625 60.32 34.0311 70.1929 34.0617L82.6567 34.1004L82.694 40.3736C82.7145 43.8239 82.7593 46.7235 82.7937 46.8171C82.8283 46.9117 83.0264 46.9543 83.239 46.9129L83.6219 46.8384L83.622 40.328ZM112.11 45.1961L112.577 45.0301V38.0244V31.0187L112.247 30.7834C111.835 30.4895 110.078 30.4612 109.7 30.7423C109.557 30.8492 109.402 31.2196 109.357 31.5654L109.274 32.1942L107.971 32.7251C106.445 33.3465 103.865 34.1232 101.392 34.7048L99.6365 35.1178L99.4165 34.798C99.2438 34.5471 99.0413 34.4783 98.4746 34.4783C97.4896 34.4783 97.283 34.5841 97.283 35.0884C97.283 35.4826 97.2238 35.5268 96.5034 35.6698C94.7079 36.0264 86.9718 37.0515 86.1096 37.0471C86.0073 37.0467 85.8097 36.8425 85.6706 36.5936C85.5189 36.3223 85.2959 36.1411 85.1137 36.1411C84.8148 36.1411 84.8099 36.2098 84.8099 40.3736C84.8099 44.686 84.8294 44.8352 85.3482 44.4905C85.4527 44.4211 85.5612 43.4161 85.6378 41.8097C85.7364 39.7395 85.7804 39.4015 85.8643 40.0713C85.9216 40.5286 85.975 41.2552 85.9831 41.6861C85.9953 42.3391 86.0491 42.4861 86.306 42.5691C86.4754 42.6239 86.6393 42.6431 86.67 42.6117C86.7008 42.5804 86.7726 41.6548 86.8297 40.5548C86.8867 39.4548 86.9622 38.5841 86.9974 38.6199C87.0327 38.6558 87.1202 39.5865 87.192 40.6883C87.3246 42.7239 87.3974 42.936 87.9653 42.941C88.1809 42.9428 88.2281 42.7954 88.2426 42.0742C88.2522 41.5961 88.3042 40.5248 88.3582 39.6934L88.4564 38.1818L88.5671 39.6934C88.8189 43.132 88.8052 43.0566 89.1946 43.1324C89.6149 43.2141 89.6335 43.1188 89.8228 39.9201L89.9436 37.8794L90.0579 40.1469C90.206 43.0853 90.2379 43.2457 90.6752 43.2457C91.0606 43.2457 91.0444 43.3365 91.3068 39.6934L91.4266 38.0306L91.5406 40.298C91.6875 43.2215 91.7223 43.3969 92.1557 43.3969C92.4883 43.3969 92.5018 43.3447 92.593 41.6963C92.6448 40.761 92.7348 39.5195 92.7929 38.9376L92.8986 37.8794L92.9924 39.6178C93.044 40.5739 93.095 41.8153 93.1057 42.3765C93.1252 43.3928 93.127 43.3969 93.5484 43.3969H93.9714L94.0673 41.923C94.1201 41.1124 94.1645 40.041 94.1662 39.5422C94.1679 39.0434 94.234 38.5332 94.3132 38.4085C94.4129 38.2514 94.4624 38.5767 94.4741 39.4666C94.4835 40.1733 94.5347 41.3297 94.5878 42.0364C94.6813 43.2799 94.6964 43.3213 95.0556 43.3213H95.4269L95.5764 40.6003C95.6949 38.4459 95.7489 38.0333 95.8363 38.6185C95.8969 39.0251 95.9471 39.7733 95.9476 40.2813C95.9482 40.7893 95.9916 41.6677 96.0441 42.2332C96.1366 43.2307 96.151 43.26 96.5256 43.2158L96.9118 43.1701L97.0562 40.3736L97.2007 37.5771L97.3181 39.3155C97.3827 40.2716 97.4848 41.564 97.5449 42.1876L97.6542 43.3213L98.2482 43.3607C98.5748 43.3824 98.9201 43.3478 99.0155 43.2839C99.1293 43.2076 99.2294 42.2324 99.3066 40.4479C99.4269 37.6711 99.6143 37.6717 99.6471 40.4491C99.655 41.1142 99.704 42.0194 99.7561 42.4606C99.8469 43.2308 99.8782 43.277 100.538 43.6175C102.203 44.4765 103.255 44.6816 105.994 44.6816C107.396 44.6816 108.598 44.6264 108.664 44.559C108.73 44.4916 108.925 42.1108 109.097 39.2683C109.268 36.4259 109.449 34.2703 109.498 34.4782C109.548 34.686 109.696 37.0328 109.827 39.6933C109.959 42.3537 110.097 44.6785 110.134 44.8595C110.234 45.3463 111.215 45.5135 112.11 45.1961ZM110.779 44.8083C110.529 44.7404 110.35 43.6516 110.35 42.2032V41.5074H111.241H112.132V43.1147C112.132 44.6539 112.118 44.726 111.798 44.8132C111.436 44.9118 111.154 44.9107 110.779 44.8083ZM103.07 44.0177C102.374 43.8642 101.465 43.5636 101.05 43.3496C100.315 42.9703 100.294 42.9408 100.202 42.1585C100.149 41.7172 100.106 41.1757 100.106 40.955L100.104 40.5539L100.863 40.8471C102.401 41.4421 103.657 41.6323 106.129 41.6445L108.515 41.6563L108.449 42.8667C108.413 43.5324 108.353 44.1111 108.315 44.1527C108.278 44.1943 107.367 44.2437 106.292 44.2625C104.843 44.2879 104.008 44.2245 103.07 44.0177ZM97.8213 42.6222C97.7702 42.3624 97.7285 41.6311 97.7285 40.9972V39.8446H98.4118H99.095L99.0057 40.5081C98.9566 40.8731 98.9164 41.6043 98.9164 42.1331V43.0946H98.4152C97.9727 43.0946 97.9032 43.0393 97.8213 42.6222ZM100.717 35.468C100.768 35.4155 101.971 35.0739 103.39 34.7089C104.809 34.3439 106.496 33.8684 107.14 33.6521C107.784 33.4359 108.337 33.2854 108.369 33.3178C108.479 33.4298 106.32 34.3347 105.045 34.7107C104.341 34.9184 103.292 35.157 102.714 35.2408C102.136 35.3246 101.43 35.4315 101.144 35.4783C100.858 35.5251 100.666 35.5205 100.717 35.468ZM111.719 32.8597C111.615 32.5098 111.307 31.9826 111.034 31.6882L110.538 31.1527H111.191C111.969 31.1527 112.014 31.2346 111.954 32.5291L111.909 33.4958L111.719 32.8597ZM55.8221 42.2603C56.1257 42.1339 56.5213 41.8478 56.7012 41.6243C56.9102 41.3646 57.1782 41.2157 57.4436 41.2115C57.8425 41.2053 57.8687 41.1571 58.1026 39.9957C58.2366 39.3306 58.3536 38.825 58.3625 38.8721C58.3714 38.9191 58.4493 39.3613 58.5355 39.8546C58.7968 41.3497 58.628 41.2271 60.5724 41.3336C62.6896 41.4495 69.79 41.505 69.8869 41.4063C69.9252 41.3674 70.0363 40.813 70.1338 40.1744C70.2313 39.5357 70.354 39.0132 70.4064 39.0132C70.4587 39.0132 70.5806 39.5301 70.6771 40.1618C70.7735 40.7936 70.8897 41.3718 70.9352 41.4467C70.9806 41.5216 71.2478 41.5829 71.5288 41.5829C72.0362 41.5829 72.0398 41.5784 72.0398 40.8952C72.0398 39.738 72.5204 39.1202 73.6731 38.7959C73.9912 38.7064 73.9745 38.7387 73.5562 39.0219C72.9548 39.4291 72.6337 40.0337 72.6337 40.7592C72.6337 41.185 72.7489 41.4281 73.1386 41.8248C73.6236 42.3186 73.9044 42.4104 74.7126 42.3398C75.2435 42.2934 75.864 41.9349 76.0605 41.561C76.1598 41.3721 76.2689 41.3049 76.3253 41.3977C76.3781 41.4846 76.6214 41.5856 76.8661 41.6222C77.2697 41.6826 77.2593 41.6909 76.7543 41.7115C76.448 41.7239 76.1975 41.8021 76.1975 41.8853C76.1975 42.0589 76.7454 42.0785 77.7359 41.9403L78.4248 41.8442V39.9744V38.1047L64.2069 38.1432L49.9891 38.1818L49.9465 39.6583C49.9149 40.7555 49.953 41.1532 50.095 41.2068C50.4867 41.3545 52.6066 41.5228 52.6742 41.4115C52.7128 41.3479 52.4919 41.2529 52.1834 41.2003C51.3048 41.0506 51.2704 41.0031 52.0308 40.9902C52.4187 40.9837 52.7282 40.9273 52.7185 40.8649C52.6044 40.1289 53.3555 39.1062 54.1839 38.8697C54.786 38.6979 54.8015 38.7832 54.2235 39.0875C52.9542 39.7557 53.0792 41.6759 54.4311 42.2751C55.0234 42.5376 55.1589 42.5361 55.8221 42.2603ZM55.6663 41.5881C56.0044 41.2674 56.234 40.7097 56.0888 40.5619C56.0395 40.5117 55.7494 40.6001 55.4442 40.7583C55.139 40.9165 54.8336 41.0723 54.7656 41.1045C54.6976 41.1367 54.8146 40.8847 55.0255 40.5446C55.2364 40.2044 55.409 39.8908 55.409 39.8476C55.409 39.6313 54.5067 39.8101 54.1478 40.0975L53.7376 40.426L53.9085 40.101C54.4376 39.0945 56.1097 39.3229 56.385 40.4393C56.4806 40.8275 56.2457 41.3957 55.8673 41.6915C55.4835 41.9915 55.3263 41.9106 55.6663 41.5881ZM74.97 41.5881C75.3094 41.2661 75.5375 40.7096 75.3911 40.5605C75.341 40.5095 74.9959 40.6182 74.6243 40.802C73.9426 41.1392 73.9281 41.1036 74.4399 40.3503C74.5899 40.1296 74.7126 39.9086 74.7126 39.859C74.7126 39.6729 73.8747 39.7783 73.5577 40.0043C73.3762 40.1337 73.2277 40.1716 73.2277 40.0885C73.2277 39.8056 73.886 39.4667 74.4354 39.4667C74.8648 39.4667 75.0663 39.5672 75.3676 39.9318C75.579 40.1876 75.752 40.497 75.752 40.6195C75.752 40.9735 75.3402 41.6886 75.0772 41.7914C74.671 41.95 74.6434 41.8978 74.97 41.5881ZM63.1486 41.1206C60.1104 41.0344 59.2033 40.9636 59.1045 40.8049C58.8659 40.4215 58.9724 40.3419 59.6038 40.4318C59.9509 40.4813 62.3601 40.5656 64.9576 40.6191C68.9922 40.7024 69.6684 40.7484 69.5979 40.9354C69.5526 41.0557 69.5154 41.1826 69.5154 41.2174C69.5154 41.2896 68.6225 41.276 63.1486 41.1206ZM69.7382 31.6603C67.3634 30.9671 65.8261 30.4267 64.2283 29.7236L62.4307 28.9326L61.7782 29.2801C61.4194 29.4713 60.5258 29.8496 59.7925 30.1209C58.5626 30.576 58.4936 30.6227 58.9016 30.7234C59.1449 30.7834 60.8474 30.9576 62.6849 31.1104L66.0259 31.3883L63.7244 31.6267L61.4228 31.8651L65.9517 31.8711C70.125 31.8768 70.4223 31.8601 69.7382 31.6603ZM78.837 29.3308C79.4678 29.168 80.5853 28.7398 81.3204 28.3791C82.7102 27.6971 84.8113 26.1219 85.1237 25.5277C85.2359 25.3143 85.0014 25.4618 84.5025 25.9184C82.4142 27.8298 80.1032 28.847 77.3111 29.0838L76.2717 29.1719L77.6081 28.821C80.9349 27.9475 83.6409 25.9546 85.2179 23.2167C86.1603 21.5805 86.4672 20.4768 86.5539 18.4108C86.6455 16.2313 86.3953 15.0012 85.5032 13.2447C83.5435 9.38603 79.771 7.12006 75.3065 7.12006C70.0093 7.12006 65.5284 10.4652 64.0207 15.5452C63.8418 16.148 63.6749 16.6412 63.6498 16.6412C63.55 16.6412 63.7662 15.2965 64.0303 14.2745C64.4088 12.8094 64.8865 11.7656 65.7143 10.5947L66.4089 9.61212L65.694 10.3965C63.4616 12.846 62.4991 17.1545 63.4089 20.625C64.626 25.2676 68.8659 28.9341 73.8307 29.6375C75.1567 29.8253 77.4695 29.6836 78.837 29.3308ZM74.8611 26.5423C74.6821 25.6647 74.7497 24.22 75.0013 23.5466C75.1102 23.2552 75.1395 23.2872 75.2527 23.8214C75.4263 24.6409 75.3909 26.7936 75.1979 27.1445C75.0667 27.3832 75.0129 27.287 74.8611 26.5423ZM68.4586 24.3882C68.9096 23.5452 71.044 21.6236 71.2718 21.8555C71.4151 22.0013 70.1558 23.4697 69.3961 24.0427C68.5203 24.7032 68.2336 24.8089 68.4586 24.3882ZM80.7877 24.0633C80.0418 23.5163 78.7478 22.0062 78.8958 21.8555C79.1198 21.6275 81.2624 23.5341 81.6846 24.3371C81.9271 24.7984 81.6924 24.7268 80.7877 24.0633ZM74.2671 20.322C73.5573 20.0331 72.7838 18.7605 72.9883 18.218C73.0595 18.029 73.1856 18.0506 73.7814 18.3538C74.9255 18.9358 75.1534 18.9461 76.162 18.4605C77.019 18.0479 77.0798 18.0383 77.1622 18.3026C77.2799 18.68 76.9197 19.5044 76.4405 19.9542C76.1527 20.2243 75.8478 20.3317 75.2706 20.3661C74.8412 20.3917 74.3896 20.3718 74.2671 20.322ZM72.2546 19.7065C71.869 19.1075 71.8027 17.9791 72.1055 17.1718C72.9556 14.9058 76.3346 14.5669 77.7426 16.6063C78.3355 17.4651 78.4344 18.6052 77.9926 19.4869C77.8186 19.8339 77.6516 20.1179 77.6214 20.1179C77.5911 20.1179 77.6631 19.7822 77.7812 19.3719C78.0428 18.4634 77.8755 17.6539 77.2763 16.9289C75.9838 15.3652 73.4518 15.653 72.5242 17.469C72.2524 18.001 72.2213 19.3135 72.4693 19.7852C72.7149 20.2523 72.5723 20.2001 72.2546 19.7065ZM67.0654 18.5377C66.9837 18.5053 66.5855 18.4332 66.1804 18.3774C65.1938 18.2415 65.5679 18.0307 67.0167 17.9063C68.3072 17.7955 70.1974 18.1104 69.4719 18.3153C68.9563 18.461 67.2661 18.6171 67.0654 18.5377ZM81.3353 18.4464C80.8535 18.3709 80.4306 18.2799 80.3955 18.2442C80.2258 18.0714 82.1801 17.8219 83.1309 17.895C84.4367 17.9953 84.953 18.2171 84.1984 18.3537C83.1288 18.5473 82.1764 18.5781 81.3353 18.4464ZM70.7683 14.3306C70.0594 13.9057 69.3317 13.2316 68.8288 12.5342C68.5336 12.1248 68.3204 11.7609 68.3551 11.7255C68.4811 11.5972 69.9362 12.7089 70.4735 13.3441C71.3728 14.4073 71.4768 14.7553 70.7683 14.3306ZM79.0385 14.1851C79.4561 13.3907 81.8401 11.3361 81.8401 11.7706C81.8401 12.0755 80.6853 13.383 79.9293 13.9342C79.0048 14.6081 78.7833 14.6705 79.0385 14.1851ZM74.9125 12.6332C74.8463 12.385 74.7921 11.6717 74.7921 11.0482C74.7921 10.4246 74.8463 9.71134 74.9125 9.46309C75.0257 9.03841 75.0428 9.02947 75.202 9.31193C75.296 9.47876 75.3712 10.25 75.3712 11.0482C75.3712 11.8463 75.296 12.6175 75.202 12.7844C75.0428 13.0668 75.0257 13.0579 74.9125 12.6332ZM52.0363 28.444C53.5478 28.0453 55.2708 27.119 56.3441 26.1279L57.205 25.333L57.1608 21.5539L57.1166 17.7749L54.7779 17.7332L52.4391 17.6916V20.6485V23.6053L51.7673 23.8985C49.978 24.6793 47.5343 24.6872 45.9979 23.9172C44.7589 23.2963 43.5303 21.9699 43.0784 20.7655C42.6102 19.5177 42.509 17.2661 42.8614 15.9406C44.057 11.4445 49.4458 9.91637 53.2391 12.9978C53.5566 13.2557 53.8614 13.4667 53.9165 13.4667C53.9715 13.4667 54.5401 12.6865 55.18 11.7328C56.5137 9.74506 56.5261 9.91379 54.97 8.86067C53.0249 7.54435 51.0798 6.9695 48.5651 6.96781C45.892 6.96609 43.7721 7.69866 41.7862 9.31071C39.2301 11.3856 37.9486 13.9495 37.7808 17.3243C37.6695 19.5626 37.9642 21.0823 38.8789 22.9867C39.447 24.1694 39.7773 24.631 40.7716 25.632C41.4341 26.2989 42.3535 27.0705 42.8147 27.3466C43.782 27.9257 45.3654 28.5154 46.5175 28.7256C47.7395 28.9485 50.695 28.7977 52.0363 28.444ZM80.0582 60.1003V58.8155H80.8749C81.5018 58.8155 81.6916 58.8681 81.6916 59.0422C81.6916 59.206 81.5266 59.2689 81.0976 59.2689C80.6027 59.2689 80.5037 59.3193 80.5037 59.5713C80.5037 59.8232 80.6027 59.8736 81.0976 59.8736C81.5266 59.8736 81.6916 59.9366 81.6916 60.1003C81.6916 60.2641 81.5266 60.3271 81.0976 60.3271C80.6027 60.3271 80.5037 60.3775 80.5037 60.6294C80.5037 60.8869 80.6027 60.9317 81.1719 60.9317C81.6668 60.9317 81.8401 60.9905 81.8401 61.1585C81.8401 61.3348 81.6421 61.3852 80.9491 61.3852H80.0582V60.1003ZM82.4331 60.7063L82.892 60.0274L82.5115 59.4592C82.1831 58.9689 82.1646 58.8838 82.3766 58.8383C82.5117 58.8093 82.7656 58.9687 82.941 59.1926L83.2599 59.5997L83.466 59.2076C83.5794 58.9919 83.7945 58.8155 83.944 58.8155C84.2882 58.8155 84.2827 58.9467 83.9189 59.4201C83.5558 59.8927 83.5515 60.1011 83.8946 60.6061C84.3836 61.3257 84.3985 61.3852 84.0908 61.3852C83.9269 61.3852 83.6723 61.1805 83.5084 60.917L83.2172 60.4489L82.8898 60.917C82.7096 61.1745 82.43 61.3852 82.2683 61.3852C81.9997 61.3852 82.014 61.3264 82.4331 60.7063ZM85.4038 60.3271C85.4038 59.2992 85.3932 59.2689 85.0326 59.2689C84.8016 59.2689 84.6614 59.1833 84.6614 59.0422C84.6614 58.8639 84.8676 58.8155 85.6266 58.8155C86.3855 58.8155 86.5917 58.8639 86.5917 59.0422C86.5917 59.1833 86.4515 59.2689 86.2205 59.2689C85.8599 59.2689 85.8493 59.2992 85.8493 60.3271C85.8493 61.1669 85.8033 61.3852 85.6266 61.3852C85.4498 61.3852 85.4038 61.1669 85.4038 60.3271ZM87.0372 60.1003V58.8155H87.8242C88.257 58.8155 88.6914 58.8971 88.7894 58.9968C89.0189 59.2304 89.0184 59.946 88.7883 60.3207C88.6421 60.5589 88.6557 60.6648 88.8625 60.8974C89.1908 61.2667 89.1822 61.3852 88.8272 61.3852C88.664 61.3852 88.4243 61.1881 88.2755 60.9317C88.1307 60.6823 87.8931 60.4782 87.7474 60.4782C87.552 60.4782 87.4824 60.5973 87.4824 60.9317C87.4824 61.2341 87.4082 61.3852 87.2597 61.3852C87.0791 61.3852 87.0372 61.1417 87.0372 60.1003ZM88.4479 59.6468C88.4479 59.4162 88.3334 59.3333 87.9653 59.2971C87.5315 59.2546 87.4827 59.2899 87.4827 59.6468C87.4827 60.0038 87.5315 60.0391 87.9653 59.9965C88.3334 59.9604 88.4479 59.8774 88.4479 59.6468ZM89.8309 60.1003C90.509 58.4811 90.7262 58.4366 91.3303 59.7928C91.9504 61.185 92.0006 61.3852 91.7299 61.3852C91.6047 61.3852 91.4308 61.2492 91.3434 61.0829C91.2262 60.86 91.0325 60.7806 90.6057 60.7806C90.1574 60.7806 90.0058 60.8487 89.9328 61.0829C89.8809 61.2492 89.7157 61.3852 89.5656 61.3852C89.3216 61.3852 89.3496 61.2494 89.8309 60.1003ZM90.8651 59.9361C90.702 59.5717 90.6769 59.5634 90.497 59.8138C90.2161 60.2049 90.2577 60.3271 90.672 60.3271C91.014 60.3271 91.0277 60.2994 90.8651 59.9361ZM92.3834 60.1773C92.1172 59.505 91.9384 58.9151 91.9862 58.8665C92.1824 58.6667 92.4856 58.9723 92.6771 59.5628C92.7891 59.9083 92.9374 60.2267 93.0067 60.2703C93.0759 60.3139 93.2735 60.0043 93.4457 59.5825C93.6569 59.0652 93.8453 58.8155 94.0245 58.8155C94.2612 58.8155 94.2364 58.9511 93.7964 60.0625C93.5248 60.7484 93.2048 61.3299 93.0851 61.3547C92.9365 61.3854 92.7139 61.0119 92.3834 60.1773ZM94.1647 61.3158C94.1647 61.2776 94.3938 60.7164 94.6738 60.0687C95.0455 59.2087 95.2658 58.878 95.4905 58.8427C95.6597 58.8162 95.7981 58.8271 95.7981 58.8671C95.7981 58.9071 96.0294 59.49 96.3122 60.1625C96.7817 61.2792 96.8018 61.3852 96.5449 61.3852C96.3902 61.3852 96.2212 61.2492 96.1693 61.0829C96.0963 60.8487 95.9446 60.7806 95.4963 60.7806C95.0696 60.7806 94.8759 60.86 94.7587 61.0829C94.6227 61.3414 94.1647 61.521 94.1647 61.3158ZM95.7981 60.2416C95.7981 60.1945 95.7241 60.0153 95.6336 59.8432C95.5017 59.5923 95.4434 59.5719 95.3389 59.7398C95.1218 60.0888 95.1876 60.3271 95.5011 60.3271C95.6645 60.3271 95.7981 60.2886 95.7981 60.2416ZM97.5257 61.0719C96.7635 60.4616 97.1489 58.8468 98.0683 58.798C98.8932 58.7543 99.3386 58.9403 99.1506 59.2501C99.0837 59.3601 98.9441 59.3576 98.6944 59.2418C98.1839 59.005 97.58 59.4185 97.58 60.0048C97.58 60.9034 98.7912 61.3065 98.8891 60.4404C98.9608 59.8063 99.3618 59.9057 99.3618 60.5575C99.3618 60.9904 99.2904 61.118 98.9809 61.2378C98.3941 61.4649 97.9539 61.4148 97.5257 61.0719ZM100.077 60.1003C100.755 58.4811 100.972 58.4366 101.576 59.7928C102.196 61.185 102.246 61.3852 101.976 61.3852C101.85 61.3852 101.677 61.2492 101.589 61.0829C101.472 60.86 101.278 60.7806 100.852 60.7806C100.403 60.7806 100.252 60.8487 100.179 61.0829C100.127 61.2492 99.9615 61.3852 99.8114 61.3852C99.5673 61.3852 99.5954 61.2494 100.077 60.1003ZM101.111 59.9361C100.948 59.5717 100.923 59.5634 100.743 59.8138C100.462 60.2049 100.504 60.3271 100.918 60.3271C101.26 60.3271 101.273 60.2994 101.111 59.9361ZM102.629 60.1003C102.629 58.5428 102.812 58.4436 103.608 59.5713C103.901 59.987 104.202 60.3271 104.276 60.3271C104.35 60.3271 104.41 59.987 104.41 59.5713C104.41 59.0002 104.465 58.8155 104.633 58.8155C104.814 58.8155 104.856 59.059 104.856 60.1003C104.856 61.226 104.824 61.3843 104.596 61.3779C104.453 61.3739 104.052 60.987 103.705 60.5182L103.074 59.6657V60.5255C103.074 61.1889 103.023 61.3852 102.851 61.3852C102.671 61.3852 102.629 61.1417 102.629 60.1003ZM105.45 61.1494C105.45 61.0198 105.715 60.5606 106.039 60.1291L106.628 59.3445L106.039 59.298C105.646 59.267 105.45 59.179 105.45 59.0335C105.45 58.8659 105.673 58.8154 106.415 58.8154C107.583 58.8154 107.622 58.9379 106.786 59.9677C106.46 60.3702 106.192 60.7517 106.192 60.8156C106.192 60.8794 106.46 60.9317 106.786 60.9317C107.215 60.9317 107.38 60.9947 107.38 61.1584C107.38 61.3367 107.174 61.3852 106.415 61.3852C105.64 61.3852 105.45 61.3388 105.45 61.1494ZM107.677 61.3439C107.677 61.3213 107.901 60.7601 108.175 60.0968C108.553 59.1786 108.748 58.8795 108.991 58.8427C109.167 58.8162 109.311 58.8271 109.311 58.8671C109.311 58.9071 109.542 59.49 109.825 60.1625C110.294 61.2792 110.314 61.3852 110.057 61.3852C109.903 61.3852 109.734 61.2492 109.682 61.0829C109.609 60.8487 109.457 60.7806 109.009 60.7806C108.582 60.7806 108.388 60.86 108.271 61.0829C108.146 61.3214 107.677 61.5274 107.677 61.3439ZM109.311 60.2416C109.311 60.1945 109.237 60.0153 109.146 59.8432C109.014 59.5923 108.956 59.5719 108.851 59.7398C108.634 60.0888 108.7 60.3271 109.014 60.3271C109.177 60.3271 109.311 60.2886 109.311 60.2416ZM80.5037 57.1527C80.5037 56.1248 80.4931 56.0945 80.1325 56.0945C79.9015 56.0945 79.7612 56.0089 79.7612 55.8678C79.7612 55.6895 79.9675 55.641 80.7264 55.641C81.4854 55.641 81.6916 55.6895 81.6916 55.8678C81.6916 56.0089 81.5513 56.0945 81.3204 56.0945C80.9597 56.0945 80.9491 56.1248 80.9491 57.1527C80.9491 57.9925 80.9032 58.2108 80.7264 58.2108C80.5496 58.2108 80.5037 57.9925 80.5037 57.1527ZM82.1371 56.9259C82.1371 55.8846 82.1793 55.641 82.3598 55.641C82.5154 55.641 82.5825 55.8006 82.5825 56.1701C82.5825 56.6866 82.5967 56.6992 83.1765 56.6992C83.7563 56.6992 83.7704 56.6866 83.7704 56.1701C83.7704 55.8006 83.8376 55.641 83.9932 55.641C84.1737 55.641 84.2159 55.8846 84.2159 56.9259C84.2159 57.9673 84.1737 58.2108 83.9932 58.2108C83.8376 58.2108 83.7704 58.0512 83.7704 57.6817C83.7704 57.1653 83.7563 57.1527 83.1765 57.1527C82.5967 57.1527 82.5825 57.1652 82.5825 57.6817C82.5825 58.0512 82.5154 58.2108 82.3598 58.2108C82.1793 58.2108 82.1371 57.9673 82.1371 56.9259ZM84.9584 56.9259V55.641H85.775C86.402 55.641 86.5917 55.6937 86.5917 55.8678C86.5917 56.0315 86.4268 56.0945 85.9978 56.0945C85.5028 56.0945 85.4038 56.1449 85.4038 56.3969C85.4038 56.6488 85.5028 56.6992 85.9978 56.6992C86.4268 56.6992 86.5917 56.7622 86.5917 56.9259C86.5917 57.0897 86.4268 57.1527 85.9978 57.1527C85.5028 57.1527 85.4038 57.2031 85.4038 57.455C85.4038 57.7125 85.5028 57.7573 86.072 57.7573C86.567 57.7573 86.7402 57.8161 86.7402 57.9841C86.7402 58.1604 86.5423 58.2108 85.8493 58.2108H84.9584V56.9259ZM88.4858 57.9119C88.2805 57.7475 88.0783 57.4304 88.0364 57.2074C87.9378 56.6827 88.1823 55.9773 88.528 55.789C88.9319 55.569 89.9453 55.6099 90.1445 55.8543C90.3815 56.145 90.1233 56.2832 89.6707 56.1081C88.7958 55.7694 88.1247 56.8909 88.8193 57.5308C89.089 57.7793 89.194 57.7937 89.5999 57.6377C90.1905 57.4107 90.4529 57.6337 89.9865 57.9666C89.5249 58.2956 88.9384 58.2743 88.4858 57.9119ZM91.1139 57.8398C90.8073 57.5277 90.7494 57.3236 90.7494 56.5549C90.7494 55.8434 90.7988 55.641 90.9722 55.641C91.1349 55.641 91.1955 55.8141 91.1969 56.2835C91.1998 57.1881 91.3304 57.5816 91.6635 57.6892C92.1626 57.8505 92.3828 57.4953 92.3828 56.5295C92.3828 55.7219 92.4118 55.641 92.7013 55.641C93.0045 55.641 93.0153 55.6898 92.9277 56.6614C92.8567 57.4474 92.7628 57.7425 92.5185 57.9463C92.0751 58.3162 91.5422 58.2758 91.1139 57.8398ZM93.5707 56.9259C93.5707 55.8846 93.6129 55.641 93.7935 55.641C93.9703 55.641 94.0162 55.8594 94.0162 56.6992V57.7573H94.5359C94.8989 57.7573 95.0556 57.8257 95.0556 57.9841C95.0556 58.1554 94.8742 58.2108 94.3132 58.2108H93.5707V56.9259ZM95.9466 57.1527C95.9466 56.1248 95.936 56.0945 95.5754 56.0945C95.3444 56.0945 95.2041 56.0089 95.2041 55.8678C95.2041 55.6895 95.4104 55.641 96.1693 55.641C96.9283 55.641 97.1345 55.6895 97.1345 55.8678C97.1345 56.0089 96.9943 56.0945 96.7633 56.0945C96.4027 56.0945 96.3921 56.1248 96.3921 57.1527C96.3921 57.9925 96.3461 58.2108 96.1693 58.2108C95.9925 58.2108 95.9466 57.9925 95.9466 57.1527ZM97.796 57.8398C97.4894 57.5277 97.4315 57.3236 97.4315 56.5549C97.4315 55.8434 97.4808 55.641 97.6542 55.641C97.8218 55.641 97.877 55.8239 97.877 56.3801C97.877 57.2986 98.2928 57.9318 98.7215 57.666C98.925 57.5398 99.0014 57.2726 99.0348 56.5701C99.0742 55.743 99.1131 55.641 99.3893 55.641C99.681 55.641 99.6947 55.7014 99.6195 56.6555C99.5561 57.4594 99.4714 57.7262 99.2115 57.9404C98.7562 58.3157 98.2265 58.278 97.796 57.8398ZM100.253 56.9259V55.641H101.04C101.473 55.641 101.907 55.7227 102.005 55.8224C102.236 56.0574 102.235 56.8884 102.003 57.1239C101.863 57.267 101.881 57.4052 102.086 57.7588C102.341 58.199 102.34 58.2108 102.051 58.2108C101.879 58.2108 101.644 58.0207 101.491 57.7573C101.346 57.5079 101.109 57.3038 100.963 57.3038C100.768 57.3038 100.698 57.4229 100.698 57.7573C100.698 58.0596 100.624 58.2108 100.475 58.2108C100.295 58.2108 100.253 57.9673 100.253 56.9259ZM101.663 56.4724C101.663 56.2418 101.549 56.1589 101.181 56.1227C100.747 56.0802 100.698 56.1155 100.698 56.4724C100.698 56.8293 100.747 56.8647 101.181 56.8221C101.549 56.786 101.663 56.703 101.663 56.4724ZM103.046 56.9259C103.725 55.3067 103.942 55.2622 104.546 56.6184C105.166 58.0106 105.216 58.2108 104.945 58.2108C104.82 58.2108 104.646 58.0748 104.559 57.9085C104.442 57.6855 104.248 57.6062 103.821 57.6062C103.373 57.6062 103.221 57.6743 103.148 57.9085C103.096 58.0748 102.931 58.2108 102.781 58.2108C102.537 58.2108 102.565 58.075 103.046 56.9259ZM104.081 56.7617C103.918 56.3973 103.892 56.389 103.713 56.6394C103.432 57.0305 103.473 57.1527 103.888 57.1527C104.23 57.1527 104.243 57.125 104.081 56.7617ZM105.598 56.9259C105.598 55.8846 105.641 55.641 105.821 55.641C105.998 55.641 106.044 55.8594 106.044 56.6992V57.7573H106.564C106.927 57.7573 107.083 57.8257 107.083 57.9841C107.083 58.1554 106.902 58.2108 106.341 58.2108H105.598V56.9259ZM20.414 41.629C19.931 41.5332 19.3697 40.8852 19.2616 40.2985C19.209 40.0129 19.2119 39.4264 19.2681 38.995C19.36 38.2898 19.4733 38.1004 20.392 37.1159L21.4137 36.021L20.4552 35.4754C19.6882 35.0387 19.4626 34.8242 19.3255 34.4012C19.0558 33.5692 19.2697 32.9998 20.2128 32.0397C20.8917 31.3487 21.2368 31.123 21.928 30.9185C23.1638 30.5528 24.5762 30.6762 25.5065 31.2312C25.9748 31.5106 26.2349 31.5935 26.2735 31.4757C26.436 30.9796 27.1596 30.8504 29.7775 30.8504C31.2054 30.8504 32.5416 30.9154 32.7469 30.9948C33.378 31.2391 33.6562 31.8496 33.6472 32.9708C33.6409 33.7563 33.5677 34.0728 33.3054 34.4477L32.9717 34.9248L33.3462 35.4859C34.4889 37.1978 34.0358 39.814 32.4066 40.9116C31.2055 41.7207 29.3614 41.9657 28.004 41.4966C27.3793 41.2807 27.2637 41.2807 26.7336 41.4966C26.2704 41.6852 25.5937 41.7299 23.4436 41.7135C21.9548 41.7022 20.5914 41.6642 20.414 41.629ZM31.1763 40.0109C33.0022 39.0497 33.1043 36.5005 31.3536 35.5823C30.6584 35.2176 30.6743 35.2321 30.8382 35.1125C30.9175 35.0547 31.2664 34.6858 31.6135 34.2927C32.1594 33.6745 32.2446 33.4859 32.2446 32.8945V32.2109H29.7945H27.3444V33.0423V33.8737H28.5504H29.7563L29.0701 34.6914C28.4739 35.4018 28.3839 35.5987 28.3839 36.1921V36.8751L29.1634 36.8031C30.2209 36.7055 30.6712 36.9574 30.7307 37.6796C30.8157 38.7113 29.7682 39.0157 28.4575 38.3402C28.062 38.1364 27.6948 37.9971 27.6414 38.0306C27.5881 38.0641 27.4212 38.3699 27.2705 38.7101C27.0209 39.2737 27.0174 39.3497 27.2311 39.5673C27.9612 40.3105 30.1415 40.5557 31.1763 40.0109ZM26.2756 39.4289L26.2307 38.6353L24.7734 38.5919L23.3161 38.5486L24.3753 37.3939C25.7173 35.9311 26.0631 35.2661 25.9738 34.3199C25.7443 31.8882 22.4638 31.2511 20.9025 33.3349L20.5168 33.8496L21.2207 34.2878L21.9245 34.726L22.4113 34.2243C23.4974 33.1049 24.7635 34.0051 23.9381 35.3098C23.7803 35.5592 22.9805 36.4775 22.1607 37.3504C20.7553 38.8471 20.6701 38.9743 20.6664 39.5801L20.6624 40.2225H23.4915H26.3205L26.2756 39.4289ZM26.8845 36.6807C26.8454 36.6409 26.725 36.7583 26.6169 36.9416C26.4291 37.26 26.4322 37.2632 26.6879 37.0139C26.8351 36.8704 26.9236 36.7204 26.8845 36.6807ZM0.474439 40.5626L0.481067 39.6934L2.61656 37.4511C5.27477 34.6598 5.62638 33.9875 4.91174 33.0627C4.35626 32.3438 3.18296 32.597 2.40516 33.6036L2.09334 34.0071L1.20792 33.4702L0.322504 32.9333L0.622691 32.5041C1.10235 31.8183 2.05125 31.0647 2.67416 30.8747C4.4296 30.3393 6.38997 31.0203 7.10384 32.4134C7.46643 33.1211 7.43607 34.558 7.0424 35.3214C6.74771 35.8928 4.36746 38.634 3.92868 38.9073C3.42847 39.2189 3.85706 39.3155 5.7392 39.3155H7.74381V40.3737V41.4318H4.10583H0.467828L0.474439 40.5626ZM12.9409 41.1268C12.4918 40.9543 11.7918 40.7164 11.3855 40.5981C8.84508 39.8585 7.78793 37.3548 8.43451 33.6091C8.51947 33.1169 8.79205 32.9842 9.18976 33.2413C9.33434 33.3348 9.32356 33.6002 9.13923 34.4861C8.82996 35.9724 8.91844 37.6705 9.35274 38.5838C9.5476 38.9936 9.93886 39.4578 10.3312 39.7446C11.1917 40.3736 11.2812 40.3474 10.723 39.6299C9.92915 38.6095 9.62584 37.7197 9.58536 36.2923L9.54893 35.0074L9.66257 36.3179C9.80593 37.9714 10.2895 39.0352 11.3311 39.9886C11.7442 40.3666 12.1549 40.676 12.2438 40.676C12.3328 40.676 12.1354 40.4738 11.8053 40.2267C10.5332 39.2743 9.91417 37.9397 9.9103 36.1411C9.90693 34.6082 10.2028 33.8151 11.183 32.7283C12.3223 31.4651 13.9875 30.9927 15.6471 31.462C16.353 31.6615 17.3253 32.4159 17.9482 33.2473C18.216 33.6048 18.4351 33.8264 18.4351 33.7399C18.4351 33.3256 17.1019 31.957 16.2835 31.5311C15.5333 31.1406 15.2541 31.0785 14.2875 31.0864C13.376 31.0939 13.0204 31.1708 12.4053 31.4937C11.4415 31.9996 10.3686 33.2096 9.98641 34.2216C9.8232 34.6538 9.68685 34.9053 9.6834 34.7806C9.67043 34.3134 10.4204 32.955 11.0384 32.3262C12.0005 31.3473 12.9298 30.9493 14.2774 30.9389C15.6523 30.9284 16.5655 31.3099 17.5703 32.3146C18.6147 33.3589 19.0839 34.5401 19.0903 36.1411C19.0948 37.234 19.0334 37.564 18.68 38.3496C17.6134 40.7213 15.0791 41.9476 12.9409 41.1268ZM15.5289 40.1361C15.8059 39.8542 15.8078 39.8358 15.6034 39.447C15.4798 39.2119 15.3993 39.1831 15.2406 39.3171C15.1274 39.4128 14.6686 39.472 14.2091 39.4504C13.2385 39.4046 12.8337 39.653 13.3034 40.0059C13.716 40.3159 14.0316 40.2684 15.3539 39.6977C15.5112 39.6297 15.6138 39.6515 15.6138 39.7528C15.6138 39.8449 15.5135 39.9202 15.391 39.9202C15.2685 39.9202 15.1683 39.9837 15.1683 40.0613C15.1683 40.1389 14.9845 40.2308 14.7599 40.2654C14.3715 40.3253 14.3746 40.3295 14.8236 40.351C15.0832 40.3635 15.4006 40.2668 15.5289 40.1361ZM12.1397 38.951C12.184 38.8337 12.0523 38.4766 11.8471 38.1574C11.642 37.8383 11.4294 37.3901 11.3747 37.1614C11.2755 36.7462 10.9633 36.608 10.7856 36.9006C10.6237 37.1674 10.8643 37.9128 11.3184 38.5509C11.7766 39.1949 12.0058 39.3065 12.1397 38.951ZM17.2302 38.9176C17.6533 38.6159 18.1302 37.5793 18.0284 37.1827C17.8986 36.6777 17.7224 36.7242 17.5406 37.3112C17.4438 37.6238 17.2045 38.1331 17.0089 38.4431C16.5036 39.2437 16.5708 39.3877 17.2302 38.9176ZM12.7946 38.1011C12.9421 37.7386 12.9444 37.5961 12.8051 37.4554C12.6662 37.3151 12.6473 37.3308 12.7202 37.5257C12.7717 37.6637 12.7034 37.9943 12.5682 38.2604C12.4331 38.5265 12.3861 38.7041 12.4639 38.6552C12.5417 38.6063 12.6905 38.3569 12.7946 38.1011ZM16.9518 38.2196C17.1136 37.9494 17.2443 37.6603 17.2421 37.5772C17.2398 37.494 17.1642 37.562 17.0739 37.7283C16.9835 37.8946 16.7734 38.1837 16.607 38.3708C16.4372 38.5616 16.3819 38.7109 16.481 38.7109C16.5781 38.7109 16.79 38.4898 16.9518 38.2196ZM13.3254 37.1877C12.4868 36.1732 13.1061 34.6295 14.3516 34.6295C14.7533 34.6295 15.0069 34.7442 15.3282 35.0714C15.8215 35.5735 15.9265 35.4706 15.451 34.9511C14.7584 34.1943 13.8002 34.1894 13.1803 34.9393C12.5461 35.7065 12.5527 36.6631 13.1971 37.3879C13.6099 37.8523 13.7255 37.6718 13.3254 37.1877ZM14.184 37.3818C14.2241 37.3159 14.1119 37.2509 13.9348 37.2373C13.6798 37.2178 13.6588 37.2419 13.8338 37.3548C14.1044 37.529 14.0951 37.5282 14.184 37.3818ZM15.093 37.201C15.145 37.1153 15.0854 37.09 14.9533 37.1416C14.696 37.2421 14.649 37.3504 14.8626 37.3504C14.9394 37.3504 15.0431 37.2832 15.093 37.201ZM14.696 36.1774C14.7317 35.923 14.6693 35.8388 14.4449 35.8388C14.0895 35.8388 13.9208 36.0675 14.041 36.3863C14.168 36.7232 14.6406 36.5725 14.696 36.1774ZM15.574 36.2042C15.5983 36.0005 15.5806 35.9818 15.5146 36.1411C15.463 36.2658 15.3472 36.424 15.2574 36.4927C15.1523 36.5731 15.1735 36.5956 15.3168 36.5558C15.4393 36.5218 15.555 36.3636 15.574 36.2042ZM13.8319 36.2167C13.8319 36.092 13.8056 35.9899 13.7735 35.9899C13.7414 35.9899 13.6767 36.092 13.6297 36.2167C13.5827 36.3414 13.6089 36.4434 13.688 36.4434C13.7672 36.4434 13.8319 36.3414 13.8319 36.2167ZM12.6456 35.1963C13.0008 34.6033 13.0085 34.4708 12.71 34.0915C12.4904 33.8125 12.4875 33.8156 12.65 34.1554C12.8856 34.6477 12.4441 35.4973 11.9086 35.5823C11.5344 35.6417 11.5347 35.6426 11.9408 35.665C12.2569 35.6824 12.4191 35.5745 12.6456 35.1963ZM14.2092 35.5264C14.3666 35.2671 14.2257 35.2417 13.9146 35.4732C13.6738 35.6525 13.6663 35.6876 13.869 35.6876C14.0023 35.6876 14.1554 35.6151 14.2092 35.5264ZM15.094 35.5364C15.1445 35.4533 15.119 35.3853 15.0373 35.3853C14.9557 35.3853 14.8475 35.4533 14.7971 35.5364C14.7466 35.6196 14.7721 35.6876 14.8538 35.6876C14.9355 35.6876 15.0436 35.6196 15.094 35.5364ZM18.0698 35.5266C18.2787 35.1825 17.9583 34.3183 17.3929 33.7011C16.6838 32.927 16.4452 33.0195 17.0714 33.8258C17.4996 34.3772 17.9333 35.5364 17.7114 35.5364C17.6533 35.5364 17.5276 35.2473 17.432 34.894C17.245 34.2023 16.5988 33.2765 16.4253 33.4516C16.367 33.5104 16.4928 33.7686 16.705 34.0252C16.9172 34.2819 17.1699 34.7609 17.2667 35.0898C17.4407 35.681 17.8431 35.8999 18.0698 35.5266ZM11.3747 35.1208C11.4294 34.8921 11.642 34.4439 11.8471 34.1248C12.2041 33.5695 12.231 33.1179 11.9071 33.1179C11.6779 33.1179 10.8952 34.2831 10.7868 34.7857C10.6183 35.5664 11.1903 35.8924 11.3747 35.1208ZM15.5464 32.953C15.8155 32.4234 15.7287 31.9825 15.3821 32.1179C15.256 32.1671 15.1866 32.1518 15.2278 32.0839C15.3268 31.921 13.686 32.0566 13.3403 32.2399C13.0364 32.4011 13.0909 32.7723 13.405 32.68C14.0019 32.5046 15.2877 32.4941 15.3907 32.6638C15.4724 32.7985 15.4077 32.8191 15.1498 32.7405C14.8156 32.6388 14.8119 32.6447 15.0796 32.8526C15.235 32.9733 15.3146 33.1504 15.2565 33.2461C15.1983 33.3419 15.1864 33.4202 15.23 33.4202C15.2735 33.4202 15.4159 33.21 15.5464 32.953ZM0.319336 27.0139V25.4448L5.7392 18.5503C8.72013 14.7583 11.1591 11.6211 11.1591 11.5787C11.1591 11.5363 8.82036 11.5016 5.96194 11.5016H0.764811V9.46096V7.42026H9.15446H17.5441L17.5436 9.04526L17.543 10.6703L12.1202 17.5481L6.69737 24.426L12.195 24.4657L17.6926 24.5053V26.5442V28.583H9.006H0.31937L0.319336 27.0139ZM25.4141 24.3485V20.1141L21.9246 13.9011C20.0053 10.4839 18.4351 7.62613 18.4351 7.55042C18.4351 7.47161 19.4658 7.43053 20.8465 7.45431L23.2579 7.49585L25.4768 11.3801C26.6972 13.5165 27.7433 15.2344 27.8015 15.1978C27.8597 15.1612 28.8933 13.3963 30.0982 11.2757L32.2891 7.42026H34.7169C36.0522 7.42026 37.1447 7.45843 37.1447 7.50503C37.1447 7.55165 35.541 10.4427 33.581 13.9296L30.0172 20.2694V24.4262V28.583H27.7157H25.4141V24.3485ZM90.3401 17.4348L90.3782 6.8912L92.2343 6.84749C93.2552 6.82344 94.2333 6.83984 94.4079 6.88389C94.6089 6.93462 96.5698 9.42996 99.7535 13.6864L104.782 20.4087L104.82 13.6122L104.859 6.81558H107.159H109.459V17.3969V27.9783H107.177H104.896L100.044 21.4839C97.3763 17.912 95.1289 14.9489 95.0502 14.8994C94.9592 14.8421 94.9071 17.2066 94.9071 21.3938V27.9783H92.6045H90.3019L90.3401 17.4348ZM83.2142 4.83491C82.8345 4.64355 82.6223 4.44824 82.6805 4.34375C82.97 3.82462 83.0459 3.80674 83.6347 4.11914C84.3665 4.50748 85.0015 4.40316 84.9309 3.9062C84.8954 3.65653 84.6746 3.50185 84.015 3.26451C83.0517 2.91785 82.731 2.58776 82.731 1.94266C82.731 1.23666 83.3171 0.76912 84.2022 0.76912C85.3682 0.76912 85.9891 1.17094 85.536 1.63222C85.4219 1.74839 85.2425 1.75428 84.9525 1.65136C84.3116 1.42392 83.6962 1.54265 83.6962 1.89374C83.6962 2.11146 83.9196 2.27507 84.5633 2.52891C85.6875 2.97218 85.8493 3.12244 85.8493 3.72291C85.8493 4.42898 85.7241 4.67929 85.2447 4.93165C84.6577 5.2407 83.9529 5.20714 83.2142 4.83491ZM86.7402 2.96098V0.76912H87.1857H87.6312V2.96098V5.15283H87.1857H86.7402V2.96098ZM89.5615 3.33888V1.52493H88.9676C88.433 1.52493 88.3736 1.48717 88.3736 1.14703V0.76912H90.007H91.6404V1.14703C91.6404 1.48714 91.581 1.52493 91.0464 1.52493H90.4525V3.33888V5.15283H90.007H89.5615V3.33888ZM93.7192 2.96395V0.738098L94.9945 0.791402C96.1218 0.838537 96.3028 0.88615 96.5537 1.20157C96.9147 1.65544 96.9161 2.20075 96.557 2.56616C96.2822 2.84595 96.2841 2.85727 96.656 3.13992C97.142 3.50932 97.1719 4.27481 96.7184 4.73653C96.4538 5.0059 96.1796 5.07005 95.0602 5.12453L93.7191 5.1898L93.7192 2.96395ZM95.8602 4.30526C95.9894 4.25481 96.0951 4.04905 96.0951 3.84803C96.0951 3.45531 95.6398 3.18772 94.9717 3.18772C94.6489 3.18772 94.6102 3.25249 94.6102 3.79237C94.6102 4.37987 94.6246 4.39701 95.1177 4.39701C95.3969 4.39701 95.731 4.35571 95.8602 4.30526ZM95.8084 2.34366C96.1036 1.98162 95.7941 1.60921 95.152 1.5536C94.6214 1.50766 94.6102 1.51783 94.6102 2.04488C94.6102 2.55546 94.6359 2.58307 95.1117 2.58307C95.3882 2.58307 95.7009 2.47563 95.8084 2.34366ZM97.877 2.96395V0.738098L99.1523 0.791402C100.279 0.838537 100.46 0.88615 100.711 1.20157C101.072 1.65544 101.074 2.20075 100.715 2.56616C100.44 2.84595 100.442 2.85727 100.814 3.13992C101.3 3.50932 101.33 4.27481 100.876 4.73653C100.612 5.0059 100.337 5.07005 99.218 5.12453L97.8769 5.1898L97.877 2.96395ZM100.162 4.1659C100.594 3.72561 100.027 3.18772 99.1295 3.18772C98.8066 3.18772 98.7679 3.25249 98.7679 3.79237C98.7679 4.39519 98.7696 4.39701 99.3512 4.39701C99.6767 4.39701 100.035 4.29484 100.162 4.1659ZM99.9661 2.34366C100.261 1.98162 99.9519 1.60921 99.3097 1.5536C98.7791 1.50766 98.7679 1.51783 98.7679 2.04488C98.7679 2.55546 98.7936 2.58307 99.2694 2.58307C99.5459 2.58307 99.8586 2.47563 99.9661 2.34366ZM102.358 4.84985C101.926 4.65011 101.752 4.49104 101.825 4.36189C102.128 3.82182 102.197 3.80456 102.79 4.11914C103.522 4.50748 104.157 4.40316 104.086 3.9062C104.051 3.65653 103.83 3.50185 103.17 3.26451C102.207 2.91785 101.886 2.58776 101.886 1.94266C101.886 1.23666 102.472 0.76912 103.357 0.76912C104.523 0.76912 105.144 1.17094 104.691 1.63222C104.577 1.74839 104.398 1.75428 104.108 1.65136C103.467 1.42392 102.851 1.54265 102.851 1.89374C102.851 2.11146 103.075 2.27507 103.718 2.52891C104.843 2.97218 105.004 3.12244 105.004 3.72291C105.004 4.42898 104.879 4.67929 104.4 4.93165C103.828 5.2325 103.126 5.20436 102.358 4.84985ZM105.895 2.96098V0.76912H106.987C107.587 0.76912 108.28 0.840532 108.526 0.927812C109.45 1.256 109.585 2.79798 108.744 3.4293C108.554 3.57161 108.59 3.6941 108.991 4.28792C109.249 4.66887 109.459 5.01932 109.459 5.06669C109.459 5.11405 109.232 5.15283 108.955 5.15283C108.512 5.15283 108.392 5.06039 107.974 4.39701C107.62 3.83533 107.406 3.64121 107.142 3.64121C106.814 3.64121 106.786 3.70036 106.786 4.39701C106.786 5.13603 106.776 5.15283 106.341 5.15283H105.895V2.96098ZM108.242 2.704C108.514 2.4263 108.454 1.85633 108.133 1.68141C107.975 1.59535 107.607 1.52493 107.316 1.52493C106.787 1.52493 106.786 1.52608 106.786 2.20516V2.88539H107.425C107.776 2.88539 108.144 2.80377 108.242 2.704Z" fill="white"/>
</svg>
